STARTFONT 2.1
COMMENT
COMMENT Converted from OpenType font "ipag.ttf" by "otf2bdf 3.0".
COMMENT
FONT -FreeType-IPAGothic-Medium-R-Normal--20-200-72-72-P-174-ISO10646-1
SIZE 20 72 72
FONTBOUNDINGBOX 20 20 0 -2
STARTPROPERTIES 19
FOUNDRY "FreeType"
FAMILY_NAME "IPAGothic"
WEIGHT_NAME "Medium"
SLANT "R"
SETWIDTH_NAME "Normal"
ADD_STYLE_NAME ""
PIXEL_SIZE 20
POINT_SIZE 200
RESOLUTION_X 72
RESOLUTION_Y 72
SPACING "P"
AVERAGE_WIDTH 174
CHARSET_REGISTRY "ISO10646"
CHARSET_ENCODING "1"
FONT_ASCENT 17
FONT_DESCENT 2
COPYRIGHT "Copyright(c) Information-technology Promotion Agency, Japan (IPA), 2003-2011. You must accept "http://ipafont.ipa.go.jp/ipa_font_license_v1.html" to use this product."
_OTF_FONTFILE "ipag.ttf"
_OTF_PSNAME "IPAGothic"
ENDPROPERTIES
CHARS 11158
STARTCHAR 0020
ENCODING 32
SWIDTH 500 0
DWIDTH 10 0
BBX 0 0 0 0
BITMAP
ENDCHAR
STARTCHAR 0021
ENCODING 33
SWIDTH 500 0
DWIDTH 10 0
BBX 2 16 4 0
BITMAP
C0
C0
C0
C0
C0
C0
C0
C0
C0
C0
C0
C0
00
00
C0
C0
ENDCHAR
STARTCHAR 0022
ENCODING 34
SWIDTH 500 0
DWIDTH 10 0
BBX 7 6 1 11
BITMAP
66
66
22
66
44
CC
ENDCHAR
STARTCHAR 0023
ENCODING 35
SWIDTH 500 0
DWIDTH 10 0
BBX 8 17 1 -1
BITMAP
32
32
22
22
FF
26
26
24
24
64
64
64
FF
44
4C
4C
4C
ENDCHAR
STARTCHAR 0024
ENCODING 36
SWIDTH 500 0
DWIDTH 10 0
BBX 8 18 1 -1
BITMAP
18
38
7E
DA
DB
D8
58
78
18
1E
1A
1B
99
DB
DB
7E
18
18
ENDCHAR
STARTCHAR 0025
ENCODING 37
SWIDTH 500 0
DWIDTH 10 0
BBX 8 18 1 -1
BITMAP
61
B1
92
92
96
94
9C
B8
68
16
1D
39
29
69
49
C9
8D
86
ENDCHAR
STARTCHAR 0026
ENCODING 38
SWIDTH 500 0
DWIDTH 10 0
BBX 8 14 1 1
BITMAP
3C
66
46
46
64
38
30
59
C9
8F
87
86
47
3D
ENDCHAR
STARTCHAR 0027
ENCODING 39
SWIDTH 500 0
DWIDTH 10 0
BBX 3 6 1 11
BITMAP
60
60
20
60
40
C0
ENDCHAR
STARTCHAR 0028
ENCODING 40
SWIDTH 500 0
DWIDTH 10 0
BBX 5 18 3 -1
BITMAP
18
10
20
60
40
40
C0
C0
C0
C0
C0
C0
40
40
60
20
10
18
ENDCHAR
STARTCHAR 0029
ENCODING 41
SWIDTH 500 0
DWIDTH 10 0
BBX 5 18 2 -1
BITMAP
C0
40
20
30
10
10
18
18
18
18
18
18
10
10
30
20
40
C0
ENDCHAR
STARTCHAR 002A
ENCODING 42
SWIDTH 500 0
DWIDTH 10 0
BBX 8 10 1 2
BITMAP
18
18
DB
F7
18
34
F7
DB
18
18
ENDCHAR
STARTCHAR 002B
ENCODING 43
SWIDTH 500 0
DWIDTH 10 0
BBX 8 12 1 2
BITMAP
18
18
18
18
18
18
FF
18
18
18
18
18
ENDCHAR
STARTCHAR 002C
ENCODING 44
SWIDTH 500 0
DWIDTH 10 0
BBX 3 5 1 -2
BITMAP
60
60
60
40
C0
ENDCHAR
STARTCHAR 002D
ENCODING 45
SWIDTH 500 0
DWIDTH 10 0
BBX 8 1 1 7
BITMAP
FF
ENDCHAR
STARTCHAR 002E
ENCODING 46
SWIDTH 500 0
DWIDTH 10 0
BBX 3 3 2 0
BITMAP
E0
E0
E0
ENDCHAR
STARTCHAR 002F
ENCODING 47
SWIDTH 500 0
DWIDTH 10 0
BBX 8 17 1 -1
BITMAP
01
01
02
02
04
04
08
08
10
10
10
20
20
40
40
80
80
ENDCHAR
STARTCHAR 0030
ENCODING 48
SWIDTH 500 0
DWIDTH 10 0
BBX 8 14 1 1
BITMAP
3C
66
42
C7
C7
CB
CB
D3
D3
E3
E3
42
66
3C
ENDCHAR
STARTCHAR 0031
ENCODING 49
SWIDTH 500 0
DWIDTH 10 0
BBX 4 14 2 1
BITMAP
30
F0
F0
30
30
30
30
30
30
30
30
30
30
30
ENDCHAR
STARTCHAR 0032
ENCODING 50
SWIDTH 500 0
DWIDTH 10 0
BBX 8 14 1 1
BITMAP
3C
62
C3
C3
03
03
06
1C
38
30
60
C0
C0
FF
ENDCHAR
STARTCHAR 0033
ENCODING 51
SWIDTH 500 0
DWIDTH 10 0
BBX 8 14 1 1
BITMAP
3C
46
C3
03
03
06
3C
06
03
01
C1
C3
42
3C
ENDCHAR
STARTCHAR 0034
ENCODING 52
SWIDTH 500 0
DWIDTH 10 0
BBX 9 14 1 1
BITMAP
0600
0E00
0E00
1600
3600
2600
6600
C600
8600
FF80
0600
0600
0600
0600
ENDCHAR
STARTCHAR 0035
ENCODING 53
SWIDTH 500 0
DWIDTH 10 0
BBX 8 14 1 1
BITMAP
7E
40
40
40
40
5C
E6
C3
03
01
01
C3
46
3C
ENDCHAR
STARTCHAR 0036
ENCODING 54
SWIDTH 500 0
DWIDTH 10 0
BBX 8 14 1 1
BITMAP
1C
62
43
40
C0
DC
A2
C3
C3
C1
C3
43
66
3C
ENDCHAR
STARTCHAR 0037
ENCODING 55
SWIDTH 500 0
DWIDTH 10 0
BBX 8 14 1 1
BITMAP
FF
03
02
06
06
04
0C
0C
08
18
18
10
30
30
ENDCHAR
STARTCHAR 0038
ENCODING 56
SWIDTH 500 0
DWIDTH 10 0
BBX 8 14 1 1
BITMAP
3C
66
C3
C3
C3
66
3C
46
C3
81
81
C3
C3
3C
ENDCHAR
STARTCHAR 0039
ENCODING 57
SWIDTH 500 0
DWIDTH 10 0
BBX 8 14 1 1
BITMAP
3C
66
C2
C3
C3
C3
C3
65
39
03
03
C2
46
3C
ENDCHAR
STARTCHAR 003A
ENCODING 58
SWIDTH 500 0
DWIDTH 10 0
BBX 2 10 4 1
BITMAP
C0
C0
00
00
00
00
00
00
C0
C0
ENDCHAR
STARTCHAR 003B
ENCODING 59
SWIDTH 500 0
DWIDTH 10 0
BBX 3 13 3 -2
BITMAP
60
60
00
00
00
00
00
00
60
60
40
C0
80
ENDCHAR
STARTCHAR 003C
ENCODING 60
SWIDTH 500 0
DWIDTH 10 0
BBX 8 15 1 0
BITMAP
01
02
04
08
10
20
40
80
40
30
18
0C
06
03
01
ENDCHAR
STARTCHAR 003D
ENCODING 61
SWIDTH 500 0
DWIDTH 10 0
BBX 8 5 1 5
BITMAP
FF
00
00
00
FF
ENDCHAR
STARTCHAR 003E
ENCODING 62
SWIDTH 500 0
DWIDTH 10 0
BBX 8 15 1 0
BITMAP
80
40
20
10
08
04
02
01
02
0C
18
30
60
C0
80
ENDCHAR
STARTCHAR 003F
ENCODING 63
SWIDTH 500 0
DWIDTH 10 0
BBX 8 16 1 0
BITMAP
3C
62
C3
C3
C3
03
06
0C
18
18
18
18
00
00
18
18
ENDCHAR
STARTCHAR 0040
ENCODING 64
SWIDTH 500 0
DWIDTH 10 0
BBX 9 15 0 0
BITMAP
1E00
3100
6080
4E80
5A80
5280
D280
D280
D280
5680
5F00
4000
6080
2100
1E00
ENDCHAR
STARTCHAR 0041
ENCODING 65
SWIDTH 500 0
DWIDTH 10 0
BBX 8 14 1 1
BITMAP
18
18
3C
3C
24
24
66
66
7E
42
C3
C3
81
81
ENDCHAR
STARTCHAR 0042
ENCODING 66
SWIDTH 500 0
DWIDTH 10 0
BBX 8 14 1 1
BITMAP
FC
C6
C3
C3
C2
C6
F8
C6
C3
C3
C3
C3
C2
FC
ENDCHAR
STARTCHAR 0043
ENCODING 67
SWIDTH 500 0
DWIDTH 10 0
BBX 8 14 1 1
BITMAP
3C
66
43
C3
C0
C0
C0
C0
C0
C3
C3
43
66
3C
ENDCHAR
STARTCHAR 0044
ENCODING 68
SWIDTH 500 0
DWIDTH 10 0
BBX 8 14 1 1
BITMAP
F8
46
42
43
43
43
43
43
43
43
43
42
46
F8
ENDCHAR
STARTCHAR 0045
ENCODING 69
SWIDTH 500 0
DWIDTH 10 0
BBX 8 14 1 1
BITMAP
FE
C0
C0
C0
C0
C0
FE
C0
C0
C0
C0
C0
C0
FF
ENDCHAR
STARTCHAR 0046
ENCODING 70
SWIDTH 500 0
DWIDTH 10 0
BBX 7 14 1 1
BITMAP
FE
C0
C0
C0
C0
C0
FE
C0
C0
C0
C0
C0
C0
C0
ENDCHAR
STARTCHAR 0047
ENCODING 71
SWIDTH 500 0
DWIDTH 10 0
BBX 8 14 1 1
BITMAP
3C
66
43
C3
C0
C0
C0
CF
C1
C3
C3
43
65
39
ENDCHAR
STARTCHAR 0048
ENCODING 72
SWIDTH 500 0
DWIDTH 10 0
BBX 8 14 1 1
BITMAP
C3
C3
C3
C3
C3
C3
FF
C3
C3
C3
C3
C3
C3
C3
ENDCHAR
STARTCHAR 0049
ENCODING 73
SWIDTH 500 0
DWIDTH 10 0
BBX 6 14 2 1
BITMAP
FC
30
30
30
30
30
30
30
30
30
30
30
30
FC
ENDCHAR
STARTCHAR 004A
ENCODING 74
SWIDTH 500 0
DWIDTH 10 0
BBX 7 14 1 1
BITMAP
06
06
06
06
06
06
06
06
06
06
C6
C6
46
3C
ENDCHAR
STARTCHAR 004B
ENCODING 75
SWIDTH 500 0
DWIDTH 10 0
BBX 8 14 1 1
BITMAP
C3
C6
CC
CC
D8
D8
F8
E8
CC
C4
C6
C6
C3
C3
ENDCHAR
STARTCHAR 004C
ENCODING 76
SWIDTH 500 0
DWIDTH 10 0
BBX 8 14 1 1
BITMAP
C0
C0
C0
C0
C0
C0
C0
C0
C0
C0
C0
C0
C0
FF
ENDCHAR
STARTCHAR 004D
ENCODING 77
SWIDTH 500 0
DWIDTH 10 0
BBX 8 14 1 1
BITMAP
C3
C3
C3
E7
A5
A5
A5
A5
A5
BD
99
99
99
99
ENDCHAR
STARTCHAR 004E
ENCODING 78
SWIDTH 500 0
DWIDTH 10 0
BBX 8 14 1 1
BITMAP
C3
E3
E3
E3
F3
D3
DB
CB
CB
CF
C7
C7
C7
C3
ENDCHAR
STARTCHAR 004F
ENCODING 79
SWIDTH 500 0
DWIDTH 10 0
BBX 8 14 1 1
BITMAP
3C
66
42
C3
C3
C3
C3
C3
C3
C3
C3
42
66
3C
ENDCHAR
STARTCHAR 0050
ENCODING 80
SWIDTH 500 0
DWIDTH 10 0
BBX 8 14 1 1
BITMAP
FC
C3
C3
C3
C3
C2
FC
C0
C0
C0
C0
C0
C0
C0
ENDCHAR
STARTCHAR 0051
ENCODING 81
SWIDTH 500 0
DWIDTH 10 0
BBX 8 15 1 -1
BITMAP
3C
66
42
C3
C3
C3
C3
C3
C3
C3
DB
4E
66
3C
06
ENDCHAR
STARTCHAR 0052
ENCODING 82
SWIDTH 500 0
DWIDTH 10 0
BBX 8 14 1 1
BITMAP
FC
C2
C3
C3
C3
C6
FC
CC
CC
C4
C6
C2
C3
C3
ENDCHAR
STARTCHAR 0053
ENCODING 83
SWIDTH 500 0
DWIDTH 10 0
BBX 8 14 1 1
BITMAP
3C
66
C2
C3
C0
70
38
0C
06
03
C3
C3
63
3E
ENDCHAR
STARTCHAR 0054
ENCODING 84
SWIDTH 500 0
DWIDTH 10 0
BBX 8 14 1 1
BITMAP
FF
18
18
18
18
18
18
18
18
18
18
18
18
18
ENDCHAR
STARTCHAR 0055
ENCODING 85
SWIDTH 500 0
DWIDTH 10 0
BBX 8 14 1 1
BITMAP
C3
C3
C3
C3
C3
C3
C3
C3
C3
C3
C3
C3
66
3C
ENDCHAR
STARTCHAR 0056
ENCODING 86
SWIDTH 500 0
DWIDTH 10 0
BBX 8 14 1 1
BITMAP
C3
C3
C3
43
42
66
66
66
24
24
3C
3C
18
18
ENDCHAR
STARTCHAR 0057
ENCODING 87
SWIDTH 500 0
DWIDTH 10 0
BBX 8 14 1 1
BITMAP
99
99
99
99
99
99
FF
E7
E7
66
66
66
66
66
ENDCHAR
STARTCHAR 0058
ENCODING 88
SWIDTH 500 0
DWIDTH 10 0
BBX 8 14 1 1
BITMAP
C3
66
66
24
3C
3C
18
18
3C
3C
66
66
C3
C3
ENDCHAR
STARTCHAR 0059
ENCODING 89
SWIDTH 500 0
DWIDTH 10 0
BBX 8 14 1 1
BITMAP
C3
C3
42
66
26
3C
3C
18
18
18
18
18
18
18
ENDCHAR
STARTCHAR 005A
ENCODING 90
SWIDTH 500 0
DWIDTH 10 0
BBX 8 14 1 1
BITMAP
7F
02
06
04
0C
08
18
18
30
30
60
60
40
FF
ENDCHAR
STARTCHAR 005B
ENCODING 91
SWIDTH 500 0
DWIDTH 10 0
BBX 6 18 2 -1
BITMAP
FC
C0
C0
C0
C0
C0
C0
C0
C0
C0
C0
C0
C0
C0
C0
C0
C0
FC
ENDCHAR
STARTCHAR 005C
ENCODING 92
SWIDTH 500 0
DWIDTH 10 0
BBX 8 14 1 1
BITMAP
C3
C3
66
24
3C
18
FF
18
18
FF
18
18
18
18
ENDCHAR
STARTCHAR 005D
ENCODING 93
SWIDTH 500 0
DWIDTH 10 0
BBX 6 18 2 -1
BITMAP
FC
0C
0C
0C
0C
0C
0C
0C
0C
0C
0C
0C
0C
0C
0C
0C
0C
FC
ENDCHAR
STARTCHAR 005E
ENCODING 94
SWIDTH 500 0
DWIDTH 10 0
BBX 6 2 2 13
BITMAP
78
CC
ENDCHAR
STARTCHAR 005F
ENCODING 95
SWIDTH 500 0
DWIDTH 10 0
BBX 0 0 0 -2
BITMAP
ENDCHAR
STARTCHAR 0060
ENCODING 96
SWIDTH 500 0
DWIDTH 10 0
BBX 4 2 3 13
BITMAP
C0
30
ENDCHAR
STARTCHAR 0061
ENCODING 97
SWIDTH 500 0
DWIDTH 10 0
BBX 8 9 1 1
BITMAP
7C
42
02
3E
62
C2
C2
C6
7B
ENDCHAR
STARTCHAR 0062
ENCODING 98
SWIDTH 500 0
DWIDTH 10 0
BBX 8 14 1 1
BITMAP
C0
C0
C0
C0
C0
DC
E6
C3
C3
C3
C3
C3
E6
DC
ENDCHAR
STARTCHAR 0063
ENCODING 99
SWIDTH 500 0
DWIDTH 10 0
BBX 8 9 1 1
BITMAP
3C
62
40
C0
C0
C0
43
66
3C
ENDCHAR
STARTCHAR 0064
ENCODING 100
SWIDTH 500 0
DWIDTH 10 0
BBX 8 14 1 1
BITMAP
03
03
03
03
03
3B
67
C3
C3
C3
C3
C3
67
3B
ENDCHAR
STARTCHAR 0065
ENCODING 101
SWIDTH 500 0
DWIDTH 10 0
BBX 8 9 1 1
BITMAP
3C
62
43
FF
C0
C0
43
66
3C
ENDCHAR
STARTCHAR 0066
ENCODING 102
SWIDTH 500 0
DWIDTH 10 0
BBX 6 14 2 1
BITMAP
3C
30
30
30
FC
30
30
30
30
30
30
30
30
30
ENDCHAR
STARTCHAR 0067
ENCODING 103
SWIDTH 500 0
DWIDTH 10 0
BBX 8 13 1 -2
BITMAP
03
3F
47
C3
C3
C3
C3
47
3B
03
C2
46
3C
ENDCHAR
STARTCHAR 0068
ENCODING 104
SWIDTH 500 0
DWIDTH 10 0
BBX 8 14 1 1
BITMAP
C0
C0
C0
C0
C0
DE
E2
C3
C3
C3
C3
C3
C3
C3
ENDCHAR
STARTCHAR 0069
ENCODING 105
SWIDTH 500 0
DWIDTH 10 0
BBX 2 14 4 1
BITMAP
C0
C0
00
00
C0
C0
C0
C0
C0
C0
C0
C0
C0
C0
ENDCHAR
STARTCHAR 006A
ENCODING 106
SWIDTH 500 0
DWIDTH 10 0
BBX 4 16 2 -1
BITMAP
10
10
00
00
10
10
10
10
10
10
10
10
10
10
10
F0
ENDCHAR
STARTCHAR 006B
ENCODING 107
SWIDTH 500 0
DWIDTH 10 0
BBX 7 14 2 1
BITMAP
80
80
80
80
8C
98
90
A0
F0
D8
98
8C
84
86
ENDCHAR
STARTCHAR 006C
ENCODING 108
SWIDTH 500 0
DWIDTH 10 0
BBX 4 14 4 1
BITMAP
C0
C0
C0
C0
C0
C0
C0
C0
C0
C0
C0
C0
C0
70
ENDCHAR
STARTCHAR 006D
ENCODING 109
SWIDTH 500 0
DWIDTH 10 0
BBX 8 10 1 1
BITMAP
80
F7
D9
99
99
99
99
99
99
99
ENDCHAR
STARTCHAR 006E
ENCODING 110
SWIDTH 500 0
DWIDTH 10 0
BBX 8 10 1 1
BITMAP
C0
DE
E2
C3
C3
C3
C3
C3
C3
C3
ENDCHAR
STARTCHAR 006F
ENCODING 111
SWIDTH 500 0
DWIDTH 10 0
BBX 8 9 1 1
BITMAP
3C
66
42
C3
C3
C3
42
66
3C
ENDCHAR
STARTCHAR 0070
ENCODING 112
SWIDTH 500 0
DWIDTH 10 0
BBX 8 13 1 -2
BITMAP
C0
DC
E2
C3
C3
C3
C3
C3
E6
DC
C0
C0
C0
ENDCHAR
STARTCHAR 0071
ENCODING 113
SWIDTH 500 0
DWIDTH 10 0
BBX 8 13 1 -2
BITMAP
03
3B
47
C3
C3
C3
C3
C3
47
3B
03
03
03
ENDCHAR
STARTCHAR 0072
ENCODING 114
SWIDTH 500 0
DWIDTH 10 0
BBX 5 10 3 1
BITMAP
98
B8
E0
C0
80
80
80
80
80
80
ENDCHAR
STARTCHAR 0073
ENCODING 115
SWIDTH 500 0
DWIDTH 10 0
BBX 8 9 1 1
BITMAP
3C
42
40
70
1E
06
C3
62
3C
ENDCHAR
STARTCHAR 0074
ENCODING 116
SWIDTH 500 0
DWIDTH 10 0
BBX 6 12 2 1
BITMAP
20
20
FC
20
20
20
20
20
20
20
30
3C
ENDCHAR
STARTCHAR 0075
ENCODING 117
SWIDTH 500 0
DWIDTH 10 0
BBX 8 10 1 1
BITMAP
C3
C3
C3
C3
C3
C3
C3
C3
47
3B
ENDCHAR
STARTCHAR 0076
ENCODING 118
SWIDTH 500 0
DWIDTH 10 0
BBX 8 10 1 1
BITMAP
C3
C2
42
66
66
24
3C
3C
18
18
ENDCHAR
STARTCHAR 0077
ENCODING 119
SWIDTH 500 0
DWIDTH 10 0
BBX 8 10 1 1
BITMAP
99
99
99
99
BD
E7
66
66
66
66
ENDCHAR
STARTCHAR 0078
ENCODING 120
SWIDTH 500 0
DWIDTH 10 0
BBX 8 10 1 1
BITMAP
66
66
3C
18
18
18
3C
66
66
C3
ENDCHAR
STARTCHAR 0079
ENCODING 121
SWIDTH 500 0
DWIDTH 10 0
BBX 8 12 1 -1
BITMAP
C3
43
62
26
26
34
1C
18
18
18
10
70
ENDCHAR
STARTCHAR 007A
ENCODING 122
SWIDTH 500 0
DWIDTH 10 0
BBX 8 10 1 1
BITMAP
7E
06
04
0C
18
10
30
60
60
FF
ENDCHAR
STARTCHAR 007B
ENCODING 123
SWIDTH 500 0
DWIDTH 10 0
BBX 5 17 3 0
BITMAP
18
30
30
30
30
20
20
60
C0
20
20
20
30
30
30
30
18
ENDCHAR
STARTCHAR 007C
ENCODING 124
SWIDTH 500 0
DWIDTH 10 0
BBX 2 20 4 -2
BITMAP
C0
C0
C0
C0
C0
C0
C0
C0
C0
C0
C0
C0
C0
C0
C0
C0
C0
C0
C0
C0
ENDCHAR
STARTCHAR 007D
ENCODING 125
SWIDTH 500 0
DWIDTH 10 0
BBX 5 17 2 0
BITMAP
C0
60
60
60
60
20
20
30
18
30
20
60
60
60
60
60
C0
ENDCHAR
STARTCHAR 007E
ENCODING 126
SWIDTH 500 0
DWIDTH 10 0
BBX 6 2 2 13
BITMAP
E0
1C
ENDCHAR
STARTCHAR 00A0
ENCODING 160
SWIDTH 500 0
DWIDTH 10 0
BBX 0 0 0 0
BITMAP
ENDCHAR
STARTCHAR 00A1
ENCODING 161
SWIDTH 500 0
DWIDTH 10 0
BBX 2 16 4 0
BITMAP
C0
C0
00
00
C0
C0
C0
C0
C0
C0
C0
C0
C0
C0
C0
C0
ENDCHAR
STARTCHAR 00A2
ENCODING 162
SWIDTH 1000 0
DWIDTH 20 0
BBX 10 14 5 1
BITMAP
0100
0300
1E00
6780
4480
C400
CC00
C800
D8C0
7080
3180
3E00
2000
2000
ENDCHAR
STARTCHAR 00A3
ENCODING 163
SWIDTH 1000 0
DWIDTH 20 0
BBX 14 15 3 1
BITMAP
03C0
0460
0C20
0C20
0C00
0C00
3FE0
0600
0200
7A00
CE00
C60C
C708
4D98
7870
ENDCHAR
STARTCHAR 00A4
ENCODING 164
SWIDTH 500 0
DWIDTH 10 0
BBX 6 6 2 4
BITMAP
84
78
C4
84
84
FC
ENDCHAR
STARTCHAR 00A5
ENCODING 165
SWIDTH 1000 0
DWIDTH 20 0
BBX 12 14 4 1
BITMAP
C030
6060
30C0
1980
0F00
FFF0
0600
0600
0600
FFF0
0600
0600
0600
0600
ENDCHAR
STARTCHAR 00A6
ENCODING 166
SWIDTH 500 0
DWIDTH 10 0
BBX 2 19 4 -2
BITMAP
C0
C0
C0
C0
C0
C0
C0
C0
C0
00
C0
C0
C0
C0
C0
C0
C0
C0
C0
ENDCHAR
STARTCHAR 00A7
ENCODING 167
SWIDTH 1000 0
DWIDTH 20 0
BBX 8 18 6 -1
BITMAP
3C
46
C3
C3
C0
70
7C
CE
83
C3
E3
3E
0E
03
C3
C3
42
3C
ENDCHAR
STARTCHAR 00A8
ENCODING 168
SWIDTH 1000 0
DWIDTH 20 0
BBX 7 2 7 13
BITMAP
CE
CE
ENDCHAR
STARTCHAR 00A9
ENCODING 169
SWIDTH 500 0
DWIDTH 10 0
BBX 8 9 1 3
BITMAP
3C
42
BD
E1
C1
E5
BD
42
3C
ENDCHAR
STARTCHAR 00AA
ENCODING 170
SWIDTH 500 0
DWIDTH 10 0
BBX 6 8 1 7
BITMAP
70
C8
18
E8
88
FC
00
FC
ENDCHAR
STARTCHAR 00AB
ENCODING 171
SWIDTH 500 0
DWIDTH 10 0
BBX 7 8 2 2
BITMAP
36
24
48
D0
D0
48
24
36
ENDCHAR
STARTCHAR 00AC
ENCODING 172
SWIDTH 1000 0
DWIDTH 20 0
BBX 17 9 1 3
BITMAP
FFFF80
000080
000080
000080
000080
000080
000080
000080
000080
ENDCHAR
STARTCHAR 00AD
ENCODING 173
SWIDTH 500 0
DWIDTH 10 0
BBX 8 1 1 7
BITMAP
FF
ENDCHAR
STARTCHAR 00AE
ENCODING 174
SWIDTH 500 0
DWIDTH 10 0
BBX 8 9 1 3
BITMAP
3C
42
BD
A3
BD
A9
A5
42
3C
ENDCHAR
STARTCHAR 00AF
ENCODING 175
SWIDTH 500 0
DWIDTH 10 0
BBX 8 1 1 14
BITMAP
FF
ENDCHAR
STARTCHAR 00B0
ENCODING 176
SWIDTH 1000 0
DWIDTH 20 0
BBX 5 5 1 12
BITMAP
70
90
88
90
70
ENDCHAR
STARTCHAR 00B1
ENCODING 177
SWIDTH 1000 0
DWIDTH 20 0
BBX 14 14 3 1
BITMAP
0300
0300
0300
0300
0300
FFFC
0300
0300
0300
0300
0300
0000
0000
FFFC
ENDCHAR
STARTCHAR 00B2
ENCODING 178
SWIDTH 500 0
DWIDTH 10 0
BBX 5 7 1 10
BITMAP
70
88
08
10
60
40
F8
ENDCHAR
STARTCHAR 00B3
ENCODING 179
SWIDTH 500 0
DWIDTH 10 0
BBX 5 7 1 10
BITMAP
70
90
10
30
08
88
70
ENDCHAR
STARTCHAR 00B4
ENCODING 180
SWIDTH 1000 0
DWIDTH 20 0
BBX 4 2 8 13
BITMAP
30
C0
ENDCHAR
STARTCHAR 00B6
ENCODING 182
SWIDTH 1000 0
DWIDTH 20 0
BBX 8 17 5 -1
BITMAP
3F
79
F9
F9
F9
79
39
19
19
19
19
19
19
19
19
19
19
ENDCHAR
STARTCHAR 00B7
ENCODING 183
SWIDTH 500 0
DWIDTH 10 0
BBX 2 3 4 6
BITMAP
C0
C0
C0
ENDCHAR
STARTCHAR 00B8
ENCODING 184
SWIDTH 500 0
DWIDTH 10 0
BBX 5 4 3 -1
BITMAP
C0
F0
18
F0
ENDCHAR
STARTCHAR 00B9
ENCODING 185
SWIDTH 500 0
DWIDTH 10 0
BBX 2 7 2 10
BITMAP
40
C0
40
40
40
40
40
ENDCHAR
STARTCHAR 00BA
ENCODING 186
SWIDTH 500 0
DWIDTH 10 0
BBX 6 8 1 7
BITMAP
78
C8
84
84
C8
78
00
FC
ENDCHAR
STARTCHAR 00BB
ENCODING 187
SWIDTH 500 0
DWIDTH 10 0
BBX 7 8 1 2
BITMAP
D8
48
24
16
16
24
48
D8
ENDCHAR
STARTCHAR 00BC
ENCODING 188
SWIDTH 500 0
DWIDTH 10 0
BBX 8 17 1 -1
BITMAP
61
E2
62
64
64
64
68
68
12
16
26
2A
5A
52
5F
82
82
ENDCHAR
STARTCHAR 00BD
ENCODING 189
SWIDTH 500 0
DWIDTH 10 0
BBX 9 17 1 -1
BITMAP
6100
E200
6200
6400
6400
6400
6800
6800
1700
1900
2980
2100
4300
4600
4400
8800
8F80
ENDCHAR
STARTCHAR 00BE
ENCODING 190
SWIDTH 500 0
DWIDTH 10 0
BBX 9 17 1 -1
BITMAP
E100
9100
1200
6200
1400
1400
9400
F800
0A00
1600
1600
2A00
2A00
3200
5F80
4200
8200
ENDCHAR
STARTCHAR 00BF
ENCODING 191
SWIDTH 500 0
DWIDTH 10 0
BBX 8 16 1 0
BITMAP
18
18
00
00
18
18
18
18
30
60
C0
C3
C3
C3
46
3C
ENDCHAR
STARTCHAR 00C0
ENCODING 192
SWIDTH 500 0
DWIDTH 10 0
BBX 8 16 1 1
BITMAP
18
00
18
18
3C
3C
24
24
66
66
7E
42
C3
C3
81
81
ENDCHAR
STARTCHAR 00C1
ENCODING 193
SWIDTH 500 0
DWIDTH 10 0
BBX 8 16 1 1
BITMAP
18
00
18
18
3C
3C
24
24
66
66
7E
42
C3
C3
81
81
ENDCHAR
STARTCHAR 00C2
ENCODING 194
SWIDTH 500 0
DWIDTH 10 0
BBX 8 16 1 1
BITMAP
3C
00
18
18
3C
3C
24
24
66
66
7E
42
C3
C3
81
81
ENDCHAR
STARTCHAR 00C3
ENCODING 195
SWIDTH 500 0
DWIDTH 10 0
BBX 8 16 1 1
BITMAP
3C
00
18
18
3C
3C
24
24
66
66
7E
42
C3
C3
81
81
ENDCHAR
STARTCHAR 00C4
ENCODING 196
SWIDTH 500 0
DWIDTH 10 0
BBX 8 16 1 1
BITMAP
66
00
18
18
3C
3C
24
24
66
66
7E
42
C3
C3
81
81
ENDCHAR
STARTCHAR 00C5
ENCODING 197
SWIDTH 500 0
DWIDTH 10 0
BBX 8 16 1 1
BITMAP
18
28
18
18
3C
3C
24
24
66
66
7E
42
C3
C3
81
81
ENDCHAR
STARTCHAR 00C6
ENCODING 198
SWIDTH 500 0
DWIDTH 10 0
BBX 9 14 1 1
BITMAP
1F00
1800
3800
2800
2800
2800
6F00
4800
7800
4800
C800
C800
8800
8F80
ENDCHAR
STARTCHAR 00C7
ENCODING 199
SWIDTH 500 0
DWIDTH 10 0
BBX 8 17 1 -2
BITMAP
3C
66
43
C3
C0
C0
C0
C0
C0
C3
C3
43
7E
3C
10
1C
3C
ENDCHAR
STARTCHAR 00C8
ENCODING 200
SWIDTH 500 0
DWIDTH 10 0
BBX 8 16 1 1
BITMAP
18
00
FE
C0
C0
C0
C0
C0
FE
C0
C0
C0
C0
C0
C0
FF
ENDCHAR
STARTCHAR 00C9
ENCODING 201
SWIDTH 500 0
DWIDTH 10 0
BBX 8 16 1 1
BITMAP
18
00
FE
C0
C0
C0
C0
C0
FE
C0
C0
C0
C0
C0
C0
FF
ENDCHAR
STARTCHAR 00CA
ENCODING 202
SWIDTH 500 0
DWIDTH 10 0
BBX 8 16 1 1
BITMAP
3C
00
FE
C0
C0
C0
C0
C0
FE
C0
C0
C0
C0
C0
C0
FF
ENDCHAR
STARTCHAR 00CB
ENCODING 203
SWIDTH 500 0
DWIDTH 10 0
BBX 8 16 1 1
BITMAP
66
00
FE
C0
C0
C0
C0
C0
FE
C0
C0
C0
C0
C0
C0
FF
ENDCHAR
STARTCHAR 00CC
ENCODING 204
SWIDTH 500 0
DWIDTH 10 0
BBX 2 16 4 1
BITMAP
C0
00
C0
C0
C0
C0
C0
C0
C0
C0
C0
C0
C0
C0
C0
C0
ENDCHAR
STARTCHAR 00CD
ENCODING 205
SWIDTH 500 0
DWIDTH 10 0
BBX 2 16 4 1
BITMAP
C0
00
C0
C0
C0
C0
C0
C0
C0
C0
C0
C0
C0
C0
C0
C0
ENDCHAR
STARTCHAR 00CE
ENCODING 206
SWIDTH 500 0
DWIDTH 10 0
BBX 4 16 3 1
BITMAP
F0
00
60
60
60
60
60
60
60
60
60
60
60
60
60
60
ENDCHAR
STARTCHAR 00CF
ENCODING 207
SWIDTH 500 0
DWIDTH 10 0
BBX 6 16 2 1
BITMAP
CC
00
30
30
30
30
30
30
30
30
30
30
30
30
30
30
ENDCHAR
STARTCHAR 00D0
ENCODING 208
SWIDTH 500 0
DWIDTH 10 0
BBX 9 14 0 1
BITMAP
3C00
2300
2100
2180
2180
2180
F980
2180
2180
2180
2180
2100
2300
3C00
ENDCHAR
STARTCHAR 00D1
ENCODING 209
SWIDTH 500 0
DWIDTH 10 0
BBX 8 16 1 1
BITMAP
3C
00
C3
E3
E3
E3
F3
D3
DB
CB
CB
CF
C7
C7
C7
C3
ENDCHAR
STARTCHAR 00D2
ENCODING 210
SWIDTH 500 0
DWIDTH 10 0
BBX 8 16 1 1
BITMAP
18
00
3C
66
42
C3
C3
C3
C3
C3
C3
C3
C3
42
66
3C
ENDCHAR
STARTCHAR 00D3
ENCODING 211
SWIDTH 500 0
DWIDTH 10 0
BBX 8 16 1 1
BITMAP
18
00
3C
66
42
C3
C3
C3
C3
C3
C3
C3
C3
42
66
3C
ENDCHAR
STARTCHAR 00D4
ENCODING 212
SWIDTH 500 0
DWIDTH 10 0
BBX 8 16 1 1
BITMAP
3C
00
3C
66
42
C3
C3
C3
C3
C3
C3
C3
C3
42
66
3C
ENDCHAR
STARTCHAR 00D5
ENCODING 213
SWIDTH 500 0
DWIDTH 10 0
BBX 8 16 1 1
BITMAP
3C
00
3C
66
42
C3
C3
C3
C3
C3
C3
C3
C3
42
66
3C
ENDCHAR
STARTCHAR 00D6
ENCODING 214
SWIDTH 500 0
DWIDTH 10 0
BBX 8 16 1 1
BITMAP
66
00
3C
66
42
C3
C3
C3
C3
C3
C3
C3
C3
42
66
3C
ENDCHAR
STARTCHAR 00D7
ENCODING 215
SWIDTH 1000 0
DWIDTH 20 0
BBX 12 12 4 1
BITMAP
8010
C030
6060
30C0
1980
0F00
0600
0F00
1980
30C0
6060
C030
ENDCHAR
STARTCHAR 00D8
ENCODING 216
SWIDTH 500 0
DWIDTH 10 0
BBX 8 16 1 0
BITMAP
01
3E
66
42
C7
C7
CB
CB
D3
D3
E3
E3
42
66
7C
80
ENDCHAR
STARTCHAR 00D9
ENCODING 217
SWIDTH 500 0
DWIDTH 10 0
BBX 8 16 1 1
BITMAP
18
00
C3
C3
C3
C3
C3
C3
C3
C3
C3
C3
C3
C3
66
3C
ENDCHAR
STARTCHAR 00DA
ENCODING 218
SWIDTH 500 0
DWIDTH 10 0
BBX 8 16 1 1
BITMAP
18
00
C3
C3
C3
C3
C3
C3
C3
C3
C3
C3
C3
C3
66
3C
ENDCHAR
STARTCHAR 00DB
ENCODING 219
SWIDTH 500 0
DWIDTH 10 0
BBX 8 16 1 1
BITMAP
3C
00
C3
C3
C3
C3
C3
C3
C3
C3
C3
C3
C3
C3
66
3C
ENDCHAR
STARTCHAR 00DC
ENCODING 220
SWIDTH 500 0
DWIDTH 10 0
BBX 8 16 1 1
BITMAP
66
00
C3
C3
C3
C3
C3
C3
C3
C3
C3
C3
C3
C3
66
3C
ENDCHAR
STARTCHAR 00DD
ENCODING 221
SWIDTH 500 0
DWIDTH 10 0
BBX 8 16 1 1
BITMAP
18
00
C3
C3
42
66
26
3C
3C
18
18
18
18
18
18
18
ENDCHAR
STARTCHAR 00DE
ENCODING 222
SWIDTH 500 0
DWIDTH 10 0
BBX 8 14 1 1
BITMAP
C0
C0
C0
FC
C6
C3
C3
C3
C3
C2
FC
C0
C0
C0
ENDCHAR
STARTCHAR 00DF
ENCODING 223
SWIDTH 500 0
DWIDTH 10 0
BBX 7 14 2 1
BITMAP
78
CC
84
84
84
8C
B0
8C
86
86
86
86
84
B8
ENDCHAR
STARTCHAR 00E0
ENCODING 224
SWIDTH 500 0
DWIDTH 10 0
BBX 8 13 1 1
BITMAP
30
08
00
00
7C
42
02
3E
62
C2
C2
C6
7B
ENDCHAR
STARTCHAR 00E1
ENCODING 225
SWIDTH 500 0
DWIDTH 10 0
BBX 8 13 1 1
BITMAP
0C
10
00
00
7C
42
02
3E
62
C2
C2
C6
7B
ENDCHAR
STARTCHAR 00E2
ENCODING 226
SWIDTH 500 0
DWIDTH 10 0
BBX 8 13 1 1
BITMAP
18
24
00
00
7C
42
02
3E
62
C2
C2
C6
7B
ENDCHAR
STARTCHAR 00E3
ENCODING 227
SWIDTH 500 0
DWIDTH 10 0
BBX 8 12 1 1
BITMAP
3C
00
00
7C
42
02
3E
62
C2
C2
C6
7B
ENDCHAR
STARTCHAR 00E4
ENCODING 228
SWIDTH 500 0
DWIDTH 10 0
BBX 8 13 1 1
BITMAP
66
00
00
00
7C
42
02
3E
62
C2
C2
C6
7B
ENDCHAR
STARTCHAR 00E5
ENCODING 229
SWIDTH 500 0
DWIDTH 10 0
BBX 8 14 1 1
BITMAP
18
28
18
00
00
7C
42
02
3E
62
C2
C2
C6
7B
ENDCHAR
STARTCHAR 00E6
ENCODING 230
SWIDTH 500 0
DWIDTH 10 0
BBX 8 9 1 1
BITMAP
7E
99
19
3F
58
98
99
99
FE
ENDCHAR
STARTCHAR 00E7
ENCODING 231
SWIDTH 500 0
DWIDTH 10 0
BBX 8 12 1 -2
BITMAP
3C
62
40
C0
C0
C0
C3
66
3C
10
1C
1C
ENDCHAR
STARTCHAR 00E8
ENCODING 232
SWIDTH 500 0
DWIDTH 10 0
BBX 8 13 1 1
BITMAP
30
08
00
00
3C
62
43
FF
C0
C0
43
66
3C
ENDCHAR
STARTCHAR 00E9
ENCODING 233
SWIDTH 500 0
DWIDTH 10 0
BBX 8 13 1 1
BITMAP
0C
10
00
00
3C
62
43
FF
C0
C0
43
66
3C
ENDCHAR
STARTCHAR 00EA
ENCODING 234
SWIDTH 500 0
DWIDTH 10 0
BBX 8 13 1 1
BITMAP
18
24
00
00
3C
62
43
FF
C0
C0
43
66
3C
ENDCHAR
STARTCHAR 00EB
ENCODING 235
SWIDTH 500 0
DWIDTH 10 0
BBX 8 13 1 1
BITMAP
66
00
00
00
3C
62
43
FF
C0
C0
43
66
3C
ENDCHAR
STARTCHAR 00EC
ENCODING 236
SWIDTH 500 0
DWIDTH 10 0
BBX 3 13 3 1
BITMAP
C0
60
00
60
60
60
60
60
60
60
60
60
60
ENDCHAR
STARTCHAR 00ED
ENCODING 237
SWIDTH 500 0
DWIDTH 10 0
BBX 3 13 4 1
BITMAP
60
C0
00
C0
C0
C0
C0
C0
C0
C0
C0
C0
C0
ENDCHAR
STARTCHAR 00EE
ENCODING 238
SWIDTH 500 0
DWIDTH 10 0
BBX 4 13 3 1
BITMAP
60
90
00
60
60
60
60
60
60
60
60
60
60
ENDCHAR
STARTCHAR 00EF
ENCODING 239
SWIDTH 500 0
DWIDTH 10 0
BBX 6 13 2 1
BITMAP
CC
00
00
30
30
30
30
30
30
30
30
30
30
ENDCHAR
STARTCHAR 00F0
ENCODING 240
SWIDTH 500 0
DWIDTH 10 0
BBX 8 15 1 1
BITMAP
20
3C
1C
3C
06
02
3E
67
43
C3
C3
C3
42
66
3C
ENDCHAR
STARTCHAR 00F1
ENCODING 241
SWIDTH 500 0
DWIDTH 10 0
BBX 8 13 1 1
BITMAP
3C
00
00
C0
DE
E2
C3
C3
C3
C3
C3
C3
C3
ENDCHAR
STARTCHAR 00F2
ENCODING 242
SWIDTH 500 0
DWIDTH 10 0
BBX 8 13 1 1
BITMAP
30
08
00
00
3C
66
42
C3
C3
C3
42
66
3C
ENDCHAR
STARTCHAR 00F3
ENCODING 243
SWIDTH 500 0
DWIDTH 10 0
BBX 8 13 1 1
BITMAP
0C
10
00
00
3C
66
42
C3
C3
C3
42
66
3C
ENDCHAR
STARTCHAR 00F4
ENCODING 244
SWIDTH 500 0
DWIDTH 10 0
BBX 8 13 1 1
BITMAP
18
24
00
00
3C
66
42
C3
C3
C3
42
66
3C
ENDCHAR
STARTCHAR 00F5
ENCODING 245
SWIDTH 500 0
DWIDTH 10 0
BBX 8 12 1 1
BITMAP
3C
00
00
3C
66
42
C3
C3
C3
42
66
3C
ENDCHAR
STARTCHAR 00F6
ENCODING 246
SWIDTH 500 0
DWIDTH 10 0
BBX 8 13 1 1
BITMAP
66
00
00
00
3C
66
42
C3
C3
C3
42
66
3C
ENDCHAR
STARTCHAR 00F7
ENCODING 247
SWIDTH 1000 0
DWIDTH 20 0
BBX 14 10 3 2
BITMAP
0300
0300
0000
0000
FFFC
0000
0000
0000
0300
0300
ENDCHAR
STARTCHAR 00F8
ENCODING 248
SWIDTH 500 0
DWIDTH 10 0
BBX 8 11 1 0
BITMAP
02
3E
66
47
CB
D3
D3
E2
66
7C
80
ENDCHAR
STARTCHAR 00F9
ENCODING 249
SWIDTH 500 0
DWIDTH 10 0
BBX 8 13 1 1
BITMAP
10
08
00
C3
C3
C3
C3
C3
C3
C3
C3
47
3B
ENDCHAR
STARTCHAR 00FA
ENCODING 250
SWIDTH 500 0
DWIDTH 10 0
BBX 8 13 1 1
BITMAP
0C
10
00
C3
C3
C3
C3
C3
C3
C3
C3
47
3B
ENDCHAR
STARTCHAR 00FB
ENCODING 251
SWIDTH 500 0
DWIDTH 10 0
BBX 8 13 1 1
BITMAP
18
24
00
C3
C3
C3
C3
C3
C3
C3
C3
47
3B
ENDCHAR
STARTCHAR 00FC
ENCODING 252
SWIDTH 500 0
DWIDTH 10 0
BBX 8 13 1 1
BITMAP
66
00
00
C3
C3
C3
C3
C3
C3
C3
C3
47
3B
ENDCHAR
STARTCHAR 00FD
ENCODING 253
SWIDTH 500 0
DWIDTH 10 0
BBX 8 16 1 -2
BITMAP
0C
18
00
C3
43
62
66
26
34
34
1C
18
08
18
10
70
ENDCHAR
STARTCHAR 00FE
ENCODING 254
SWIDTH 500 0
DWIDTH 10 0
BBX 8 17 1 -2
BITMAP
C0
C0
C0
C0
C0
DC
E2
C3
C3
C3
C3
C3
E6
DC
C0
C0
C0
ENDCHAR
STARTCHAR 00FF
ENCODING 255
SWIDTH 500 0
DWIDTH 10 0
BBX 8 16 1 -2
BITMAP
66
00
00
C3
43
62
66
26
34
34
1C
18
08
18
10
70
ENDCHAR
STARTCHAR 0100
ENCODING 256
SWIDTH 500 0
DWIDTH 10 0
BBX 8 16 1 1
BITMAP
7E
00
18
18
3C
3C
24
24
66
66
7E
42
C3
C3
81
81
ENDCHAR
STARTCHAR 0101
ENCODING 257
SWIDTH 500 0
DWIDTH 10 0
BBX 8 12 1 1
BITMAP
7E
00
00
7C
42
02
3E
62
C2
C2
C6
7B
ENDCHAR
STARTCHAR 0102
ENCODING 258
SWIDTH 500 0
DWIDTH 10 0
BBX 8 16 1 1
BITMAP
3C
00
18
18
3C
3C
24
24
66
66
7E
42
C3
C3
81
81
ENDCHAR
STARTCHAR 0103
ENCODING 259
SWIDTH 500 0
DWIDTH 10 0
BBX 8 13 1 1
BITMAP
66
3C
00
00
7C
42
02
3E
62
C2
C2
C6
7B
ENDCHAR
STARTCHAR 0104
ENCODING 260
SWIDTH 500 0
DWIDTH 10 0
BBX 9 17 1 -2
BITMAP
1800
1800
3C00
3C00
2400
2400
6600
6600
7E00
4200
C300
C300
8100
8100
0200
0400
0380
ENDCHAR
STARTCHAR 0105
ENCODING 261
SWIDTH 500 0
DWIDTH 10 0
BBX 8 12 1 -2
BITMAP
7C
42
02
3E
62
C2
C2
C6
7B
02
04
07
ENDCHAR
STARTCHAR 0106
ENCODING 262
SWIDTH 500 0
DWIDTH 10 0
BBX 8 16 1 1
BITMAP
18
00
3C
66
43
C3
C0
C0
C0
C0
C0
C3
C3
43
66
3C
ENDCHAR
STARTCHAR 0107
ENCODING 263
SWIDTH 500 0
DWIDTH 10 0
BBX 8 13 1 1
BITMAP
0C
10
00
00
3C
62
40
C0
C0
C0
43
66
3C
ENDCHAR
STARTCHAR 0108
ENCODING 264
SWIDTH 500 0
DWIDTH 10 0
BBX 8 16 1 1
BITMAP
3C
00
3C
66
43
C3
C0
C0
C0
C0
C0
C3
C3
43
66
3C
ENDCHAR
STARTCHAR 0109
ENCODING 265
SWIDTH 500 0
DWIDTH 10 0
BBX 8 13 1 1
BITMAP
18
24
00
00
3C
62
40
C0
C0
C0
43
66
3C
ENDCHAR
STARTCHAR 010C
ENCODING 268
SWIDTH 500 0
DWIDTH 10 0
BBX 8 16 1 1
BITMAP
3C
00
3C
66
43
C3
C0
C0
C0
C0
C0
C3
C3
43
66
3C
ENDCHAR
STARTCHAR 010D
ENCODING 269
SWIDTH 500 0
DWIDTH 10 0
BBX 8 13 1 1
BITMAP
24
18
00
00
3C
62
40
C0
C0
C0
43
66
3C
ENDCHAR
STARTCHAR 010E
ENCODING 270
SWIDTH 500 0
DWIDTH 10 0
BBX 8 16 1 1
BITMAP
28
10
F8
C4
C2
C3
C3
C3
C3
C3
C3
C3
C3
C2
C4
F8
ENDCHAR
STARTCHAR 010F
ENCODING 271
SWIDTH 500 0
DWIDTH 10 0
BBX 9 15 1 1
BITMAP
0380
0F80
0D00
0D00
0C00
0C00
7C00
CC00
8C00
8C00
8400
8C00
8C00
CC00
7400
ENDCHAR
STARTCHAR 0111
ENCODING 273
SWIDTH 500 0
DWIDTH 10 0
BBX 9 14 1 1
BITMAP
0200
0200
0F80
0200
0200
3A00
4600
C200
C200
8200
C200
C200
4600
7A00
ENDCHAR
STARTCHAR 0112
ENCODING 274
SWIDTH 500 0
DWIDTH 10 0
BBX 8 16 1 1
BITMAP
7E
00
FE
C0
C0
C0
C0
C0
FE
C0
C0
C0
C0
C0
C0
FF
ENDCHAR
STARTCHAR 0113
ENCODING 275
SWIDTH 500 0
DWIDTH 10 0
BBX 8 12 1 1
BITMAP
7E
00
00
3C
62
43
FF
C0
C0
43
66
3C
ENDCHAR
STARTCHAR 0118
ENCODING 280
SWIDTH 500 0
DWIDTH 10 0
BBX 8 17 1 -2
BITMAP
FE
C0
C0
C0
C0
C0
FE
C0
C0
C0
C0
C0
C0
FF
10
20
1C
ENDCHAR
STARTCHAR 0119
ENCODING 281
SWIDTH 500 0
DWIDTH 10 0
BBX 8 12 1 -2
BITMAP
3C
62
43
FF
C0
C0
C3
66
3C
10
20
38
ENDCHAR
STARTCHAR 011A
ENCODING 282
SWIDTH 500 0
DWIDTH 10 0
BBX 8 16 1 1
BITMAP
3C
00
FE
C0
C0
C0
C0
C0
FE
C0
C0
C0
C0
C0
C0
FF
ENDCHAR
STARTCHAR 011B
ENCODING 283
SWIDTH 500 0
DWIDTH 10 0
BBX 8 13 1 1
BITMAP
24
18
00
00
3C
62
43
FF
C0
C0
43
66
3C
ENDCHAR
STARTCHAR 011C
ENCODING 284
SWIDTH 500 0
DWIDTH 10 0
BBX 8 16 1 1
BITMAP
3C
00
3C
66
43
C3
C0
C0
C0
CF
C1
C3
C3
43
65
39
ENDCHAR
STARTCHAR 011D
ENCODING 285
SWIDTH 500 0
DWIDTH 10 0
BBX 8 16 1 -2
BITMAP
18
24
00
03
3F
47
C3
C3
C3
C3
47
3B
03
C2
46
3C
ENDCHAR
STARTCHAR 0124
ENCODING 292
SWIDTH 500 0
DWIDTH 10 0
BBX 8 16 1 1
BITMAP
3C
00
C3
C3
C3
C3
C3
C3
FF
C3
C3
C3
C3
C3
C3
C3
ENDCHAR
STARTCHAR 0125
ENCODING 293
SWIDTH 500 0
DWIDTH 10 0
BBX 8 16 1 1
BITMAP
3C
00
C0
C0
C0
C0
C0
DE
E2
C3
C3
C3
C3
C3
C3
C3
ENDCHAR
STARTCHAR 0127
ENCODING 295
SWIDTH 500 0
DWIDTH 10 0
BBX 9 14 0 1
BITMAP
2000
2000
F800
2000
2000
2F00
3100
2180
2180
2180
2180
2180
2180
2180
ENDCHAR
STARTCHAR 012A
ENCODING 298
SWIDTH 500 0
DWIDTH 10 0
BBX 6 16 2 1
BITMAP
FC
00
30
30
30
30
30
30
30
30
30
30
30
30
30
30
ENDCHAR
STARTCHAR 012B
ENCODING 299
SWIDTH 500 0
DWIDTH 10 0
BBX 6 12 2 1
BITMAP
FC
00
30
30
30
30
30
30
30
30
30
30
ENDCHAR
STARTCHAR 0134
ENCODING 308
SWIDTH 500 0
DWIDTH 10 0
BBX 8 16 1 1
BITMAP
0F
00
06
06
06
06
06
06
06
06
06
06
C6
C6
46
3C
ENDCHAR
STARTCHAR 0135
ENCODING 309
SWIDTH 500 0
DWIDTH 10 0
BBX 6 15 2 -1
BITMAP
38
4C
00
10
10
10
10
10
10
10
10
10
10
10
F0
ENDCHAR
STARTCHAR 0139
ENCODING 313
SWIDTH 500 0
DWIDTH 10 0
BBX 8 16 1 1
BITMAP
18
00
C0
C0
C0
C0
C0
C0
C0
C0
C0
C0
C0
C0
C0
FF
ENDCHAR
STARTCHAR 013A
ENCODING 314
SWIDTH 500 0
DWIDTH 10 0
BBX 2 16 4 1
BITMAP
C0
00
C0
C0
C0
C0
C0
C0
C0
C0
C0
C0
C0
C0
C0
C0
ENDCHAR
STARTCHAR 013D
ENCODING 317
SWIDTH 500 0
DWIDTH 10 0
BBX 8 15 1 1
BITMAP
0C
CC
C4
C8
C0
C0
C0
C0
C0
C0
C0
C0
C0
C0
FF
ENDCHAR
STARTCHAR 013E
ENCODING 318
SWIDTH 500 0
DWIDTH 10 0
BBX 5 15 4 1
BITMAP
18
D8
C8
D0
C0
C0
C0
C0
C0
C0
C0
C0
C0
C0
C0
ENDCHAR
STARTCHAR 0141
ENCODING 321
SWIDTH 500 0
DWIDTH 10 0
BBX 8 14 1 1
BITMAP
60
60
60
60
68
70
60
60
E0
60
60
60
60
7F
ENDCHAR
STARTCHAR 0142
ENCODING 322
SWIDTH 500 0
DWIDTH 10 0
BBX 6 14 2 1
BITMAP
30
30
30
30
34
38
30
30
F0
B0
30
30
30
30
ENDCHAR
STARTCHAR 0143
ENCODING 323
SWIDTH 500 0
DWIDTH 10 0
BBX 8 16 1 1
BITMAP
18
00
C3
E3
E3
E3
F3
D3
DB
CB
CB
CF
C7
C7
C7
C3
ENDCHAR
STARTCHAR 0144
ENCODING 324
SWIDTH 500 0
DWIDTH 10 0
BBX 8 13 1 1
BITMAP
0C
10
00
C0
DE
E2
C3
C3
C3
C3
C3
C3
C3
ENDCHAR
STARTCHAR 0147
ENCODING 327
SWIDTH 500 0
DWIDTH 10 0
BBX 8 16 1 1
BITMAP
3C
00
C3
E3
E3
E3
F3
D3
DB
CB
CB
CF
C7
C7
C7
C3
ENDCHAR
STARTCHAR 0148
ENCODING 328
SWIDTH 500 0
DWIDTH 10 0
BBX 8 13 1 1
BITMAP
24
18
00
C0
DE
E2
C3
C3
C3
C3
C3
C3
C3
ENDCHAR
STARTCHAR 014B
ENCODING 331
SWIDTH 500 0
DWIDTH 10 0
BBX 8 13 1 -2
BITMAP
C0
DE
E2
C3
C3
C3
C3
C3
C3
C3
03
03
0E
ENDCHAR
STARTCHAR 014C
ENCODING 332
SWIDTH 500 0
DWIDTH 10 0
BBX 8 16 1 1
BITMAP
7E
00
3C
66
42
C3
C3
C3
C3
C3
C3
C3
C3
42
66
3C
ENDCHAR
STARTCHAR 014D
ENCODING 333
SWIDTH 500 0
DWIDTH 10 0
BBX 8 12 1 1
BITMAP
7E
00
00
3C
66
42
C3
C3
C3
42
66
3C
ENDCHAR
STARTCHAR 0150
ENCODING 336
SWIDTH 500 0
DWIDTH 10 0
BBX 8 16 1 1
BITMAP
34
00
3C
66
42
C3
C3
C3
C3
C3
C3
C3
C3
42
66
3C
ENDCHAR
STARTCHAR 0151
ENCODING 337
SWIDTH 500 0
DWIDTH 10 0
BBX 8 13 1 1
BITMAP
1A
34
00
00
3C
66
42
C3
C3
C3
42
66
3C
ENDCHAR
STARTCHAR 0152
ENCODING 338
SWIDTH 500 0
DWIDTH 10 0
BBX 9 14 1 1
BITMAP
3F00
6C00
4C00
CC00
8C00
8C00
8F00
8C00
8C00
8C00
CC00
4C00
4C00
3F80
ENDCHAR
STARTCHAR 0153
ENCODING 339
SWIDTH 500 0
DWIDTH 10 0
BBX 8 10 1 0
BITMAP
7E
D9
99
9F
98
98
99
99
D9
66
ENDCHAR
STARTCHAR 0154
ENCODING 340
SWIDTH 500 0
DWIDTH 10 0
BBX 8 16 1 1
BITMAP
18
00
FC
C2
C3
C3
C3
C6
FC
CC
CC
C4
C6
C2
C3
C3
ENDCHAR
STARTCHAR 0155
ENCODING 341
SWIDTH 500 0
DWIDTH 10 0
BBX 5 13 3 1
BITMAP
30
40
00
98
B8
E0
C0
80
80
80
80
80
80
ENDCHAR
STARTCHAR 0158
ENCODING 344
SWIDTH 500 0
DWIDTH 10 0
BBX 8 16 1 1
BITMAP
28
10
FC
C2
C3
C3
C3
C6
FC
CC
CC
C4
C6
C2
C3
C3
ENDCHAR
STARTCHAR 0159
ENCODING 345
SWIDTH 500 0
DWIDTH 10 0
BBX 5 13 3 1
BITMAP
90
60
00
98
B8
E0
C0
80
80
80
80
80
80
ENDCHAR
STARTCHAR 015A
ENCODING 346
SWIDTH 500 0
DWIDTH 10 0
BBX 8 16 1 1
BITMAP
18
00
3C
66
C2
C3
E0
70
38
0E
07
03
C3
C3
62
3C
ENDCHAR
STARTCHAR 015B
ENCODING 347
SWIDTH 500 0
DWIDTH 10 0
BBX 8 13 1 1
BITMAP
0C
10
00
00
3C
42
40
70
1E
06
C3
62
3C
ENDCHAR
STARTCHAR 015C
ENCODING 348
SWIDTH 500 0
DWIDTH 10 0
BBX 8 16 1 1
BITMAP
3C
00
3C
66
C2
C3
C0
70
38
0C
06
03
C3
C3
63
3E
ENDCHAR
STARTCHAR 015D
ENCODING 349
SWIDTH 500 0
DWIDTH 10 0
BBX 8 13 1 1
BITMAP
18
24
00
00
3C
42
40
70
1E
06
C3
62
3C
ENDCHAR
STARTCHAR 015E
ENCODING 350
SWIDTH 500 0
DWIDTH 10 0
BBX 8 17 1 -2
BITMAP
3C
42
C3
C0
60
70
1C
06
03
C3
C3
63
3E
00
18
18
08
ENDCHAR
STARTCHAR 015F
ENCODING 351
SWIDTH 500 0
DWIDTH 10 0
BBX 8 12 1 -2
BITMAP
3C
42
40
38
0E
C3
63
3E
00
18
18
08
ENDCHAR
STARTCHAR 0160
ENCODING 352
SWIDTH 500 0
DWIDTH 10 0
BBX 8 16 1 1
BITMAP
3C
00
3C
66
C2
C3
E0
70
38
0E
07
03
C3
C3
62
3C
ENDCHAR
STARTCHAR 0161
ENCODING 353
SWIDTH 500 0
DWIDTH 10 0
BBX 8 13 1 1
BITMAP
24
18
00
00
3C
42
40
70
1E
06
C3
62
3C
ENDCHAR
STARTCHAR 0162
ENCODING 354
SWIDTH 500 0
DWIDTH 10 0
BBX 8 17 1 -2
BITMAP
FF
18
18
18
18
18
18
18
18
18
18
18
18
00
18
18
18
ENDCHAR
STARTCHAR 0163
ENCODING 355
SWIDTH 500 0
DWIDTH 10 0
BBX 6 15 2 -2
BITMAP
20
20
FC
20
20
20
20
20
20
20
3C
00
30
30
10
ENDCHAR
STARTCHAR 0164
ENCODING 356
SWIDTH 500 0
DWIDTH 10 0
BBX 8 16 1 1
BITMAP
3C
00
FF
18
18
18
18
18
18
18
18
18
18
18
18
18
ENDCHAR
STARTCHAR 0165
ENCODING 357
SWIDTH 500 0
DWIDTH 10 0
BBX 7 15 2 1
BITMAP
06
06
06
24
20
FC
20
20
20
20
20
20
20
30
3C
ENDCHAR
STARTCHAR 016A
ENCODING 362
SWIDTH 500 0
DWIDTH 10 0
BBX 8 16 1 1
BITMAP
7E
00
C3
C3
C3
C3
C3
C3
C3
C3
C3
C3
C3
C3
66
3C
ENDCHAR
STARTCHAR 016B
ENCODING 363
SWIDTH 500 0
DWIDTH 10 0
BBX 8 12 1 1
BITMAP
7E
00
C3
C3
C3
C3
C3
C3
C3
C3
47
3B
ENDCHAR
STARTCHAR 016C
ENCODING 364
SWIDTH 500 0
DWIDTH 10 0
BBX 8 16 1 1
BITMAP
3C
00
C3
C3
C3
C3
C3
C3
C3
C3
C3
C3
C3
C3
66
3C
ENDCHAR
STARTCHAR 016D
ENCODING 365
SWIDTH 500 0
DWIDTH 10 0
BBX 8 13 1 1
BITMAP
66
3C
00
C3
C3
C3
C3
C3
C3
C3
C3
47
3B
ENDCHAR
STARTCHAR 016E
ENCODING 366
SWIDTH 500 0
DWIDTH 10 0
BBX 8 16 1 1
BITMAP
18
18
C3
C3
C3
C3
C3
C3
C3
C3
C3
C3
C3
C3
66
3C
ENDCHAR
STARTCHAR 016F
ENCODING 367
SWIDTH 500 0
DWIDTH 10 0
BBX 8 14 1 1
BITMAP
18
28
18
00
C3
C3
C3
C3
C3
C3
C3
C3
47
3B
ENDCHAR
STARTCHAR 0170
ENCODING 368
SWIDTH 500 0
DWIDTH 10 0
BBX 8 16 1 1
BITMAP
34
00
C3
C3
C3
C3
C3
C3
C3
C3
C3
C3
C3
C3
66
3C
ENDCHAR
STARTCHAR 0171
ENCODING 369
SWIDTH 500 0
DWIDTH 10 0
BBX 8 13 1 1
BITMAP
1A
24
00
C3
C3
C3
C3
C3
C3
C3
C3
47
3B
ENDCHAR
STARTCHAR 0179
ENCODING 377
SWIDTH 500 0
DWIDTH 10 0
BBX 8 16 1 1
BITMAP
18
00
7F
02
06
04
0C
08
18
18
30
30
60
60
40
FF
ENDCHAR
STARTCHAR 017A
ENCODING 378
SWIDTH 500 0
DWIDTH 10 0
BBX 8 13 1 1
BITMAP
0C
10
00
7E
06
04
0C
18
10
30
60
60
FF
ENDCHAR
STARTCHAR 017B
ENCODING 379
SWIDTH 500 0
DWIDTH 10 0
BBX 8 16 1 1
BITMAP
18
00
7F
02
06
04
0C
08
18
18
30
30
60
60
40
FF
ENDCHAR
STARTCHAR 017C
ENCODING 380
SWIDTH 500 0
DWIDTH 10 0
BBX 8 13 1 1
BITMAP
18
00
00
7E
06
04
0C
18
10
30
60
60
FF
ENDCHAR
STARTCHAR 017D
ENCODING 381
SWIDTH 500 0
DWIDTH 10 0
BBX 8 16 1 1
BITMAP
3C
00
7F
02
06
04
0C
08
18
18
30
30
60
60
40
FF
ENDCHAR
STARTCHAR 017E
ENCODING 382
SWIDTH 500 0
DWIDTH 10 0
BBX 8 13 1 1
BITMAP
24
18
00
7E
06
04
0C
18
10
30
60
60
FF
ENDCHAR
STARTCHAR 0193
ENCODING 403
SWIDTH 500 0
DWIDTH 10 0
BBX 9 16 1 1
BITMAP
0380
0280
3E00
6600
C600
C200
C000
8000
8000
8F00
8300
C300
C300
C700
6700
3B00
ENDCHAR
STARTCHAR 01C2
ENCODING 450
SWIDTH 500 0
DWIDTH 10 0
BBX 6 17 2 -2
BITMAP
30
30
30
30
FC
30
30
30
30
30
30
FC
30
30
30
30
30
ENDCHAR
STARTCHAR 01CD
ENCODING 461
SWIDTH 1000 0
DWIDTH 20 0
BBX 12 16 4 1
BITMAP
0F00
0000
0600
0F00
0F00
1980
1980
1080
30C0
30C0
3FC0
6060
6060
C030
C030
C030
ENDCHAR
STARTCHAR 01CE
ENCODING 462
SWIDTH 1000 0
DWIDTH 20 0
BBX 10 13 5 1
BITMAP
3300
1E00
0000
3E00
6100
6180
0180
3F80
7180
C180
C180
C380
7CC0
ENDCHAR
STARTCHAR 01D0
ENCODING 464
SWIDTH 1000 0
DWIDTH 20 0
BBX 6 13 7 1
BITMAP
CC
78
00
30
30
30
30
30
30
30
30
30
30
ENDCHAR
STARTCHAR 01D1
ENCODING 465
SWIDTH 1000 0
DWIDTH 20 0
BBX 12 16 4 1
BITMAP
0F00
0000
1F80
30C0
6060
C030
C030
8030
8010
8010
8030
C030
C030
6060
30C0
1F80
ENDCHAR
STARTCHAR 01D2
ENCODING 466
SWIDTH 1000 0
DWIDTH 20 0
BBX 10 13 5 1
BITMAP
3300
1E00
0000
1E00
6180
4080
C0C0
C0C0
C0C0
C0C0
C080
6180
3E00
ENDCHAR
STARTCHAR 01D4
ENCODING 468
SWIDTH 1000 0
DWIDTH 20 0
BBX 8 13 6 1
BITMAP
66
3C
00
C1
C1
C1
C1
C1
C1
C1
C3
C7
7D
ENDCHAR
STARTCHAR 01D6
ENCODING 470
SWIDTH 1000 0
DWIDTH 20 0
BBX 8 14 6 1
BITMAP
7E
00
42
00
C1
C1
C1
C1
C1
C1
C1
C3
C7
7D
ENDCHAR
STARTCHAR 01D8
ENCODING 472
SWIDTH 1000 0
DWIDTH 20 0
BBX 8 14 6 1
BITMAP
0C
18
42
00
C1
C1
C1
C1
C1
C1
C1
C3
C7
7D
ENDCHAR
STARTCHAR 01DA
ENCODING 474
SWIDTH 1000 0
DWIDTH 20 0
BBX 8 14 6 1
BITMAP
24
18
62
00
C1
C1
C1
C1
C1
C1
C1
C3
C7
7D
ENDCHAR
STARTCHAR 01DC
ENCODING 476
SWIDTH 1000 0
DWIDTH 20 0
BBX 8 14 6 1
BITMAP
30
18
42
00
C1
C1
C1
C1
C1
C1
C1
C3
C7
7D
ENDCHAR
STARTCHAR 01F8
ENCODING 504
SWIDTH 500 0
DWIDTH 10 0
BBX 8 16 1 1
BITMAP
18
00
C3
E3
E3
E3
F3
D3
DB
CB
CB
CF
C7
C7
C7
C3
ENDCHAR
STARTCHAR 01F9
ENCODING 505
SWIDTH 500 0
DWIDTH 10 0
BBX 8 13 1 1
BITMAP
30
18
00
C0
DE
E2
C3
C3
C3
C3
C3
C3
C3
ENDCHAR
STARTCHAR 01FD
ENCODING 509
SWIDTH 500 0
DWIDTH 10 0
BBX 8 13 1 1
BITMAP
0C
18
00
00
7E
99
19
3F
58
98
99
99
FE
ENDCHAR
STARTCHAR 0250
ENCODING 592
SWIDTH 500 0
DWIDTH 10 0
BBX 8 9 1 1
BITMAP
DE
63
43
42
7C
40
43
66
3C
ENDCHAR
STARTCHAR 0251
ENCODING 593
SWIDTH 500 0
DWIDTH 10 0
BBX 9 10 1 1
BITMAP
0300
3F00
6700
C300
C300
C300
C300
C300
6700
3F80
ENDCHAR
STARTCHAR 0252
ENCODING 594
SWIDTH 500 0
DWIDTH 10 0
BBX 8 9 1 1
BITMAP
FC
E6
C3
C3
C3
C3
C3
E6
FC
ENDCHAR
STARTCHAR 0253
ENCODING 595
SWIDTH 500 0
DWIDTH 10 0
BBX 8 14 1 1
BITMAP
3C
66
43
C0
C0
DC
E2
C3
C3
C3
C3
C3
E6
FC
ENDCHAR
STARTCHAR 0254
ENCODING 596
SWIDTH 500 0
DWIDTH 10 0
BBX 8 9 1 1
BITMAP
3C
46
02
03
03
03
C2
66
3C
ENDCHAR
STARTCHAR 0255
ENCODING 597
SWIDTH 500 0
DWIDTH 10 0
BBX 8 10 1 0
BITMAP
3C
62
40
C0
CE
DB
F3
66
7C
80
ENDCHAR
STARTCHAR 0256
ENCODING 598
SWIDTH 500 0
DWIDTH 10 0
BBX 9 17 1 -2
BITMAP
0600
0600
0600
0600
0600
7E00
CE00
C600
8600
8600
8600
C600
CE00
7E00
0600
0600
0380
ENDCHAR
STARTCHAR 0257
ENCODING 599
SWIDTH 500 0
DWIDTH 10 0
BBX 9 14 1 1
BITMAP
0380
0600
0600
0600
0600
7E00
CE00
C600
8600
8600
8600
C600
CE00
7A00
ENDCHAR
STARTCHAR 0258
ENCODING 600
SWIDTH 500 0
DWIDTH 10 0
BBX 8 9 1 1
BITMAP
3C
46
C2
FF
03
03
C2
66
3C
ENDCHAR
STARTCHAR 0259
ENCODING 601
SWIDTH 500 0
DWIDTH 10 0
BBX 8 9 1 1
BITMAP
3C
C6
02
03
FF
C3
42
66
3C
ENDCHAR
STARTCHAR 025A
ENCODING 602
SWIDTH 500 0
DWIDTH 10 0
BBX 9 9 1 1
BITMAP
7000
C800
8E00
0E00
3E80
E500
8C00
C800
7000
ENDCHAR
STARTCHAR 025C
ENCODING 604
SWIDTH 500 0
DWIDTH 10 0
BBX 8 9 1 1
BITMAP
3E
62
02
1C
02
03
03
C2
3C
ENDCHAR
STARTCHAR 025E
ENCODING 606
SWIDTH 500 0
DWIDTH 10 0
BBX 8 9 1 1
BITMAP
3E
63
43
C3
DC
C3
43
63
3E
ENDCHAR
STARTCHAR 025F
ENCODING 607
SWIDTH 500 0
DWIDTH 10 0
BBX 6 13 2 -2
BITMAP
30
30
30
30
30
30
30
FC
30
30
30
30
F0
ENDCHAR
STARTCHAR 0260
ENCODING 608
SWIDTH 500 0
DWIDTH 10 0
BBX 9 17 1 -2
BITMAP
0380
0600
0600
0600
0600
7E00
C600
8600
8600
8600
C600
CE00
7E00
0600
8600
C400
7800
ENDCHAR
STARTCHAR 0261
ENCODING 609
SWIDTH 500 0
DWIDTH 10 0
BBX 8 13 1 -2
BITMAP
03
3F
47
C3
C3
C3
C3
47
3B
03
C2
46
3C
ENDCHAR
STARTCHAR 0264
ENCODING 612
SWIDTH 500 0
DWIDTH 10 0
BBX 9 9 0 1
BITMAP
E180
1200
0C00
0C00
0C00
1E00
1E00
1200
0C00
ENDCHAR
STARTCHAR 0265
ENCODING 613
SWIDTH 500 0
DWIDTH 10 0
BBX 8 13 1 -2
BITMAP
C3
C3
C3
C3
C3
C3
C3
C3
47
7B
03
03
03
ENDCHAR
STARTCHAR 0266
ENCODING 614
SWIDTH 500 0
DWIDTH 10 0
BBX 8 14 1 1
BITMAP
3C
66
43
40
C0
DE
E2
C3
C3
C3
C3
C3
C3
C3
ENDCHAR
STARTCHAR 0267
ENCODING 615
SWIDTH 500 0
DWIDTH 10 0
BBX 8 17 1 -2
BITMAP
3C
66
43
40
C0
DE
E2
C3
C3
C3
C3
C3
C3
C3
03
03
0E
ENDCHAR
STARTCHAR 0268
ENCODING 616
SWIDTH 500 0
DWIDTH 10 0
BBX 6 14 2 1
BITMAP
30
30
00
00
30
30
30
30
FC
30
30
30
30
30
ENDCHAR
STARTCHAR 026C
ENCODING 620
SWIDTH 500 0
DWIDTH 10 0
BBX 6 14 1 1
BITMAP
18
18
18
18
18
78
98
78
1C
18
18
18
18
18
ENDCHAR
STARTCHAR 026D
ENCODING 621
SWIDTH 500 0
DWIDTH 10 0
BBX 5 17 4 -2
BITMAP
C0
C0
C0
C0
C0
C0
C0
C0
C0
C0
C0
C0
C0
C0
C0
C8
78
ENDCHAR
STARTCHAR 026E
ENCODING 622
SWIDTH 500 0
DWIDTH 10 0
BBX 8 17 1 -2
BITMAP
C0
C0
C0
C0
FF
C6
CC
D8
FE
C2
C3
C1
C1
C1
03
22
1C
ENDCHAR
STARTCHAR 026F
ENCODING 623
SWIDTH 500 0
DWIDTH 10 0
BBX 8 10 1 1
BITMAP
99
99
99
99
99
99
99
99
9B
ED
ENDCHAR
STARTCHAR 0270
ENCODING 624
SWIDTH 500 0
DWIDTH 10 0
BBX 8 13 1 -2
BITMAP
99
99
99
99
99
99
99
99
9B
EF
01
01
01
ENDCHAR
STARTCHAR 0271
ENCODING 625
SWIDTH 500 0
DWIDTH 10 0
BBX 8 13 1 -2
BITMAP
80
F7
D9
99
99
99
99
99
99
99
01
09
0F
ENDCHAR
STARTCHAR 0272
ENCODING 626
SWIDTH 500 0
DWIDTH 10 0
BBX 9 13 0 -2
BITMAP
3000
3F00
3980
3180
3180
3180
3180
3180
3180
3180
3000
B000
E000
ENDCHAR
STARTCHAR 0273
ENCODING 627
SWIDTH 500 0
DWIDTH 10 0
BBX 9 13 1 -2
BITMAP
8000
BC00
E400
C600
C600
C600
C600
C600
C600
C600
0600
0600
0380
ENDCHAR
STARTCHAR 0275
ENCODING 629
SWIDTH 500 0
DWIDTH 10 0
BBX 8 9 1 1
BITMAP
3C
42
42
FF
C3
C3
42
66
3C
ENDCHAR
STARTCHAR 0279
ENCODING 633
SWIDTH 500 0
DWIDTH 10 0
BBX 5 10 2 1
BITMAP
08
08
08
08
08
08
18
38
E8
C8
ENDCHAR
STARTCHAR 027A
ENCODING 634
SWIDTH 500 0
DWIDTH 10 0
BBX 5 14 2 1
BITMAP
08
08
08
08
08
08
08
08
08
08
18
38
E8
C8
ENDCHAR
STARTCHAR 027B
ENCODING 635
SWIDTH 500 0
DWIDTH 10 0
BBX 8 12 2 -1
BITMAP
08
08
08
08
08
08
18
38
C8
88
08
0F
ENDCHAR
STARTCHAR 027D
ENCODING 637
SWIDTH 500 0
DWIDTH 10 0
BBX 5 12 3 -1
BITMAP
98
B8
E0
C0
80
80
80
80
80
80
80
F0
ENDCHAR
STARTCHAR 027E
ENCODING 638
SWIDTH 500 0
DWIDTH 10 0
BBX 4 9 4 1
BITMAP
F0
80
80
80
80
80
80
80
80
ENDCHAR
STARTCHAR 0281
ENCODING 641
SWIDTH 500 0
DWIDTH 10 0
BBX 7 10 2 1
BITMAP
82
86
84
8C
88
FC
86
86
86
FC
ENDCHAR
STARTCHAR 0282
ENCODING 642
SWIDTH 500 0
DWIDTH 10 0
BBX 8 12 1 -2
BITMAP
3C
42
40
70
1E
06
C3
E2
FC
C0
C0
60
ENDCHAR
STARTCHAR 0283
ENCODING 643
SWIDTH 500 0
DWIDTH 10 0
BBX 6 17 2 -2
BITMAP
1C
30
30
30
30
30
30
30
30
30
30
30
30
30
30
30
E0
ENDCHAR
STARTCHAR 0284
ENCODING 644
SWIDTH 500 0
DWIDTH 10 0
BBX 6 17 2 -2
BITMAP
1C
30
30
30
30
30
30
30
30
30
30
FC
30
30
30
B0
E0
ENDCHAR
STARTCHAR 0288
ENCODING 648
SWIDTH 500 0
DWIDTH 10 0
BBX 6 14 2 -1
BITMAP
20
20
FC
20
20
20
20
20
20
20
20
20
30
3C
ENDCHAR
STARTCHAR 0289
ENCODING 649
SWIDTH 500 0
DWIDTH 10 0
BBX 9 10 1 1
BITMAP
C300
C300
C300
C300
FF80
C300
C300
C300
4700
7B00
ENDCHAR
STARTCHAR 028A
ENCODING 650
SWIDTH 500 0
DWIDTH 10 0
BBX 8 10 1 1
BITMAP
E7
66
42
C3
C3
C3
C3
C3
66
3C
ENDCHAR
STARTCHAR 028B
ENCODING 651
SWIDTH 500 0
DWIDTH 10 0
BBX 8 10 1 2
BITMAP
C6
C2
C3
C3
C3
C3
C2
42
44
38
ENDCHAR
STARTCHAR 028C
ENCODING 652
SWIDTH 500 0
DWIDTH 10 0
BBX 8 10 1 1
BITMAP
18
18
3C
3C
24
66
66
42
C2
C3
ENDCHAR
STARTCHAR 028D
ENCODING 653
SWIDTH 500 0
DWIDTH 10 0
BBX 8 10 1 1
BITMAP
66
66
66
66
E7
BD
99
99
99
99
ENDCHAR
STARTCHAR 028E
ENCODING 654
SWIDTH 500 0
DWIDTH 10 0
BBX 8 14 1 1
BITMAP
07
0C
08
18
18
18
38
38
2C
64
64
46
C2
C3
ENDCHAR
STARTCHAR 0290
ENCODING 656
SWIDTH 500 0
DWIDTH 10 0
BBX 9 13 1 -2
BITMAP
7E00
0600
0C00
0C00
1800
1000
3000
6000
4000
FE00
0200
0200
0380
ENDCHAR
STARTCHAR 0291
ENCODING 657
SWIDTH 500 0
DWIDTH 10 0
BBX 8 12 1 -1
BITMAP
7E
06
04
0C
18
10
37
65
49
FF
10
20
ENDCHAR
STARTCHAR 0292
ENCODING 658
SWIDTH 500 0
DWIDTH 10 0
BBX 8 13 1 -2
BITMAP
7E
06
0C
30
7C
66
03
03
03
03
C3
66
3C
ENDCHAR
STARTCHAR 0294
ENCODING 660
SWIDTH 500 0
DWIDTH 10 0
BBX 8 14 1 1
BITMAP
3C
46
C2
03
03
03
03
02
06
3C
30
30
30
30
ENDCHAR
STARTCHAR 0295
ENCODING 661
SWIDTH 500 0
DWIDTH 10 0
BBX 8 14 1 1
BITMAP
3C
62
43
C0
C0
C0
C0
40
60
3C
0C
0C
0C
0C
ENDCHAR
STARTCHAR 0298
ENCODING 664
SWIDTH 500 0
DWIDTH 10 0
BBX 8 9 1 1
BITMAP
3C
62
C3
99
99
99
83
42
3C
ENDCHAR
STARTCHAR 029D
ENCODING 669
SWIDTH 500 0
DWIDTH 10 0
BBX 8 17 1 -2
BITMAP
08
08
00
00
08
08
08
08
08
08
08
08
E8
98
8C
9F
72
ENDCHAR
STARTCHAR 02A1
ENCODING 673
SWIDTH 500 0
DWIDTH 10 0
BBX 8 14 1 1
BITMAP
3C
46
C2
03
03
03
03
06
0E
3C
30
FC
30
30
ENDCHAR
STARTCHAR 02A2
ENCODING 674
SWIDTH 500 0
DWIDTH 10 0
BBX 8 14 1 1
BITMAP
3C
62
43
C0
C0
C0
C0
40
60
3C
0C
3F
0C
0C
ENDCHAR
STARTCHAR 02C7
ENCODING 711
SWIDTH 500 0
DWIDTH 10 0
BBX 6 2 2 13
BITMAP
CC
78
ENDCHAR
STARTCHAR 02C8
ENCODING 712
SWIDTH 500 0
DWIDTH 10 0
BBX 2 2 4 15
BITMAP
C0
C0
ENDCHAR
STARTCHAR 02CC
ENCODING 716
SWIDTH 500 0
DWIDTH 10 0
BBX 2 2 4 -2
BITMAP
C0
C0
ENDCHAR
STARTCHAR 02D0
ENCODING 720
SWIDTH 500 0
DWIDTH 10 0
BBX 2 10 4 1
BITMAP
C0
C0
80
00
00
00
00
80
C0
C0
ENDCHAR
STARTCHAR 02D1
ENCODING 721
SWIDTH 500 0
DWIDTH 10 0
BBX 2 3 4 8
BITMAP
C0
C0
80
ENDCHAR
STARTCHAR 02D8
ENCODING 728
SWIDTH 500 0
DWIDTH 10 0
BBX 6 3 2 12
BITMAP
84
CC
78
ENDCHAR
STARTCHAR 02D9
ENCODING 729
SWIDTH 500 0
DWIDTH 10 0
BBX 2 2 4 13
BITMAP
C0
C0
ENDCHAR
STARTCHAR 02DB
ENCODING 731
SWIDTH 500 0
DWIDTH 10 0
BBX 4 4 3 -1
BITMAP
40
80
80
F0
ENDCHAR
STARTCHAR 02DC
ENCODING 732
SWIDTH 500 0
DWIDTH 10 0
BBX 6 2 2 13
BITMAP
E0
1C
ENDCHAR
STARTCHAR 02DD
ENCODING 733
SWIDTH 500 0
DWIDTH 10 0
BBX 6 2 2 13
BITMAP
6C
98
ENDCHAR
STARTCHAR 02DE
ENCODING 734
SWIDTH 500 0
DWIDTH 10 0
BBX 6 4 2 5
BITMAP
C0
C0
24
18
ENDCHAR
STARTCHAR 02E5
ENCODING 741
SWIDTH 500 0
DWIDTH 10 0
BBX 5 20 2 -2
BITMAP
F8
08
08
08
08
08
08
08
08
08
08
08
08
08
08
08
08
08
08
08
ENDCHAR
STARTCHAR 02E6
ENCODING 742
SWIDTH 500 0
DWIDTH 10 0
BBX 5 20 2 -2
BITMAP
08
08
08
08
08
F8
08
08
08
08
08
08
08
08
08
08
08
08
08
08
ENDCHAR
STARTCHAR 02E7
ENCODING 743
SWIDTH 500 0
DWIDTH 10 0
BBX 5 20 2 -2
BITMAP
08
08
08
08
08
08
08
08
08
08
F8
08
08
08
08
08
08
08
08
08
ENDCHAR
STARTCHAR 02E8
ENCODING 744
SWIDTH 500 0
DWIDTH 10 0
BBX 5 20 2 -2
BITMAP
08
08
08
08
08
08
08
08
08
08
08
08
08
08
08
F8
08
08
08
08
ENDCHAR
STARTCHAR 02E9
ENCODING 745
SWIDTH 500 0
DWIDTH 10 0
BBX 5 20 2 -2
BITMAP
08
08
08
08
08
08
08
08
08
08
08
08
08
08
08
08
08
08
08
F8
ENDCHAR
STARTCHAR 0300
ENCODING 768
SWIDTH 500 0
DWIDTH 10 0
BBX 2 1 4 16
BITMAP
C0
ENDCHAR
STARTCHAR 0301
ENCODING 769
SWIDTH 500 0
DWIDTH 10 0
BBX 2 1 4 16
BITMAP
C0
ENDCHAR
STARTCHAR 0302
ENCODING 770
SWIDTH 500 0
DWIDTH 10 0
BBX 4 1 3 16
BITMAP
F0
ENDCHAR
STARTCHAR 0303
ENCODING 771
SWIDTH 500 0
DWIDTH 10 0
BBX 4 1 3 16
BITMAP
F0
ENDCHAR
STARTCHAR 0304
ENCODING 772
SWIDTH 500 0
DWIDTH 10 0
BBX 6 1 2 16
BITMAP
FC
ENDCHAR
STARTCHAR 0306
ENCODING 774
SWIDTH 500 0
DWIDTH 10 0
BBX 6 2 2 15
BITMAP
CC
78
ENDCHAR
STARTCHAR 0308
ENCODING 776
SWIDTH 500 0
DWIDTH 10 0
BBX 6 1 2 16
BITMAP
CC
ENDCHAR
STARTCHAR 030B
ENCODING 779
SWIDTH 500 0
DWIDTH 10 0
BBX 4 1 3 16
BITMAP
D0
ENDCHAR
STARTCHAR 030C
ENCODING 780
SWIDTH 500 0
DWIDTH 10 0
BBX 4 1 3 16
BITMAP
F0
ENDCHAR
STARTCHAR 030F
ENCODING 783
SWIDTH 500 0
DWIDTH 10 0
BBX 4 1 3 16
BITMAP
B0
ENDCHAR
STARTCHAR 0318
ENCODING 792
SWIDTH 500 0
DWIDTH 10 0
BBX 3 2 3 -2
BITMAP
E0
20
ENDCHAR
STARTCHAR 0319
ENCODING 793
SWIDTH 500 0
DWIDTH 10 0
BBX 3 2 4 -2
BITMAP
E0
80
ENDCHAR
STARTCHAR 031A
ENCODING 794
SWIDTH 500 0
DWIDTH 10 0
BBX 4 2 6 15
BITMAP
F0
10
ENDCHAR
STARTCHAR 031C
ENCODING 796
SWIDTH 500 0
DWIDTH 10 0
BBX 1 2 4 -2
BITMAP
80
80
ENDCHAR
STARTCHAR 031D
ENCODING 797
SWIDTH 500 0
DWIDTH 10 0
BBX 4 2 3 -2
BITMAP
60
F0
ENDCHAR
STARTCHAR 031E
ENCODING 798
SWIDTH 500 0
DWIDTH 10 0
BBX 4 2 3 -2
BITMAP
F0
60
ENDCHAR
STARTCHAR 031F
ENCODING 799
SWIDTH 500 0
DWIDTH 10 0
BBX 4 2 3 -2
BITMAP
F0
60
ENDCHAR
STARTCHAR 0320
ENCODING 800
SWIDTH 500 0
DWIDTH 10 0
BBX 4 1 3 -1
BITMAP
F0
ENDCHAR
STARTCHAR 0324
ENCODING 804
SWIDTH 500 0
DWIDTH 10 0
BBX 6 1 2 -2
BITMAP
CC
ENDCHAR
STARTCHAR 0325
ENCODING 805
SWIDTH 500 0
DWIDTH 10 0
BBX 2 3 4 -2
BITMAP
C0
C0
C0
ENDCHAR
STARTCHAR 0329
ENCODING 809
SWIDTH 500 0
DWIDTH 10 0
BBX 2 2 4 -2
BITMAP
C0
C0
ENDCHAR
STARTCHAR 032A
ENCODING 810
SWIDTH 500 0
DWIDTH 10 0
BBX 4 2 3 -2
BITMAP
F0
90
ENDCHAR
STARTCHAR 032C
ENCODING 812
SWIDTH 500 0
DWIDTH 10 0
BBX 4 2 3 -2
BITMAP
90
60
ENDCHAR
STARTCHAR 032F
ENCODING 815
SWIDTH 500 0
DWIDTH 10 0
BBX 6 2 2 -2
BITMAP
78
CC
ENDCHAR
STARTCHAR 0330
ENCODING 816
SWIDTH 500 0
DWIDTH 10 0
BBX 4 2 3 -2
BITMAP
C0
30
ENDCHAR
STARTCHAR 0334
ENCODING 820
SWIDTH 500 0
DWIDTH 10 0
BBX 4 1 3 7
BITMAP
F0
ENDCHAR
STARTCHAR 0339
ENCODING 825
SWIDTH 500 0
DWIDTH 10 0
BBX 1 2 5 -2
BITMAP
80
80
ENDCHAR
STARTCHAR 033A
ENCODING 826
SWIDTH 500 0
DWIDTH 10 0
BBX 4 2 3 -2
BITMAP
90
F0
ENDCHAR
STARTCHAR 033B
ENCODING 827
SWIDTH 500 0
DWIDTH 10 0
BBX 4 2 3 -2
BITMAP
F0
F0
ENDCHAR
STARTCHAR 033C
ENCODING 828
SWIDTH 500 0
DWIDTH 10 0
BBX 6 2 2 -2
BITMAP
FC
20
ENDCHAR
STARTCHAR 033D
ENCODING 829
SWIDTH 500 0
DWIDTH 10 0
BBX 4 1 3 16
BITMAP
F0
ENDCHAR
STARTCHAR 0361
ENCODING 865
SWIDTH 500 0
DWIDTH 10 0
BBX 8 2 1 15
BITMAP
7E
81
ENDCHAR
STARTCHAR 0391
ENCODING 913
SWIDTH 1000 0
DWIDTH 20 0
BBX 12 14 4 1
BITMAP
0600
0F00
0F00
1980
1980
1080
30C0
30C0
3FC0
7FE0
6060
C030
C030
C030
ENDCHAR
STARTCHAR 0392
ENCODING 914
SWIDTH 1000 0
DWIDTH 20 0
BBX 11 14 5 1
BITMAP
FF00
FFC0
C0C0
C040
C040
C0C0
FF80
FFC0
C0E0
C060
C060
C060
FFC0
FF80
ENDCHAR
STARTCHAR 0393
ENCODING 915
SWIDTH 1000 0
DWIDTH 20 0
BBX 11 14 5 1
BITMAP
FFE0
FFE0
C000
C000
C000
C000
C000
C000
C000
C000
C000
C000
C000
C000
ENDCHAR
STARTCHAR 0394
ENCODING 916
SWIDTH 1000 0
DWIDTH 20 0
BBX 14 14 3 1
BITMAP
0300
0780
0780
0CC0
0CC0
0840
1860
1020
3030
3030
6018
6018
7FF8
FFFC
ENDCHAR
STARTCHAR 0395
ENCODING 917
SWIDTH 1000 0
DWIDTH 20 0
BBX 10 14 5 1
BITMAP
FFC0
FFC0
C000
C000
C000
C000
FF80
FF80
C000
C000
C000
C000
FFC0
FFC0
ENDCHAR
STARTCHAR 0396
ENCODING 918
SWIDTH 1000 0
DWIDTH 20 0
BBX 12 14 4 1
BITMAP
7FE0
7FE0
0060
00C0
0180
0300
0600
0C00
1800
3800
3000
6000
FFF0
FFF0
ENDCHAR
STARTCHAR 0397
ENCODING 919
SWIDTH 1000 0
DWIDTH 20 0
BBX 12 14 4 1
BITMAP
C030
C030
C030
C030
C030
C030
FFF0
FFF0
C030
C030
C030
C030
C030
C030
ENDCHAR
STARTCHAR 0398
ENCODING 920
SWIDTH 1000 0
DWIDTH 20 0
BBX 12 14 4 1
BITMAP
1F80
30C0
6060
C030
C030
8030
BFD0
BFD0
8030
C030
C030
6060
30C0
1F80
ENDCHAR
STARTCHAR 0399
ENCODING 921
SWIDTH 1000 0
DWIDTH 20 0
BBX 2 14 9 1
BITMAP
C0
C0
C0
C0
C0
C0
C0
C0
C0
C0
C0
C0
C0
C0
ENDCHAR
STARTCHAR 039A
ENCODING 922
SWIDTH 1000 0
DWIDTH 20 0
BBX 11 14 5 1
BITMAP
80C0
8180
8300
8600
8C00
9800
BC00
EE00
C600
8300
8180
81C0
80E0
8060
ENDCHAR
STARTCHAR 039B
ENCODING 923
SWIDTH 1000 0
DWIDTH 20 0
BBX 12 14 4 1
BITMAP
0600
0F00
0F00
0900
1980
1980
30C0
30C0
30C0
6060
6060
C030
C030
C030
ENDCHAR
STARTCHAR 039C
ENCODING 924
SWIDTH 1000 0
DWIDTH 20 0
BBX 14 14 3 1
BITMAP
E01C
E01C
E01C
F03C
D02C
D86C
D86C
C84C
CCCC
CCCC
C48C
C78C
C78C
C30C
ENDCHAR
STARTCHAR 039D
ENCODING 925
SWIDTH 1000 0
DWIDTH 20 0
BBX 12 14 4 1
BITMAP
E030
F030
D030
D830
CC30
CC30
C630
C230
C330
C1B0
C1B0
C0F0
C070
C070
ENDCHAR
STARTCHAR 039E
ENCODING 926
SWIDTH 1000 0
DWIDTH 20 0
BBX 12 14 4 1
BITMAP
7FE0
7FE0
0000
0000
0000
0000
7FE0
7FE0
0000
0000
0000
0000
FFF0
FFF0
ENDCHAR
STARTCHAR 039F
ENCODING 927
SWIDTH 1000 0
DWIDTH 20 0
BBX 12 14 4 1
BITMAP
1F80
30C0
6060
C030
C030
8030
8010
8010
8030
C030
C030
6060
30C0
1F80
ENDCHAR
STARTCHAR 03A0
ENCODING 928
SWIDTH 1000 0
DWIDTH 20 0
BBX 12 14 4 1
BITMAP
FFF0
FFF0
C030
C030
C030
C030
C030
C030
C030
C030
C030
C030
C030
C030
ENDCHAR
STARTCHAR 03A1
ENCODING 929
SWIDTH 1000 0
DWIDTH 20 0
BBX 11 14 5 1
BITMAP
FF80
FFC0
C0E0
C060
C060
C0E0
FFC0
FF80
C000
C000
C000
C000
C000
C000
ENDCHAR
STARTCHAR 03A3
ENCODING 931
SWIDTH 1000 0
DWIDTH 20 0
BBX 12 14 4 1
BITMAP
FFF0
FFF0
6000
3000
1800
0C00
0700
0600
0C00
1800
3000
6000
FFF0
FFF0
ENDCHAR
STARTCHAR 03A4
ENCODING 932
SWIDTH 1000 0
DWIDTH 20 0
BBX 12 14 4 1
BITMAP
FFF0
FFF0
0600
0600
0600
0600
0600
0600
0600
0600
0600
0600
0600
0600
ENDCHAR
STARTCHAR 03A5
ENCODING 933
SWIDTH 1000 0
DWIDTH 20 0
BBX 12 14 4 1
BITMAP
C030
E070
6060
30C0
1980
1980
0F00
0600
0600
0600
0600
0600
0600
0600
ENDCHAR
STARTCHAR 03A6
ENCODING 934
SWIDTH 1000 0
DWIDTH 20 0
BBX 14 14 3 1
BITMAP
0300
0300
0FC0
3FF0
6318
C30C
C30C
C30C
C30C
6318
3FF0
0FC0
0300
0300
ENDCHAR
STARTCHAR 03A7
ENCODING 935
SWIDTH 1000 0
DWIDTH 20 0
BBX 13 14 3 1
BITMAP
7038
3030
1860
0CC0
0CC0
0780
0300
0780
0F80
0CC0
1860
3030
7038
E018
ENDCHAR
STARTCHAR 03A8
ENCODING 936
SWIDTH 1000 0
DWIDTH 20 0
BBX 12 14 4 1
BITMAP
C630
C630
C630
C630
C630
C630
C630
C630
6660
3FC0
0F00
0600
0600
0600
ENDCHAR
STARTCHAR 03A9
ENCODING 937
SWIDTH 1000 0
DWIDTH 20 0
BBX 14 14 3 1
BITMAP
0FC0
1860
3030
6018
6018
4008
4008
6018
6018
3030
1860
0CC0
FCFC
FCFC
ENDCHAR
STARTCHAR 03B1
ENCODING 945
SWIDTH 1000 0
DWIDTH 20 0
BBX 12 10 4 1
BITMAP
0E30
3360
2160
61C0
C1C0
C180
C300
C3B0
CDB0
78E0
ENDCHAR
STARTCHAR 03B2
ENCODING 946
SWIDTH 1000 0
DWIDTH 20 0
BBX 11 17 4 -2
BITMAP
03C0
0C60
0820
1820
1020
3060
2EC0
2700
60C0
6040
4040
6040
70C0
CF00
C000
C000
C000
ENDCHAR
STARTCHAR 03B3
ENCODING 947
SWIDTH 1000 0
DWIDTH 20 0
BBX 12 13 4 -2
BITMAP
3800
6C30
C460
04C0
0580
0700
0600
0600
0400
0C00
0C00
0C00
0800
ENDCHAR
STARTCHAR 03B4
ENCODING 948
SWIDTH 1000 0
DWIDTH 20 0
BBX 10 14 5 1
BITMAP
1E00
1380
30C0
1840
0C00
0700
1F00
3180
6180
C180
C180
C100
6200
3C00
ENDCHAR
STARTCHAR 03B5
ENCODING 949
SWIDTH 1000 0
DWIDTH 20 0
BBX 9 10 5 1
BITMAP
1E00
3180
6080
2000
3E00
7E00
4000
C000
6380
3E00
ENDCHAR
STARTCHAR 03B6
ENCODING 950
SWIDTH 1000 0
DWIDTH 20 0
BBX 10 17 6 -2
BITMAP
21C0
2380
6700
3C00
1000
3000
6000
4000
C000
8000
8000
C000
7C00
0600
0200
4600
3C00
ENDCHAR
STARTCHAR 03B7
ENCODING 951
SWIDTH 1000 0
DWIDTH 20 0
BBX 11 13 4 -2
BITMAP
31C0
4A60
CC60
0860
1860
1840
1040
30C0
30C0
20C0
0080
0180
0180
ENDCHAR
STARTCHAR 03B8
ENCODING 952
SWIDTH 1000 0
DWIDTH 20 0
BBX 10 14 5 1
BITMAP
0F00
1980
30C0
60C0
60C0
C0C0
FFC0
FFC0
C080
C080
C180
C300
4600
3C00
ENDCHAR
STARTCHAR 03B9
ENCODING 953
SWIDTH 1000 0
DWIDTH 20 0
BBX 7 10 6 1
BITMAP
18
10
30
20
60
60
40
C6
4C
78
ENDCHAR
STARTCHAR 03BA
ENCODING 954
SWIDTH 1000 0
DWIDTH 20 0
BBX 10 10 5 2
BITMAP
30C0
33C0
3700
3C00
7800
6C00
6400
4440
C4C0
C700
ENDCHAR
STARTCHAR 03BB
ENCODING 955
SWIDTH 1000 0
DWIDTH 20 0
BBX 11 14 4 1
BITMAP
0E00
3300
2100
0100
0100
0300
0300
0780
0D80
1980
1880
30C0
60C0
C060
ENDCHAR
STARTCHAR 03BC
ENCODING 956
SWIDTH 1000 0
DWIDTH 20 0
BBX 13 13 4 -2
BITMAP
1060
3040
30C0
30C0
20C0
2080
6180
6188
5390
5E60
C000
C000
C000
ENDCHAR
STARTCHAR 03BD
ENCODING 957
SWIDTH 1000 0
DWIDTH 20 0
BBX 9 10 6 1
BITMAP
C180
C180
4180
6100
6300
6300
4600
4C00
F800
E000
ENDCHAR
STARTCHAR 03BE
ENCODING 958
SWIDTH 1000 0
DWIDTH 20 0
BBX 9 17 5 -2
BITMAP
1B80
0F80
1800
3000
2000
3000
1F80
3B80
6000
C000
C000
7000
7F00
0780
0180
6100
3E00
ENDCHAR
STARTCHAR 03BF
ENCODING 959
SWIDTH 1000 0
DWIDTH 20 0
BBX 10 10 5 1
BITMAP
0F00
3180
2080
6080
40C0
C080
C180
4180
6300
3C00
ENDCHAR
STARTCHAR 03C0
ENCODING 960
SWIDTH 1000 0
DWIDTH 20 0
BBX 11 11 5 1
BITMAP
0020
7FE0
FFC0
9300
3300
2200
2600
6600
4620
C640
C380
ENDCHAR
STARTCHAR 03C1
ENCODING 961
SWIDTH 1000 0
DWIDTH 20 0
BBX 10 13 4 -2
BITMAP
0780
1CC0
1840
3040
3040
2040
60C0
70C0
7180
4F00
4000
4000
C000
ENDCHAR
STARTCHAR 03C2
ENCODING 962
SWIDTH 500 0
DWIDTH 10 0
BBX 8 12 1 -2
BITMAP
3C
62
43
40
60
60
30
18
0C
04
CC
78
ENDCHAR
STARTCHAR 03C3
ENCODING 963
SWIDTH 1000 0
DWIDTH 20 0
BBX 11 10 5 1
BITMAP
0FE0
3FE0
3180
6080
40C0
C080
C180
4180
6300
3C00
ENDCHAR
STARTCHAR 03C4
ENCODING 964
SWIDTH 1000 0
DWIDTH 20 0
BBX 10 10 5 2
BITMAP
7FC0
FE00
0800
1800
1800
1000
3000
3100
3300
1E00
ENDCHAR
STARTCHAR 03C5
ENCODING 965
SWIDTH 1000 0
DWIDTH 20 0
BBX 11 10 4 1
BITMAP
3840
48C0
9860
1860
3060
3060
2040
20C0
2180
1E00
ENDCHAR
STARTCHAR 03C6
ENCODING 966
SWIDTH 1000 0
DWIDTH 20 0
BBX 12 16 4 -2
BITMAP
0180
0100
0100
0700
1FC0
7260
6220
C630
C630
C420
6460
7DC0
1F00
0800
1800
1800
ENDCHAR
STARTCHAR 03C7
ENCODING 967
SWIDTH 1000 0
DWIDTH 20 0
BBX 11 13 4 -2
BITMAP
3860
6CC0
0580
0580
0700
0600
0600
0E00
1A00
1200
3220
6360
C180
ENDCHAR
STARTCHAR 03C8
ENCODING 968
SWIDTH 1000 0
DWIDTH 20 0
BBX 12 16 4 -2
BITMAP
0180
0100
0100
1300
3B60
6220
C630
C630
C630
C430
CC60
7DC0
1F00
0800
1800
1800
ENDCHAR
STARTCHAR 03C9
ENCODING 969
SWIDTH 1000 0
DWIDTH 20 0
BBX 13 10 3 1
BITMAP
0810
1810
3018
6118
6308
C308
C208
C318
4530
38E0
ENDCHAR
STARTCHAR 0401
ENCODING 1025
SWIDTH 1000 0
DWIDTH 20 0
BBX 10 16 5 1
BITMAP
2100
2100
FFC0
FFC0
C000
C000
C000
C000
FF80
FF80
C000
C000
C000
C000
FFC0
FFC0
ENDCHAR
STARTCHAR 0410
ENCODING 1040
SWIDTH 1000 0
DWIDTH 20 0
BBX 12 14 4 1
BITMAP
0600
0F00
0F00
1980
1980
1080
30C0
30C0
3FC0
7FE0
6060
C030
C030
C030
ENDCHAR
STARTCHAR 0411
ENCODING 1041
SWIDTH 1000 0
DWIDTH 20 0
BBX 11 14 5 1
BITMAP
FFC0
FFC0
C000
C000
C000
C000
FF80
FFC0
C0E0
C060
C060
C060
FFC0
FF80
ENDCHAR
STARTCHAR 0412
ENCODING 1042
SWIDTH 1000 0
DWIDTH 20 0
BBX 11 14 5 1
BITMAP
FF00
FFC0
C0C0
C040
C040
C0C0
FF80
FFC0
C0E0
C060
C060
C060
FFC0
FF80
ENDCHAR
STARTCHAR 0413
ENCODING 1043
SWIDTH 1000 0
DWIDTH 20 0
BBX 11 14 5 1
BITMAP
FFE0
FFE0
C000
C000
C000
C000
C000
C000
C000
C000
C000
C000
C000
C000
ENDCHAR
STARTCHAR 0414
ENCODING 1044
SWIDTH 1000 0
DWIDTH 20 0
BBX 14 16 3 -1
BITMAP
0FF0
0FF0
0C30
0C30
0830
0830
0830
1830
1830
1030
3030
3030
FFFC
FFFC
C00C
C00C
ENDCHAR
STARTCHAR 0415
ENCODING 1045
SWIDTH 1000 0
DWIDTH 20 0
BBX 10 14 5 1
BITMAP
FFC0
FFC0
C000
C000
C000
C000
FF80
FF80
C000
C000
C000
C000
FFC0
FFC0
ENDCHAR
STARTCHAR 0416
ENCODING 1046
SWIDTH 1000 0
DWIDTH 20 0
BBX 16 14 2 1
BITMAP
6186
6186
2184
318C
318C
1DB8
0FF0
0DB0
1998
1188
318C
6186
6186
C183
ENDCHAR
STARTCHAR 0417
ENCODING 1047
SWIDTH 1000 0
DWIDTH 20 0
BBX 11 14 4 1
BITMAP
1F00
30C0
6060
0060
0060
00C0
0F80
0FC0
0060
0020
0020
C060
60C0
1F80
ENDCHAR
STARTCHAR 0418
ENCODING 1048
SWIDTH 1000 0
DWIDTH 20 0
BBX 12 14 4 1
BITMAP
C030
C030
C070
C0F0
C1F0
C3B0
C730
CE30
DC30
F830
F030
E030
C030
C030
ENDCHAR
STARTCHAR 0419
ENCODING 1049
SWIDTH 1000 0
DWIDTH 20 0
BBX 12 16 4 1
BITMAP
1080
0F00
C030
C030
C070
C0F0
C1F0
C3B0
C730
CE30
DC30
F830
F030
E030
C030
C030
ENDCHAR
STARTCHAR 041A
ENCODING 1050
SWIDTH 1000 0
DWIDTH 20 0
BBX 11 14 5 1
BITMAP
8040
80C0
80C0
8180
8380
8F00
FC00
C600
8300
8300
8180
80C0
80E0
8060
ENDCHAR
STARTCHAR 041B
ENCODING 1051
SWIDTH 1000 0
DWIDTH 20 0
BBX 13 14 2 1
BITMAP
03F8
03F8
0208
0208
0208
0208
0208
0208
0608
0608
0608
C408
4C08
3808
ENDCHAR
STARTCHAR 041C
ENCODING 1052
SWIDTH 1000 0
DWIDTH 20 0
BBX 14 14 3 1
BITMAP
E01C
E01C
E01C
F03C
D02C
D86C
D86C
C84C
CCCC
CCCC
C48C
C78C
C78C
C30C
ENDCHAR
STARTCHAR 041D
ENCODING 1053
SWIDTH 1000 0
DWIDTH 20 0
BBX 12 14 4 1
BITMAP
C030
C030
C030
C030
C030
C030
FFF0
FFF0
C030
C030
C030
C030
C030
C030
ENDCHAR
STARTCHAR 041E
ENCODING 1054
SWIDTH 1000 0
DWIDTH 20 0
BBX 12 14 4 1
BITMAP
1F80
30C0
6060
C030
C030
8030
8010
8010
8030
C030
C030
6060
30C0
1F80
ENDCHAR
STARTCHAR 041F
ENCODING 1055
SWIDTH 1000 0
DWIDTH 20 0
BBX 12 14 4 1
BITMAP
FFF0
FFF0
C030
C030
C030
C030
C030
C030
C030
C030
C030
C030
C030
C030
ENDCHAR
STARTCHAR 0420
ENCODING 1056
SWIDTH 1000 0
DWIDTH 20 0
BBX 11 14 5 1
BITMAP
FF80
FFC0
C0E0
C060
C060
C0E0
FFC0
FF80
C000
C000
C000
C000
C000
C000
ENDCHAR
STARTCHAR 0421
ENCODING 1057
SWIDTH 1000 0
DWIDTH 20 0
BBX 13 14 3 1
BITMAP
0FC0
1860
3030
6018
6000
C000
C000
C000
C000
4018
6018
3030
1860
0FC0
ENDCHAR
STARTCHAR 0422
ENCODING 1058
SWIDTH 1000 0
DWIDTH 20 0
BBX 12 14 4 1
BITMAP
FFF0
FFF0
0600
0600
0600
0600
0600
0600
0600
0600
0600
0600
0600
0600
ENDCHAR
STARTCHAR 0423
ENCODING 1059
SWIDTH 1000 0
DWIDTH 20 0
BBX 11 14 5 1
BITMAP
C060
C060
60C0
60C0
3080
1180
1980
0B00
0F00
0600
0600
0C00
FC00
F800
ENDCHAR
STARTCHAR 0424
ENCODING 1060
SWIDTH 1000 0
DWIDTH 20 0
BBX 14 14 3 1
BITMAP
0300
0300
0FC0
3FF0
6318
C30C
C30C
C30C
C30C
6318
3FF0
0FC0
0300
0300
ENDCHAR
STARTCHAR 0425
ENCODING 1061
SWIDTH 1000 0
DWIDTH 20 0
BBX 13 14 3 1
BITMAP
7038
3030
1860
0CC0
0CC0
0780
0300
0780
0F80
0CC0
1860
3030
7038
E018
ENDCHAR
STARTCHAR 0426
ENCODING 1062
SWIDTH 1000 0
DWIDTH 20 0
BBX 13 16 4 -1
BITMAP
C060
C060
C060
C060
C060
C060
C060
C060
C060
C060
C060
C060
FFF8
FFF8
0008
0008
ENDCHAR
STARTCHAR 0427
ENCODING 1063
SWIDTH 1000 0
DWIDTH 20 0
BBX 10 14 5 1
BITMAP
C0C0
C0C0
C0C0
C0C0
C0C0
C0C0
C0C0
E1C0
7EC0
00C0
00C0
00C0
00C0
00C0
ENDCHAR
STARTCHAR 0428
ENCODING 1064
SWIDTH 1000 0
DWIDTH 20 0
BBX 14 14 3 1
BITMAP
C30C
C30C
C30C
C30C
C30C
C30C
C30C
C30C
C30C
C30C
C30C
C30C
FFFC
FFFC
ENDCHAR
STARTCHAR 0429
ENCODING 1065
SWIDTH 1000 0
DWIDTH 20 0
BBX 15 16 3 -1
BITMAP
830C
830C
830C
830C
830C
830C
830C
830C
830C
830C
830C
830C
FFFE
FFFE
0002
0002
ENDCHAR
STARTCHAR 042A
ENCODING 1066
SWIDTH 1000 0
DWIDTH 20 0
BBX 14 14 3 1
BITMAP
F800
F800
1800
1800
1800
1800
1FE0
1FF8
1818
180C
180C
1818
1FF8
1FE0
ENDCHAR
STARTCHAR 042B
ENCODING 1067
SWIDTH 1000 0
DWIDTH 20 0
BBX 14 14 3 1
BITMAP
C00C
C00C
C00C
C00C
C00C
C00C
FF0C
FF8C
C1CC
C0CC
C0CC
C1CC
FF8C
FF0C
ENDCHAR
STARTCHAR 042C
ENCODING 1068
SWIDTH 1000 0
DWIDTH 20 0
BBX 11 14 5 1
BITMAP
C000
C000
C000
C000
C000
C000
FF80
FFC0
C0E0
C060
C060
C060
FFC0
FF80
ENDCHAR
STARTCHAR 042D
ENCODING 1069
SWIDTH 1000 0
DWIDTH 20 0
BBX 13 14 4 1
BITMAP
1F80
30C0
6060
C030
0030
0018
3818
4798
0018
0010
C030
4060
70C0
1F80
ENDCHAR
STARTCHAR 042E
ENCODING 1070
SWIDTH 1000 0
DWIDTH 20 0
BBX 15 14 3 1
BITMAP
C1F0
C318
C60C
C404
CC06
CC06
FC06
FC06
CC06
CC06
CC04
C60C
C318
C1F0
ENDCHAR
STARTCHAR 042F
ENCODING 1071
SWIDTH 1000 0
DWIDTH 20 0
BBX 11 14 4 1
BITMAP
1FE0
7FE0
6060
4060
4060
6060
3FE0
1FE0
0C60
1860
1860
3060
6060
E060
ENDCHAR
STARTCHAR 0430
ENCODING 1072
SWIDTH 1000 0
DWIDTH 20 0
BBX 10 10 5 1
BITMAP
3F00
6100
6180
0180
3F80
6180
C180
C180
4280
3CC0
ENDCHAR
STARTCHAR 0431
ENCODING 1073
SWIDTH 1000 0
DWIDTH 20 0
BBX 10 14 5 1
BITMAP
0180
0F00
1C00
3000
6000
5F00
E180
E080
C0C0
C0C0
40C0
6180
3180
1E00
ENDCHAR
STARTCHAR 0432
ENCODING 1074
SWIDTH 1000 0
DWIDTH 20 0
BBX 8 10 6 1
BITMAP
FC
FE
C3
C2
FE
FE
C3
C3
FF
FE
ENDCHAR
STARTCHAR 0433
ENCODING 1075
SWIDTH 1000 0
DWIDTH 20 0
BBX 8 10 6 1
BITMAP
FF
FF
C0
C0
C0
C0
C0
C0
C0
C0
ENDCHAR
STARTCHAR 0434
ENCODING 1076
SWIDTH 1000 0
DWIDTH 20 0
BBX 11 12 4 -1
BITMAP
0FC0
0FC0
08C0
18C0
18C0
18C0
30C0
30C0
FFE0
FFE0
C060
C060
ENDCHAR
STARTCHAR 0435
ENCODING 1077
SWIDTH 1000 0
DWIDTH 20 0
BBX 10 9 5 1
BITMAP
3F00
4080
C080
FFC0
FFC0
C000
C0C0
6180
1F00
ENDCHAR
STARTCHAR 0436
ENCODING 1078
SWIDTH 1000 0
DWIDTH 20 0
BBX 12 10 4 1
BITMAP
C630
C630
6660
76E0
1F80
36C0
6660
6660
C630
C630
ENDCHAR
STARTCHAR 0437
ENCODING 1079
SWIDTH 1000 0
DWIDTH 20 0
BBX 8 10 6 1
BITMAP
18
66
C3
03
3E
3E
03
03
C3
7C
ENDCHAR
STARTCHAR 0438
ENCODING 1080
SWIDTH 1000 0
DWIDTH 20 0
BBX 8 10 6 1
BITMAP
81
83
87
8F
9D
B9
F1
E1
C1
81
ENDCHAR
STARTCHAR 0439
ENCODING 1081
SWIDTH 1000 0
DWIDTH 20 0
BBX 8 13 6 1
BITMAP
42
3C
00
81
83
87
8F
9D
B9
F1
E1
C1
81
ENDCHAR
STARTCHAR 043A
ENCODING 1082
SWIDTH 1000 0
DWIDTH 20 0
BBX 9 10 6 1
BITMAP
8300
8300
8600
8E00
F800
EC00
8400
8600
8300
8180
ENDCHAR
STARTCHAR 043B
ENCODING 1083
SWIDTH 1000 0
DWIDTH 20 0
BBX 11 10 3 1
BITMAP
07E0
07E0
0460
0460
0460
0460
0C60
CC60
4C60
7860
ENDCHAR
STARTCHAR 043C
ENCODING 1084
SWIDTH 1000 0
DWIDTH 20 0
BBX 10 10 5 1
BITMAP
E1C0
E1C0
E1C0
F3C0
D3C0
D2C0
DEC0
CEC0
CCC0
CCC0
ENDCHAR
STARTCHAR 043D
ENCODING 1085
SWIDTH 1000 0
DWIDTH 20 0
BBX 8 10 6 1
BITMAP
81
81
81
81
FF
FF
81
81
81
81
ENDCHAR
STARTCHAR 043E
ENCODING 1086
SWIDTH 1000 0
DWIDTH 20 0
BBX 10 10 5 1
BITMAP
1E00
2180
4080
C0C0
C0C0
C0C0
C0C0
C0C0
6180
3F00
ENDCHAR
STARTCHAR 043F
ENCODING 1087
SWIDTH 1000 0
DWIDTH 20 0
BBX 8 10 6 1
BITMAP
FF
FF
81
81
81
81
81
81
81
81
ENDCHAR
STARTCHAR 0440
ENCODING 1088
SWIDTH 1000 0
DWIDTH 20 0
BBX 9 13 6 -2
BITMAP
BE00
E300
C180
C180
C080
8080
C180
C180
E300
DE00
C000
C000
C000
ENDCHAR
STARTCHAR 0441
ENCODING 1089
SWIDTH 1000 0
DWIDTH 20 0
BBX 10 10 5 1
BITMAP
3F00
7180
C080
C000
C000
C000
C000
40C0
6180
1E00
ENDCHAR
STARTCHAR 0442
ENCODING 1090
SWIDTH 1000 0
DWIDTH 20 0
BBX 8 10 6 1
BITMAP
FF
FF
18
18
18
18
18
18
18
18
ENDCHAR
STARTCHAR 0443
ENCODING 1091
SWIDTH 1000 0
DWIDTH 20 0
BBX 10 13 5 -2
BITMAP
C0C0
60C0
6180
3180
3100
1300
1A00
0E00
0E00
0C00
0C00
F800
F000
ENDCHAR
STARTCHAR 0444
ENCODING 1092
SWIDTH 1000 0
DWIDTH 20 0
BBX 12 17 4 -2
BITMAP
0600
0600
0600
0600
7FE0
CF30
C630
8610
8610
8610
8610
C630
CF30
7FE0
0600
0600
0600
ENDCHAR
STARTCHAR 0445
ENCODING 1093
SWIDTH 1000 0
DWIDTH 20 0
BBX 10 10 5 1
BITMAP
E1C0
6180
3300
1E00
0C00
1E00
3F00
7380
6180
C0C0
ENDCHAR
STARTCHAR 0446
ENCODING 1094
SWIDTH 1000 0
DWIDTH 20 0
BBX 10 12 6 -1
BITMAP
8300
8300
8300
8300
8300
8300
8300
8300
FFC0
FFC0
00C0
00C0
ENDCHAR
STARTCHAR 0447
ENCODING 1095
SWIDTH 1000 0
DWIDTH 20 0
BBX 9 10 5 1
BITMAP
C180
C180
C180
C180
4180
6380
3D80
0180
0180
0180
ENDCHAR
STARTCHAR 0448
ENCODING 1096
SWIDTH 1000 0
DWIDTH 20 0
BBX 12 10 4 1
BITMAP
8610
8610
8610
8610
8610
8610
8610
8610
FFF0
FFF0
ENDCHAR
STARTCHAR 0449
ENCODING 1097
SWIDTH 1000 0
DWIDTH 20 0
BBX 14 12 4 -1
BITMAP
8630
8630
8630
8630
8630
8630
8630
8630
FFFC
FFFC
000C
000C
ENDCHAR
STARTCHAR 044A
ENCODING 1098
SWIDTH 1000 0
DWIDTH 20 0
BBX 11 10 4 1
BITMAP
F000
F000
1000
1FC0
1FE0
1060
1020
1060
1FE0
1F80
ENDCHAR
STARTCHAR 044B
ENCODING 1099
SWIDTH 1000 0
DWIDTH 20 0
BBX 12 10 4 1
BITMAP
C030
C030
C030
FE30
FF30
C330
C1B0
C330
FF30
FE30
ENDCHAR
STARTCHAR 044C
ENCODING 1100
SWIDTH 1000 0
DWIDTH 20 0
BBX 9 10 6 1
BITMAP
8000
8000
8000
FE00
FF00
8300
8180
8300
FF00
FE00
ENDCHAR
STARTCHAR 044D
ENCODING 1101
SWIDTH 1000 0
DWIDTH 20 0
BBX 10 10 5 1
BITMAP
3E00
6180
4080
00C0
38C0
26C0
00C0
C080
6180
3E00
ENDCHAR
STARTCHAR 044E
ENCODING 1102
SWIDTH 1000 0
DWIDTH 20 0
BBX 13 10 4 1
BITMAP
83E0
8630
8C10
8818
F818
F818
8818
8C10
8630
83E0
ENDCHAR
STARTCHAR 044F
ENCODING 1103
SWIDTH 1000 0
DWIDTH 20 0
BBX 9 10 5 1
BITMAP
1F80
7F80
6180
6180
7F80
1F80
1180
3180
6180
C180
ENDCHAR
STARTCHAR 0451
ENCODING 1105
SWIDTH 1000 0
DWIDTH 20 0
BBX 10 13 5 1
BITMAP
2100
2100
0000
0000
3F00
4080
C080
FFC0
FFC0
C000
C0C0
6180
1F00
ENDCHAR
STARTCHAR 1E3E
ENCODING 7742
SWIDTH 500 0
DWIDTH 10 0
BBX 8 16 1 1
BITMAP
18
00
C3
C3
C3
E7
A5
A5
A5
A5
A5
BD
99
99
99
99
ENDCHAR
STARTCHAR 1E3F
ENCODING 7743
SWIDTH 500 0
DWIDTH 10 0
BBX 8 13 1 1
BITMAP
0C
10
00
80
F7
D9
99
99
99
99
99
99
99
ENDCHAR
STARTCHAR 1F70
ENCODING 8048
SWIDTH 500 0
DWIDTH 10 0
BBX 9 13 1 1
BITMAP
3000
1800
0000
0300
3F00
6700
C300
C300
C300
C300
C300
6700
3F80
ENDCHAR
STARTCHAR 1F71
ENCODING 8049
SWIDTH 500 0
DWIDTH 10 0
BBX 9 13 1 1
BITMAP
0C00
1800
0000
0300
3F00
6700
C300
C300
C300
C300
C300
6700
3F80
ENDCHAR
STARTCHAR 1F72
ENCODING 8050
SWIDTH 500 0
DWIDTH 10 0
BBX 8 13 1 1
BITMAP
30
18
00
00
7C
46
40
38
40
C0
C0
47
3C
ENDCHAR
STARTCHAR 1F73
ENCODING 8051
SWIDTH 500 0
DWIDTH 10 0
BBX 8 13 1 1
BITMAP
0C
18
00
00
7C
46
40
38
40
C0
C0
47
3C
ENDCHAR
STARTCHAR 2010
ENCODING 8208
SWIDTH 1000 0
DWIDTH 20 0
BBX 6 1 7 7
BITMAP
FC
ENDCHAR
STARTCHAR 2013
ENCODING 8211
SWIDTH 500 0
DWIDTH 10 0
BBX 4 1 3 7
BITMAP
F0
ENDCHAR
STARTCHAR 2014
ENCODING 8212
SWIDTH 1000 0
DWIDTH 20 0
BBX 16 1 2 7
BITMAP
FFFF
ENDCHAR
STARTCHAR 2015
ENCODING 8213
SWIDTH 1000 0
DWIDTH 20 0
BBX 16 1 2 7
BITMAP
FFFF
ENDCHAR
STARTCHAR 2016
ENCODING 8214
SWIDTH 1000 0
DWIDTH 20 0
BBX 6 20 7 -2
BITMAP
CC
CC
CC
CC
CC
CC
CC
CC
CC
CC
CC
CC
CC
CC
CC
CC
CC
CC
CC
CC
ENDCHAR
STARTCHAR 2018
ENCODING 8216
SWIDTH 1000 0
DWIDTH 20 0
BBX 2 5 16 12
BITMAP
40
40
80
C0
C0
ENDCHAR
STARTCHAR 2019
ENCODING 8217
SWIDTH 1000 0
DWIDTH 20 0
BBX 3 6 1 11
BITMAP
60
60
20
60
40
C0
ENDCHAR
STARTCHAR 201C
ENCODING 8220
SWIDTH 1000 0
DWIDTH 20 0
BBX 6 5 12 12
BITMAP
44
44
88
CC
CC
ENDCHAR
STARTCHAR 201D
ENCODING 8221
SWIDTH 1000 0
DWIDTH 20 0
BBX 7 6 1 11
BITMAP
66
66
22
66
44
CC
ENDCHAR
STARTCHAR 2020
ENCODING 8224
SWIDTH 1000 0
DWIDTH 20 0
BBX 8 18 6 -1
BITMAP
18
18
18
18
FF
F7
18
18
18
18
18
18
18
18
18
18
18
18
ENDCHAR
STARTCHAR 2021
ENCODING 8225
SWIDTH 1000 0
DWIDTH 20 0
BBX 8 19 6 -2
BITMAP
18
18
18
F7
FF
18
18
18
10
10
10
18
18
18
FF
F7
18
18
18
ENDCHAR
STARTCHAR 2022
ENCODING 8226
SWIDTH 500 0
DWIDTH 10 0
BBX 4 4 3 5
BITMAP
60
F0
F0
60
ENDCHAR
STARTCHAR 2025
ENCODING 8229
SWIDTH 1000 0
DWIDTH 20 0
BBX 12 2 4 7
BITMAP
C030
C030
ENDCHAR
STARTCHAR 2026
ENCODING 8230
SWIDTH 1000 0
DWIDTH 20 0
BBX 16 2 2 7
BITMAP
C183
C183
ENDCHAR
STARTCHAR 2030
ENCODING 8240
SWIDTH 1000 0
DWIDTH 20 0
BBX 18 18 1 -1
BITMAP
003000
702000
586000
C84000
888000
898000
C90000
5B0000
720000
04E380
0D2680
0934C0
193440
113440
2134C0
612680
40E380
800000
ENDCHAR
STARTCHAR 2032
ENCODING 8242
SWIDTH 1000 0
DWIDTH 20 0
BBX 3 6 1 11
BITMAP
60
40
40
40
40
80
ENDCHAR
STARTCHAR 2033
ENCODING 8243
SWIDTH 1000 0
DWIDTH 20 0
BBX 6 6 1 11
BITMAP
6C
4C
48
48
48
88
ENDCHAR
STARTCHAR 203B
ENCODING 8251
SWIDTH 1000 0
DWIDTH 20 0
BBX 16 16 2 -1
BITMAP
8181
C183
6186
300C
1818
0C30
0660
E3C7
E187
E3C7
0660
0C30
1818
318C
6186
C183
ENDCHAR
STARTCHAR 203C
ENCODING 8252
SWIDTH 500 0
DWIDTH 10 0
BBX 6 16 2 0
BITMAP
CC
CC
CC
CC
CC
CC
CC
CC
CC
CC
CC
CC
00
00
CC
CC
ENDCHAR
STARTCHAR 203E
ENCODING 8254
SWIDTH 1000 0
DWIDTH 20 0
BBX 20 1 0 17
BITMAP
FFFFF0
ENDCHAR
STARTCHAR 203F
ENCODING 8255
SWIDTH 500 0
DWIDTH 10 0
BBX 8 2 1 -2
BITMAP
81
7E
ENDCHAR
STARTCHAR 2042
ENCODING 8258
SWIDTH 500 0
DWIDTH 10 0
BBX 10 13 0 1
BITMAP
0800
1A00
0C00
0C00
1A00
0800
0000
2100
EDC0
3300
7380
ED40
2100
ENDCHAR
STARTCHAR 2047
ENCODING 8263
SWIDTH 500 0
DWIDTH 10 0
BBX 9 16 0 0
BITMAP
7380
5280
5E80
DE80
1880
1080
3180
2100
2300
2300
6300
6300
0000
0000
6300
6300
ENDCHAR
STARTCHAR 2048
ENCODING 8264
SWIDTH 500 0
DWIDTH 10 0
BBX 8 16 1 0
BITMAP
73
DB
9B
9B
1B
1B
33
33
63
63
43
43
00
00
63
63
ENDCHAR
STARTCHAR 2049
ENCODING 8265
SWIDTH 500 0
DWIDTH 10 0
BBX 8 16 1 0
BITMAP
CE
CB
D9
D1
C1
C3
C2
C6
C4
C4
CC
CC
00
00
CC
CC
ENDCHAR
STARTCHAR 2051
ENCODING 8273
SWIDTH 1000 0
DWIDTH 20 0
BBX 6 15 7 0
BITMAP
30
AC
78
78
A4
30
00
00
30
30
EC
30
68
A4
30
ENDCHAR
STARTCHAR 20AC
ENCODING 8364
SWIDTH 500 0
DWIDTH 10 0
BBX 8 14 1 1
BITMAP
1C
22
63
63
40
FC
40
40
FC
40
63
63
22
1C
ENDCHAR
STARTCHAR 2103
ENCODING 8451
SWIDTH 1000 0
DWIDTH 20 0
BBX 17 16 1 1
BITMAP
700000
90F800
8B8E00
970200
760300
0C0300
0C0000
0C0000
0C0000
0C0000
0C0000
0C0180
040300
060300
030600
00F800
ENDCHAR
STARTCHAR 210F
ENCODING 8463
SWIDTH 500 0
DWIDTH 10 0
BBX 9 14 0 1
BITMAP
1800
1800
1E00
7800
3000
3780
3980
3080
2180
6180
6180
6100
4100
C300
ENDCHAR
STARTCHAR 2113
ENCODING 8467
SWIDTH 500 0
DWIDTH 10 0
BBX 8 14 1 1
BITMAP
0E
1A
33
33
22
22
62
66
64
6C
79
31
F3
9E
ENDCHAR
STARTCHAR 2116
ENCODING 8470
SWIDTH 1000 0
DWIDTH 20 0
BBX 18 14 1 1
BITMAP
E10000
E10000
E10000
F10000
D11C00
D92200
C92200
C96300
CD6300
C56300
C76300
C32200
C322C0
C31CC0
ENDCHAR
STARTCHAR 2121
ENCODING 8481
SWIDTH 1000 0
DWIDTH 20 0
BBX 18 14 1 1
BITMAP
FE0000
100000
100000
11E400
110400
110400
110400
110400
11E400
110400
110400
110400
110400
11F7C0
ENDCHAR
STARTCHAR 2127
ENCODING 8487
SWIDTH 500 0
DWIDTH 10 0
BBX 8 14 1 1
BITMAP
FF
3C
24
66
C3
C3
C3
C3
C3
C3
C3
42
66
3C
ENDCHAR
STARTCHAR 212B
ENCODING 8491
SWIDTH 1000 0
DWIDTH 20 0
BBX 12 16 4 1
BITMAP
0600
0900
0900
0600
0600
0F00
0F00
1980
1980
30C0
30C0
3FC0
6060
4020
C030
8010
ENDCHAR
STARTCHAR 2135
ENCODING 8501
SWIDTH 500 0
DWIDTH 10 0
BBX 8 15 1 0
BITMAP
42
C6
C3
C7
45
68
78
DC
C6
C3
43
43
43
C3
02
ENDCHAR
STARTCHAR 2153
ENCODING 8531
SWIDTH 500 0
DWIDTH 10 0
BBX 8 18 1 -2
BITMAP
61
E2
62
64
64
64
68
68
17
19
29
21
26
41
41
89
89
07
ENDCHAR
STARTCHAR 2154
ENCODING 8532
SWIDTH 500 0
DWIDTH 10 0
BBX 8 19 1 -2
BITMAP
61
92
92
12
24
64
C8
88
F8
17
19
29
21
66
41
41
89
89
07
ENDCHAR
STARTCHAR 2155
ENCODING 8533
SWIDTH 500 0
DWIDTH 10 0
BBX 8 17 1 -1
BITMAP
61
E2
62
64
64
68
68
68
1F
18
28
2F
49
41
41
89
87
ENDCHAR
STARTCHAR 2160
ENCODING 8544
SWIDTH 1000 0
DWIDTH 20 0
BBX 2 14 9 1
BITMAP
C0
C0
C0
C0
C0
C0
C0
C0
C0
C0
C0
C0
C0
C0
ENDCHAR
STARTCHAR 2161
ENCODING 8545
SWIDTH 1000 0
DWIDTH 20 0
BBX 8 14 6 1
BITMAP
C3
C3
C3
C3
C3
C3
C3
C3
C3
C3
C3
C3
C3
C3
ENDCHAR
STARTCHAR 2162
ENCODING 8546
SWIDTH 1000 0
DWIDTH 20 0
BBX 12 14 4 1
BITMAP
C630
C630
C630
C630
C630
C630
C630
C630
C630
C630
C630
C630
C630
C630
ENDCHAR
STARTCHAR 2163
ENCODING 8547
SWIDTH 1000 0
DWIDTH 20 0
BBX 15 14 3 1
BITMAP
D806
CC06
CC0C
CC0C
C60C
C618
C618
C318
C330
C130
C1A0
C1E0
C0E0
C0C0
ENDCHAR
STARTCHAR 2164
ENCODING 8548
SWIDTH 1000 0
DWIDTH 20 0
BBX 12 14 4 1
BITMAP
C030
C030
C030
6060
6060
30C0
30C0
30C0
1980
1980
0900
0F00
0F00
0600
ENDCHAR
STARTCHAR 2165
ENCODING 8549
SWIDTH 1000 0
DWIDTH 20 0
BBX 15 14 2 1
BITMAP
C036
C066
6066
6066
60C6
30C6
30C6
3186
1986
1906
0B06
0F06
0E06
0606
ENDCHAR
STARTCHAR 2166
ENCODING 8550
SWIDTH 1000 0
DWIDTH 20 0
BBX 17 14 1 1
BITMAP
C0C980
60C980
60C980
608980
218980
318980
310980
330980
130980
1B0980
1A0980
0E0980
0E0980
0C0980
ENDCHAR
STARTCHAR 2167
ENCODING 8551
SWIDTH 1000 0
DWIDTH 20 0
BBX 17 14 1 1
BITMAP
C1B480
C1B480
413480
633480
633480
633480
223480
363480
363480
363480
143480
143480
1C3480
1C3480
ENDCHAR
STARTCHAR 2168
ENCODING 8552
SWIDTH 1000 0
DWIDTH 20 0
BBX 15 14 3 1
BITMAP
C60C
C60C
C318
C330
C1B0
C0E0
C0E0
C0E0
C1B0
C330
C318
C61C
CE0C
CC06
ENDCHAR
STARTCHAR 2169
ENCODING 8553
SWIDTH 1000 0
DWIDTH 20 0
BBX 13 14 3 1
BITMAP
7038
3030
1860
0CC0
0CC0
0780
0300
0780
0F80
0CC0
1860
3030
7038
E018
ENDCHAR
STARTCHAR 216A
ENCODING 8554
SWIDTH 1000 0
DWIDTH 20 0
BBX 15 14 2 1
BITMAP
60C6
60C6
3186
1986
1B06
0E06
0E06
0E06
1B06
1986
3186
60C6
60E6
C066
ENDCHAR
STARTCHAR 216B
ENCODING 8555
SWIDTH 1000 0
DWIDTH 20 0
BBX 16 14 2 1
BITMAP
C133
6333
6233
3633
3433
1C33
1833
1C33
3C33
3633
6233
6333
C1B3
81B3
ENDCHAR
STARTCHAR 2170
ENCODING 8560
SWIDTH 1000 0
DWIDTH 20 0
BBX 2 14 9 1
BITMAP
C0
C0
00
00
C0
C0
C0
C0
C0
C0
C0
C0
C0
C0
ENDCHAR
STARTCHAR 2171
ENCODING 8561
SWIDTH 1000 0
DWIDTH 20 0
BBX 8 14 6 1
BITMAP
C3
C3
00
00
C3
C3
C3
C3
C3
C3
C3
C3
C3
C3
ENDCHAR
STARTCHAR 2172
ENCODING 8562
SWIDTH 1000 0
DWIDTH 20 0
BBX 10 14 5 1
BITMAP
CCC0
CCC0
0000
0000
8C40
8C40
8C40
8C40
8C40
8C40
8C40
8C40
8C40
8C40
ENDCHAR
STARTCHAR 2173
ENCODING 8563
SWIDTH 1000 0
DWIDTH 20 0
BBX 13 14 4 1
BITMAP
C000
C000
0000
0000
CC18
CC18
C430
C630
C620
C360
C360
C1C0
C1C0
C180
ENDCHAR
STARTCHAR 2174
ENCODING 8564
SWIDTH 1000 0
DWIDTH 20 0
BBX 10 10 5 1
BITMAP
C0C0
C0C0
6180
6180
2100
3300
3300
1E00
1E00
0C00
ENDCHAR
STARTCHAR 2175
ENCODING 8565
SWIDTH 1000 0
DWIDTH 20 0
BBX 13 14 3 1
BITMAP
0018
0018
0000
0000
C198
C198
6118
6318
2318
3618
3618
1C18
1C18
0C18
ENDCHAR
STARTCHAR 2176
ENCODING 8566
SWIDTH 1000 0
DWIDTH 20 0
BBX 15 14 2 1
BITMAP
0026
0026
0000
0000
C126
4326
6326
6226
2626
3626
3426
1C26
1C26
1826
ENDCHAR
STARTCHAR 2177
ENCODING 8567
SWIDTH 1000 0
DWIDTH 20 0
BBX 16 14 2 1
BITMAP
006B
006B
0000
0000
8369
C269
C669
4669
6469
6C69
2C69
3869
3869
1869
ENDCHAR
STARTCHAR 2178
ENCODING 8568
SWIDTH 1000 0
DWIDTH 20 0
BBX 13 14 4 1
BITMAP
C000
C000
0000
0000
CC38
C630
C660
C3C0
C180
C3C0
C360
C660
CC30
D818
ENDCHAR
STARTCHAR 2179
ENCODING 8569
SWIDTH 1000 0
DWIDTH 20 0
BBX 10 10 5 1
BITMAP
E1C0
6180
3300
1E00
0C00
1E00
3F00
7380
6180
C0C0
ENDCHAR
STARTCHAR 217A
ENCODING 8570
SWIDTH 1000 0
DWIDTH 20 0
BBX 13 14 3 1
BITMAP
0018
0018
0000
0000
E198
6318
3318
1E18
0C18
1E18
3618
3318
6198
C0D8
ENDCHAR
STARTCHAR 217B
ENCODING 8571
SWIDTH 1000 0
DWIDTH 20 0
BBX 15 14 2 1
BITMAP
0032
0032
0000
0000
6332
6232
3632
1C32
1C32
1C32
3632
2632
6332
C1B2
ENDCHAR
STARTCHAR 2190
ENCODING 8592
SWIDTH 1000 0
DWIDTH 20 0
BBX 18 7 1 4
BITMAP
0C0000
180000
700000
FFFFC0
700000
180000
0C0000
ENDCHAR
STARTCHAR 2191
ENCODING 8593
SWIDTH 1000 0
DWIDTH 20 0
BBX 8 17 6 0
BITMAP
18
3C
3C
5A
DB
99
18
18
18
18
18
18
18
18
18
18
18
ENDCHAR
STARTCHAR 2192
ENCODING 8594
SWIDTH 1000 0
DWIDTH 20 0
BBX 18 7 1 4
BITMAP
000C00
000600
000380
FFFFC0
000380
000600
000C00
ENDCHAR
STARTCHAR 2193
ENCODING 8595
SWIDTH 1000 0
DWIDTH 20 0
BBX 8 17 6 -2
BITMAP
18
18
18
18
18
18
18
18
18
18
18
99
DB
5A
3C
3C
18
ENDCHAR
STARTCHAR 2194
ENCODING 8596
SWIDTH 500 0
DWIDTH 10 0
BBX 10 7 0 4
BITMAP
3300
2100
6180
FFC0
6180
2100
3300
ENDCHAR
STARTCHAR 2196
ENCODING 8598
SWIDTH 500 0
DWIDTH 10 0
BBX 8 15 1 0
BITMAP
20
78
7C
52
D1
98
08
0C
0C
04
06
02
02
03
01
ENDCHAR
STARTCHAR 2197
ENCODING 8599
SWIDTH 500 0
DWIDTH 10 0
BBX 8 15 1 0
BITMAP
04
1E
3E
4A
8B
19
10
30
30
20
60
40
40
C0
80
ENDCHAR
STARTCHAR 2198
ENCODING 8600
SWIDTH 500 0
DWIDTH 10 0
BBX 8 15 1 0
BITMAP
80
C0
40
60
60
20
30
30
12
19
0A
6A
3E
0C
04
ENDCHAR
STARTCHAR 2199
ENCODING 8601
SWIDTH 500 0
DWIDTH 10 0
BBX 8 15 1 0
BITMAP
01
03
02
06
06
04
0C
0C
88
98
50
56
7C
30
20
ENDCHAR
STARTCHAR 21C4
ENCODING 8644
SWIDTH 500 0
DWIDTH 10 0
BBX 8 15 1 0
BITMAP
0C
04
02
FF
02
04
0C
00
30
20
40
FF
40
20
30
ENDCHAR
STARTCHAR 21D2
ENCODING 8658
SWIDTH 1000 0
DWIDTH 20 0
BBX 17 10 1 3
BITMAP
000800
000400
FFFE00
000100
000080
000080
000100
FFFE00
000400
000800
ENDCHAR
STARTCHAR 21D4
ENCODING 8660
SWIDTH 1000 0
DWIDTH 20 0
BBX 18 12 1 2
BITMAP
040800
0C0C00
180600
3FFF00
600180
C000C0
C000C0
600180
3FFF00
180600
0C0C00
040800
ENDCHAR
STARTCHAR 21E6
ENCODING 8678
SWIDTH 500 0
DWIDTH 10 0
BBX 8 7 1 4
BITMAP
20
60
5F
81
5F
60
20
ENDCHAR
STARTCHAR 21E7
ENCODING 8679
SWIDTH 500 0
DWIDTH 10 0
BBX 6 16 2 0
BITMAP
30
50
48
84
FC
30
30
30
30
30
30
30
30
30
30
30
ENDCHAR
STARTCHAR 21E8
ENCODING 8680
SWIDTH 500 0
DWIDTH 10 0
BBX 8 7 1 4
BITMAP
08
0C
FA
81
FA
0C
08
ENDCHAR
STARTCHAR 21E9
ENCODING 8681
SWIDTH 500 0
DWIDTH 10 0
BBX 6 16 2 -1
BITMAP
30
30
30
30
30
30
30
30
30
30
30
FC
84
48
50
30
ENDCHAR
STARTCHAR 2200
ENCODING 8704
SWIDTH 1000 0
DWIDTH 20 0
BBX 16 17 2 -1
BITMAP
8001
C003
4002
6006
2004
300C
1FF8
1818
0810
0C30
0420
0660
0240
03C0
0180
0180
0100
ENDCHAR
STARTCHAR 2202
ENCODING 8706
SWIDTH 1000 0
DWIDTH 20 0
BBX 9 16 5 0
BITMAP
1E00
3300
2100
0180
0180
0180
3C80
6280
C380
C180
8180
8100
8300
C200
C600
3800
ENDCHAR
STARTCHAR 2203
ENCODING 8707
SWIDTH 1000 0
DWIDTH 20 0
BBX 14 15 3 0
BITMAP
FFFC
0004
0004
0004
0004
0004
0004
FFFC
0004
0004
0004
0004
0004
0004
FFFC
ENDCHAR
STARTCHAR 2205
ENCODING 8709
SWIDTH 500 0
DWIDTH 10 0
BBX 8 11 1 3
BITMAP
03
3E
46
8F
89
99
91
F1
62
7C
C0
ENDCHAR
STARTCHAR 2207
ENCODING 8711
SWIDTH 1000 0
DWIDTH 20 0
BBX 16 14 2 0
BITMAP
FFFF
6002
6006
3004
300C
1808
0810
0C30
0420
0660
0240
03C0
0180
0180
ENDCHAR
STARTCHAR 2208
ENCODING 8712
SWIDTH 1000 0
DWIDTH 20 0
BBX 16 15 2 0
BITMAP
07FF
1800
2000
4000
C000
C000
8000
FFFF
8000
C000
C000
4000
2000
1800
07FF
ENDCHAR
STARTCHAR 2209
ENCODING 8713
SWIDTH 500 0
DWIDTH 10 0
BBX 8 14 1 1
BITMAP
04
1F
74
4C
CC
88
88
FF
98
90
D0
50
70
3F
ENDCHAR
STARTCHAR 220B
ENCODING 8715
SWIDTH 1000 0
DWIDTH 20 0
BBX 16 15 2 0
BITMAP
FFE0
0018
0004
0002
0003
0003
0001
FFFF
0001
0003
0003
0002
0004
0018
FFE0
ENDCHAR
STARTCHAR 2212
ENCODING 8722
SWIDTH 500 0
DWIDTH 10 0
BBX 8 1 1 7
BITMAP
FF
ENDCHAR
STARTCHAR 2213
ENCODING 8723
SWIDTH 500 0
DWIDTH 10 0
BBX 8 14 1 0
BITMAP
FF
00
00
18
18
18
18
18
FF
18
18
18
18
18
ENDCHAR
STARTCHAR 221A
ENCODING 8730
SWIDTH 1000 0
DWIDTH 20 0
BBX 19 19 1 -1
BITMAP
003FE0
002000
002000
006000
004000
004000
00C000
008000
018000
018000
210000
230000
730000
520000
DE0000
8C0000
8C0000
0C0000
080000
ENDCHAR
STARTCHAR 221D
ENCODING 8733
SWIDTH 1000 0
DWIDTH 20 0
BBX 16 8 2 4
BITMAP
781C
C462
8241
8180
8180
83C0
C663
7C1E
ENDCHAR
STARTCHAR 221E
ENCODING 8734
SWIDTH 1000 0
DWIDTH 20 0
BBX 18 8 1 4
BITMAP
3C0F00
633180
412180
C0C0C0
C0C0C0
41E080
633180
1E1F00
ENDCHAR
STARTCHAR 221F
ENCODING 8735
SWIDTH 1000 0
DWIDTH 20 0
BBX 17 16 2 0
BITMAP
C00000
C00000
C00000
C00000
C00000
C00000
C00000
C00000
C00000
C00000
C00000
C00000
C00000
C00000
C00000
FFFF80
ENDCHAR
STARTCHAR 2220
ENCODING 8736
SWIDTH 1000 0
DWIDTH 20 0
BBX 17 15 1 1
BITMAP
000180
000300
000600
000C00
001800
003000
006000
00C000
018000
030000
060000
0C0000
180000
300000
FFFF80
ENDCHAR
STARTCHAR 2225
ENCODING 8741
SWIDTH 1000 0
DWIDTH 20 0
BBX 10 17 5 -1
BITMAP
0640
0440
04C0
0C80
0880
1980
1900
1300
3300
2200
2600
6400
4400
4C00
C800
8800
9800
ENDCHAR
STARTCHAR 2226
ENCODING 8742
SWIDTH 500 0
DWIDTH 10 0
BBX 8 18 1 -2
BITMAP
19
19
13
13
12
B2
62
26
3C
2C
66
47
4D
48
C8
88
98
80
ENDCHAR
STARTCHAR 2227
ENCODING 8743
SWIDTH 1000 0
DWIDTH 20 0
BBX 16 17 2 -1
BITMAP
0100
0180
0180
03C0
0240
0660
0420
0C30
0810
1818
1008
300C
2004
6006
4002
C003
8001
ENDCHAR
STARTCHAR 2228
ENCODING 8744
SWIDTH 1000 0
DWIDTH 20 0
BBX 16 17 2 -1
BITMAP
8001
C003
4002
6006
2004
300C
1008
1818
0810
0C30
0420
0660
0240
03C0
0180
0180
0100
ENDCHAR
STARTCHAR 2229
ENCODING 8745
SWIDTH 1000 0
DWIDTH 20 0
BBX 16 16 2 0
BITMAP
07E0
1818
300C
6004
4002
4002
4002
C003
C003
C003
C003
C003
C003
C003
C003
C003
ENDCHAR
STARTCHAR 222A
ENCODING 8746
SWIDTH 1000 0
DWIDTH 20 0
BBX 16 16 2 0
BITMAP
C003
C003
C003
C003
C003
C003
C003
C003
C003
4002
4002
4002
2004
300C
1818
07E0
ENDCHAR
STARTCHAR 222B
ENCODING 8747
SWIDTH 1000 0
DWIDTH 20 0
BBX 10 17 5 -1
BITMAP
0380
06C0
0440
0400
0400
0400
0400
0C00
0C00
0C00
0C00
0800
0800
0800
8800
D800
7000
ENDCHAR
STARTCHAR 222C
ENCODING 8748
SWIDTH 1000 0
DWIDTH 20 0
BBX 16 17 2 -1
BITMAP
038E
0489
04D9
0C18
0C10
0C10
0810
0810
0810
0810
0810
0830
0830
1830
9B20
9120
71C0
ENDCHAR
STARTCHAR 222E
ENCODING 8750
SWIDTH 1000 0
DWIDTH 20 0
BBX 10 17 5 -1
BITMAP
0380
06C0
0440
0400
0400
0400
1E00
2D00
2D00
2D00
1E00
0800
0800
0800
8800
D800
7000
ENDCHAR
STARTCHAR 2234
ENCODING 8756
SWIDTH 1000 0
DWIDTH 20 0
BBX 12 13 4 1
BITMAP
0600
0600
0600
0000
0000
0000
0000
0000
0000
0000
C030
C030
C030
ENDCHAR
STARTCHAR 2235
ENCODING 8757
SWIDTH 1000 0
DWIDTH 20 0
BBX 12 13 4 1
BITMAP
C030
C030
C030
0000
0000
0000
0000
0000
0000
0000
0600
0600
0600
ENDCHAR
STARTCHAR 223D
ENCODING 8765
SWIDTH 1000 0
DWIDTH 20 0
BBX 17 8 2 4
BITMAP
781E00
C46300
84C100
808180
810180
830100
C62300
783E00
ENDCHAR
STARTCHAR 2243
ENCODING 8771
SWIDTH 500 0
DWIDTH 10 0
BBX 8 6 1 5
BITMAP
F0
8F
00
00
00
FF
ENDCHAR
STARTCHAR 2245
ENCODING 8773
SWIDTH 500 0
DWIDTH 10 0
BBX 8 10 1 3
BITMAP
60
99
0F
00
00
FF
00
00
00
FF
ENDCHAR
STARTCHAR 2248
ENCODING 8776
SWIDTH 500 0
DWIDTH 10 0
BBX 8 7 1 4
BITMAP
E0
99
0E
00
60
99
0F
ENDCHAR
STARTCHAR 2252
ENCODING 8786
SWIDTH 1000 0
DWIDTH 20 0
BBX 14 13 3 1
BITMAP
1800
1800
0000
0000
FFFC
0000
0000
0000
FFFC
0000
0000
0060
0060
ENDCHAR
STARTCHAR 2260
ENCODING 8800
SWIDTH 1000 0
DWIDTH 20 0
BBX 14 14 3 1
BITMAP
0060
0040
00C0
00C0
0080
FFFC
0100
0300
0200
FFFC
0400
0C00
0800
1800
ENDCHAR
STARTCHAR 2261
ENCODING 8801
SWIDTH 1000 0
DWIDTH 20 0
BBX 14 10 3 3
BITMAP
FFFC
0000
0000
0000
0000
FFFC
0000
0000
0000
FFFC
ENDCHAR
STARTCHAR 2262
ENCODING 8802
SWIDTH 500 0
DWIDTH 10 0
BBX 8 15 1 0
BITMAP
06
04
04
FF
08
08
08
FF
10
10
30
FF
20
20
60
ENDCHAR
STARTCHAR 2266
ENCODING 8806
SWIDTH 1000 0
DWIDTH 20 0
BBX 14 15 3 0
BITMAP
001C
00F0
0380
1E00
F000
3800
0700
01E0
003C
0004
0000
FFFC
0000
0000
FFFC
ENDCHAR
STARTCHAR 2267
ENCODING 8807
SWIDTH 1000 0
DWIDTH 20 0
BBX 14 15 3 0
BITMAP
E000
3C00
0700
01E0
003C
0070
0380
1E00
F000
8000
0000
FFFC
0000
0000
FFFC
ENDCHAR
STARTCHAR 226A
ENCODING 8810
SWIDTH 1000 0
DWIDTH 20 0
BBX 15 18 2 -1
BITMAP
0062
00C4
0198
0330
0660
08C0
1180
6300
C600
C600
6300
1180
08C0
0660
0330
0198
00C4
0062
ENDCHAR
STARTCHAR 226B
ENCODING 8811
SWIDTH 1000 0
DWIDTH 20 0
BBX 15 18 3 -1
BITMAP
8C00
4600
3300
1980
0CC0
0620
0310
018C
00C6
00C6
018C
0310
0620
0CC0
1980
3300
4600
8C00
ENDCHAR
STARTCHAR 2276
ENCODING 8822
SWIDTH 500 0
DWIDTH 10 0
BBX 8 15 1 0
BITMAP
03
0E
38
60
E0
38
0E
C3
70
1C
07
0E
38
E0
80
ENDCHAR
STARTCHAR 2277
ENCODING 8823
SWIDTH 500 0
DWIDTH 10 0
BBX 8 15 1 0
BITMAP
C0
70
1C
06
07
1C
70
C3
0E
38
E0
70
1C
07
01
ENDCHAR
STARTCHAR 2282
ENCODING 8834
SWIDTH 1000 0
DWIDTH 20 0
BBX 16 15 2 0
BITMAP
07FF
1800
2000
4000
C000
8000
8000
8000
8000
8000
C000
4000
2000
1800
07FF
ENDCHAR
STARTCHAR 2283
ENCODING 8835
SWIDTH 1000 0
DWIDTH 20 0
BBX 16 15 2 0
BITMAP
FFE0
0018
0004
0002
0003
0001
0001
0001
0001
0001
0003
0002
0004
0018
FFE0
ENDCHAR
STARTCHAR 2284
ENCODING 8836
SWIDTH 500 0
DWIDTH 10 0
BBX 8 14 1 1
BITMAP
06
1F
74
4C
CC
88
88
88
98
98
D0
50
70
3F
ENDCHAR
STARTCHAR 2285
ENCODING 8837
SWIDTH 500 0
DWIDTH 10 0
BBX 8 15 1 0
BITMAP
04
FC
0E
0A
0B
19
19
11
11
11
33
32
2C
F8
60
ENDCHAR
STARTCHAR 2286
ENCODING 8838
SWIDTH 1000 0
DWIDTH 20 0
BBX 16 15 2 0
BITMAP
1FFF
3000
4000
C000
8000
8000
8000
C000
4000
3000
1FFF
0000
0000
0000
FFFF
ENDCHAR
STARTCHAR 2287
ENCODING 8839
SWIDTH 1000 0
DWIDTH 20 0
BBX 16 15 2 0
BITMAP
FFF8
000C
0002
0003
0001
0001
0001
0003
0002
000C
FFF8
0000
0000
0000
FFFF
ENDCHAR
STARTCHAR 228A
ENCODING 8842
SWIDTH 500 0
DWIDTH 10 0
BBX 8 14 1 0
BITMAP
3F
40
C0
80
80
80
C0
40
3F
00
08
08
FF
10
ENDCHAR
STARTCHAR 228B
ENCODING 8843
SWIDTH 500 0
DWIDTH 10 0
BBX 8 14 1 0
BITMAP
FC
02
03
01
01
01
03
02
FC
00
08
08
FF
10
ENDCHAR
STARTCHAR 2295
ENCODING 8853
SWIDTH 500 0
DWIDTH 10 0
BBX 8 9 1 3
BITMAP
3C
42
91
91
FF
91
91
42
3C
ENDCHAR
STARTCHAR 2296
ENCODING 8854
SWIDTH 500 0
DWIDTH 10 0
BBX 9 9 1 3
BITMAP
3C00
4200
8100
8100
FE80
8100
8100
4200
3C00
ENDCHAR
STARTCHAR 2297
ENCODING 8855
SWIDTH 500 0
DWIDTH 10 0
BBX 8 9 1 3
BITMAP
3C
42
81
A5
99
99
A5
43
3C
ENDCHAR
STARTCHAR 22A5
ENCODING 8869
SWIDTH 1000 0
DWIDTH 20 0
BBX 18 16 1 0
BITMAP
00C000
00C000
00C000
00C000
00C000
00C000
00C000
00C000
00C000
00C000
00C000
00C000
00C000
00C000
00C000
FFFFC0
ENDCHAR
STARTCHAR 22BF
ENCODING 8895
SWIDTH 1000 0
DWIDTH 20 0
BBX 16 16 2 0
BITMAP
0001
0003
0007
000F
001B
0033
0063
00C3
0183
0303
0603
0C03
1803
3003
6003
FFFF
ENDCHAR
STARTCHAR 22DA
ENCODING 8922
SWIDTH 500 0
DWIDTH 10 0
BBX 8 17 1 -1
BITMAP
01
07
1C
E0
70
0E
03
00
FF
00
C0
70
0E
07
38
E0
80
ENDCHAR
STARTCHAR 22DB
ENCODING 8923
SWIDTH 500 0
DWIDTH 10 0
BBX 8 17 1 -1
BITMAP
80
E0
38
07
0E
70
C0
00
FF
00
03
0E
70
E0
1C
07
01
ENDCHAR
STARTCHAR 2305
ENCODING 8965
SWIDTH 500 0
DWIDTH 10 0
BBX 8 10 1 2
BITMAP
FF
00
18
18
3C
24
24
66
42
C3
ENDCHAR
STARTCHAR 2306
ENCODING 8966
SWIDTH 500 0
DWIDTH 10 0
BBX 8 13 1 1
BITMAP
FF
00
00
FF
00
18
18
3C
24
24
66
42
C3
ENDCHAR
STARTCHAR 2312
ENCODING 8978
SWIDTH 1000 0
DWIDTH 20 0
BBX 18 4 1 12
BITMAP
07F800
380700
600180
800040
ENDCHAR
STARTCHAR 2318
ENCODING 8984
SWIDTH 1000 0
DWIDTH 20 0
BBX 18 19 1 -2
BITMAP
780780
C804C0
840840
840840
C408C0
7FFF80
040800
040800
040800
040800
040800
040800
040800
7FFF80
C408C0
840840
840840
C80480
780700
ENDCHAR
STARTCHAR 23BE
ENCODING 9150
SWIDTH 1000 0
DWIDTH 20 0
BBX 10 20 10 -2
BITMAP
FFC0
8000
8000
8000
8000
8000
8000
8000
8000
8000
8000
8000
8000
8000
8000
8000
8000
8000
8000
8000
ENDCHAR
STARTCHAR 23BF
ENCODING 9151
SWIDTH 1000 0
DWIDTH 20 0
BBX 10 20 10 -2
BITMAP
8000
8000
8000
8000
8000
8000
8000
8000
8000
8000
8000
8000
8000
8000
8000
8000
8000
8000
8000
FFC0
ENDCHAR
STARTCHAR 23C0
ENCODING 9152
SWIDTH 1000 0
DWIDTH 20 0
BBX 16 20 2 -2
BITMAP
0100
0100
0180
0F70
1108
2104
4102
4102
8102
8101
8101
8102
4102
4102
2104
1108
0D30
03C0
0100
0100
ENDCHAR
STARTCHAR 23C1
ENCODING 9153
SWIDTH 1000 0
DWIDTH 20 0
BBX 20 20 0 -2
BITMAP
FFFFF0
004000
004000
03FC00
044200
084100
104080
104080
204080
204040
204040
204080
104080
104080
084100
044200
034C00
00F000
004000
004000
ENDCHAR
STARTCHAR 23C2
ENCODING 9154
SWIDTH 1000 0
DWIDTH 20 0
BBX 20 20 0 -2
BITMAP
004000
004000
006000
03DC00
044200
084100
104080
104080
204080
204040
204040
204080
104080
104080
084100
044200
03DC00
006000
004000
FFFFF0
ENDCHAR
STARTCHAR 23C3
ENCODING 9155
SWIDTH 1000 0
DWIDTH 20 0
BBX 16 20 2 -2
BITMAP
0100
0100
0100
0180
0180
0340
0520
0520
0910
0910
1108
2108
2104
4102
4102
8101
FFFF
0100
0100
0100
ENDCHAR
STARTCHAR 23C4
ENCODING 9156
SWIDTH 1000 0
DWIDTH 20 0
BBX 20 20 0 -2
BITMAP
FFFFF0
004000
004000
006000
006000
00D000
015000
014800
024400
024400
044200
084200
084100
104080
104080
204040
3FFFC0
004000
004000
004000
ENDCHAR
STARTCHAR 23C5
ENCODING 9157
SWIDTH 1000 0
DWIDTH 20 0
BBX 20 20 0 -2
BITMAP
004000
004000
004000
006000
006000
00D000
014800
014800
024400
024400
044200
084200
084100
104080
104080
204040
3FFFC0
004000
004000
FFFFF0
ENDCHAR
STARTCHAR 23C6
ENCODING 9158
SWIDTH 1000 0
DWIDTH 20 0
BBX 18 20 1 -2
BITMAP
008000
008000
008000
008000
008000
008000
008000
008000
3E8000
C18000
006040
009F80
008000
008000
008000
008000
008000
008000
008000
008000
ENDCHAR
STARTCHAR 23C7
ENCODING 9159
SWIDTH 1000 0
DWIDTH 20 0
BBX 20 20 0 -2
BITMAP
FFFFF0
004000
004000
004000
004000
004000
004000
004000
1F4000
60C000
003020
004FC0
004000
004000
004000
004000
004000
004000
004000
004000
ENDCHAR
STARTCHAR 23C8
ENCODING 9160
SWIDTH 1000 0
DWIDTH 20 0
BBX 20 20 0 -2
BITMAP
004000
004000
004000
004000
004000
004000
004000
004000
3F4000
40C000
003020
004FC0
004000
004000
004000
004000
004000
004000
004000
FFFFF0
ENDCHAR
STARTCHAR 23C9
ENCODING 9161
SWIDTH 1000 0
DWIDTH 20 0
BBX 20 20 0 -2
BITMAP
FFFFF0
004000
004000
004000
004000
004000
004000
004000
004000
004000
004000
004000
004000
004000
004000
004000
004000
004000
004000
004000
ENDCHAR
STARTCHAR 23CA
ENCODING 9162
SWIDTH 1000 0
DWIDTH 20 0
BBX 20 20 0 -2
BITMAP
004000
004000
004000
004000
004000
004000
004000
004000
004000
004000
004000
004000
004000
004000
004000
004000
004000
004000
004000
FFFFF0
ENDCHAR
STARTCHAR 23CB
ENCODING 9163
SWIDTH 1000 0
DWIDTH 20 0
BBX 10 20 0 -2
BITMAP
FFC0
0040
0040
0040
0040
0040
0040
0040
0040
0040
0040
0040
0040
0040
0040
0040
0040
0040
0040
0040
ENDCHAR
STARTCHAR 23CC
ENCODING 9164
SWIDTH 1000 0
DWIDTH 20 0
BBX 10 20 0 -2
BITMAP
0040
0040
0040
0040
0040
0040
0040
0040
0040
0040
0040
0040
0040
0040
0040
0040
0040
0040
0040
FFC0
ENDCHAR
STARTCHAR 23CE
ENCODING 9166
SWIDTH 1000 0
DWIDTH 20 0
BBX 16 17 2 -1
BITMAP
003F
0021
0021
0021
0021
0421
0C21
1421
27E1
4001
8001
8003
4006
27FC
1400
0C00
0400
ENDCHAR
STARTCHAR 2423
ENCODING 9251
SWIDTH 1000 0
DWIDTH 20 0
BBX 16 4 2 0
BITMAP
8001
8001
8001
FFFF
ENDCHAR
STARTCHAR 2460
ENCODING 9312
SWIDTH 1000 0
DWIDTH 20 0
BBX 18 19 1 -2
BITMAP
03F000
0C0C00
100200
20C100
43C080
82C040
80C040
80C040
80C040
80C040
80C040
80C040
80C040
80C040
40C080
20C100
100200
0C0C00
03F000
ENDCHAR
STARTCHAR 2461
ENCODING 9313
SWIDTH 1000 0
DWIDTH 20 0
BBX 18 18 1 -1
BITMAP
03F000
0C0C00
300200
21E100
431880
860840
860840
801840
803040
806040
818040
830040
820040
47FC80
27FD00
100200
0C0C00
03F000
ENDCHAR
STARTCHAR 2462
ENCODING 9314
SWIDTH 1000 0
DWIDTH 20 0
BBX 18 19 1 -2
BITMAP
03F000
0C0C00
300200
61E100
461880
861840
801840
801040
81E040
801840
800840
800C40
8C0C40
860840
461880
21E100
100200
0C0C00
03F000
ENDCHAR
STARTCHAR 2463
ENCODING 9315
SWIDTH 1000 0
DWIDTH 20 0
BBX 18 19 1 -2
BITMAP
03F000
0C0C00
100200
206100
406080
80E040
81A040
812040
832040
862040
842040
8C2040
8FFC40
802040
402080
202100
100200
0C0C00
03F000
ENDCHAR
STARTCHAR 2464
ENCODING 9316
SWIDTH 1000 0
DWIDTH 20 0
BBX 18 19 1 -2
BITMAP
03F000
0C0C00
300200
63F900
420080
860040
860040
86F040
871840
861840
800840
800C40
800840
861840
421080
21E100
100200
0C0C00
03F000
ENDCHAR
STARTCHAR 2465
ENCODING 9317
SWIDTH 1000 0
DWIDTH 20 0
BBX 18 19 1 -2
BITMAP
03F000
0C0C00
100200
21E100
431880
821840
860040
840040
85E040
871840
861840
840840
840840
861840
431080
21E100
100200
0C0C00
03F000
ENDCHAR
STARTCHAR 2466
ENCODING 9318
SWIDTH 1000 0
DWIDTH 20 0
BBX 18 19 1 -2
BITMAP
03F000
0C0C00
100200
200100
47F880
87F840
801840
801040
803040
802040
806040
806040
80C040
80C040
408080
218100
100200
0C0C00
03F000
ENDCHAR
STARTCHAR 2467
ENCODING 9319
SWIDTH 1000 0
DWIDTH 20 0
BBX 18 19 1 -2
BITMAP
03F000
0C0C00
100200
21E100
461880
840840
840840
861840
83F040
821040
840840
8C0C40
8C0C40
840840
461880
21E100
100200
0C0C00
03F000
ENDCHAR
STARTCHAR 2468
ENCODING 9320
SWIDTH 1000 0
DWIDTH 20 0
BBX 18 18 1 -1
BITMAP
03F000
1C0C00
31E200
633100
461880
860840
860840
860C40
861C40
833C40
81EC40
800840
860840
421880
233100
11E200
0C0C00
03F000
ENDCHAR
STARTCHAR 2469
ENCODING 9321
SWIDTH 1000 0
DWIDTH 20 0
BBX 18 19 1 -2
BITMAP
03F000
0C0C00
300200
6C3900
5C4C80
9CC640
8CC640
8C8640
8C8640
8C8240
8C8640
8C8640
8CC640
8CC640
4C4C80
2C3900
100200
0C0C00
03F000
ENDCHAR
STARTCHAR 246A
ENCODING 9322
SWIDTH 1000 0
DWIDTH 20 0
BBX 18 19 1 -2
BITMAP
03F000
0C0C00
300200
660900
4E3880
862840
860840
860840
860840
860840
860840
860840
860840
860840
460880
260900
100200
0C0C00
03F000
ENDCHAR
STARTCHAR 246B
ENCODING 9323
SWIDTH 1000 0
DWIDTH 20 0
BBX 18 19 1 -2
BITMAP
03F000
0C0C00
300200
6C7900
5C4480
9CC440
8C8640
8C0640
8C0C40
8C1C40
8C3840
8C7040
8C6040
8CC040
4CC080
2CFF00
100200
0C0C00
03F000
ENDCHAR
STARTCHAR 246C
ENCODING 9324
SWIDTH 1000 0
DWIDTH 20 0
BBX 18 19 1 -2
BITMAP
03F000
0C0C00
300200
6C7900
5CCC80
8C8440
8C0440
8C0C40
8C3840
8C0C40
8C0640
8C0640
8C8640
8C8640
4CCC80
2C7900
100200
0C0C00
03F000
ENDCHAR
STARTCHAR 246D
ENCODING 9325
SWIDTH 1000 0
DWIDTH 20 0
BBX 18 19 1 -2
BITMAP
03F000
0C0C00
300200
6C0D00
5C1C80
9C3C40
8C3C40
8C6C40
8C4C40
8CCC40
8D8C40
8DFE40
8C0C40
8C0C40
4C0C80
2C0D00
100200
0C0C00
03F000
ENDCHAR
STARTCHAR 246E
ENCODING 9326
SWIDTH 1000 0
DWIDTH 20 0
BBX 18 19 1 -2
BITMAP
03F000
0C0C00
300200
6CFD00
5CC080
8CC040
8CC040
8CF840
8CCC40
8C0640
8C0640
8C0640
8C8640
8C8440
4CCC80
2C7900
100200
0C0C00
03F000
ENDCHAR
STARTCHAR 246F
ENCODING 9327
SWIDTH 1000 0
DWIDTH 20 0
BBX 18 19 1 -2
BITMAP
03F000
0C0C00
300200
6C3900
5C4C80
9CC640
8C8040
8C8040
8CB840
8CCC40
8CC640
8C8640
8C8640
8CC640
4C4C80
2C7900
100200
0C0C00
03F000
ENDCHAR
STARTCHAR 2470
ENCODING 9328
SWIDTH 1000 0
DWIDTH 20 0
BBX 18 19 1 -2
BITMAP
03F000
0C0C00
300200
6CFD00
5C0480
8C0C40
8C0840
8C0840
8C1840
8C1040
8C1040
8C3040
8C3040
8C2040
4C2080
2C6100
100200
0C0C00
03F000
ENDCHAR
STARTCHAR 2471
ENCODING 9329
SWIDTH 1000 0
DWIDTH 20 0
BBX 18 19 1 -2
BITMAP
03F000
0C0C00
300200
6C7900
5CCC80
9C8440
8C8440
8CCC40
8C7840
8CCC40
8C8640
8D8640
8D8640
8D8640
4CCC80
2C7900
100200
0C0C00
03F000
ENDCHAR
STARTCHAR 2472
ENCODING 9330
SWIDTH 1000 0
DWIDTH 20 0
BBX 18 19 1 -2
BITMAP
03F000
0C0C00
300200
6C7900
5CCC80
9CC440
8C8640
8C8640
8C8640
8CCE40
8C7E40
8C0640
8C0440
8CC440
4CCC80
2C7900
100200
0C0C00
03F000
ENDCHAR
STARTCHAR 2473
ENCODING 9331
SWIDTH 1000 0
DWIDTH 20 0
BBX 18 18 1 -1
BITMAP
03F000
0C0C00
300200
671D00
49B680
98A240
99A240
81A240
832240
872240
862240
8C2240
882240
583680
3F9D00
100200
0C0C00
03F000
ENDCHAR
STARTCHAR 24D0
ENCODING 9424
SWIDTH 1000 0
DWIDTH 20 0
BBX 18 19 1 -2
BITMAP
03F000
0C0C00
100200
200100
400080
81E040
833040
861040
801040
83F040
861040
861040
863040
83D840
400080
200100
100200
0C0C00
03F000
ENDCHAR
STARTCHAR 24D1
ENCODING 9425
SWIDTH 1000 0
DWIDTH 20 0
BBX 18 19 1 -2
BITMAP
03F000
0C0C00
100200
220100
420080
820040
82F040
831840
830840
820C40
820C40
820C40
830840
831840
42F080
200100
100200
0C0C00
03F000
ENDCHAR
STARTCHAR 24D2
ENCODING 9426
SWIDTH 1000 0
DWIDTH 20 0
BBX 18 19 1 -2
BITMAP
03F000
0C0C00
300200
200100
400080
81E040
833040
861840
860040
860040
860040
861840
833040
81E040
400080
200100
100200
0C0C00
03F000
ENDCHAR
STARTCHAR 24D3
ENCODING 9427
SWIDTH 1000 0
DWIDTH 20 0
BBX 18 19 1 -2
BITMAP
03F000
0C0C00
100200
201100
401080
801040
839040
865040
863040
8C1040
8C1040
8C1040
843040
863040
43D080
200100
100200
0C0C00
03F000
ENDCHAR
STARTCHAR 24D4
ENCODING 9428
SWIDTH 1000 0
DWIDTH 20 0
BBX 18 19 1 -2
BITMAP
03F000
0C0C00
100200
200100
400080
800040
81E040
821040
861840
87F840
860040
861840
831040
81E040
400080
200100
100200
0C0C00
03F000
ENDCHAR
STARTCHAR 24D5
ENCODING 9429
SWIDTH 1000 0
DWIDTH 20 0
BBX 18 18 1 -1
BITMAP
03F000
0C0C00
100200
200100
40F080
808040
808040
808040
87F040
808040
808040
808040
808040
408080
208100
300200
0C0C00
03F000
ENDCHAR
STARTCHAR 24D6
ENCODING 9430
SWIDTH 1000 0
DWIDTH 20 0
BBX 18 19 1 -2
BITMAP
03F000
1C0C00
300200
600100
41F880
833840
861840
861840
861840
833840
81F840
801840
821040
831040
41E080
200100
100200
0C0C00
03F000
ENDCHAR
STARTCHAR 24D7
ENCODING 9431
SWIDTH 1000 0
DWIDTH 20 0
BBX 18 19 1 -2
BITMAP
03F000
1C0C00
300200
620100
420080
820040
827040
829840
831840
820840
820840
820840
820840
820840
420880
200100
100200
0C0C00
03F000
ENDCHAR
STARTCHAR 24D8
ENCODING 9432
SWIDTH 1000 0
DWIDTH 20 0
BBX 18 19 1 -2
BITMAP
03F000
0C0C00
100200
200100
40C080
80C040
800040
80C040
80C040
80C040
80C040
80C040
80C040
80C040
40C080
200100
100200
0C0C00
03F000
ENDCHAR
STARTCHAR 24D9
ENCODING 9433
SWIDTH 1000 0
DWIDTH 20 0
BBX 18 19 1 -2
BITMAP
03F000
1C0C00
306200
606100
400080
800040
804040
804040
804040
804040
804040
804040
804040
804040
404080
23C100
100200
0C0C00
03F000
ENDCHAR
STARTCHAR 24DA
ENCODING 9434
SWIDTH 1000 0
DWIDTH 20 0
BBX 18 19 1 -2
BITMAP
03F000
1C0C00
300200
620100
420080
820040
820040
823040
826040
82C040
83C040
836040
823040
821840
420880
200100
100200
0C0C00
03F000
ENDCHAR
STARTCHAR 24DB
ENCODING 9435
SWIDTH 1000 0
DWIDTH 20 0
BBX 18 19 1 -2
BITMAP
03F000
0C0C00
100200
200100
40C080
80C040
80C040
80C040
80C040
80C040
80C040
80C040
80C040
80C040
40C080
200100
100200
0C0C00
03F000
ENDCHAR
STARTCHAR 24DC
ENCODING 9436
SWIDTH 1000 0
DWIDTH 20 0
BBX 18 18 1 -1
BITMAP
03F000
1C0C00
300200
600100
400080
8BB840
8CCC40
88C440
88C440
88C440
88C440
88C440
88C440
400080
200100
100200
0C0C00
03F000
ENDCHAR
STARTCHAR 24DD
ENCODING 9437
SWIDTH 1000 0
DWIDTH 20 0
BBX 18 18 1 -1
BITMAP
03F000
1C0C00
300200
600100
400080
86F040
871040
861840
861840
861840
861840
861840
861840
400080
200100
100200
0C0C00
03F000
ENDCHAR
STARTCHAR 24DE
ENCODING 9438
SWIDTH 1000 0
DWIDTH 20 0
BBX 18 19 1 -2
BITMAP
03F000
0C0C00
100200
200100
400080
81E040
833040
861840
861840
861840
861840
861840
833040
81E040
400080
200100
100200
0C0C00
03F000
ENDCHAR
STARTCHAR 24DF
ENCODING 9439
SWIDTH 1000 0
DWIDTH 20 0
BBX 18 19 1 -2
BITMAP
03F000
0C0C00
100200
200100
400080
82F040
831840
820C40
820C40
820C40
830C40
831840
82F040
820040
420080
200100
100200
0C0C00
03F000
ENDCHAR
STARTCHAR 24E0
ENCODING 9440
SWIDTH 1000 0
DWIDTH 20 0
BBX 18 19 1 -2
BITMAP
03F000
0C0C00
100200
200100
400080
83D040
863040
8C1040
8C1040
8C1040
8C1040
863040
83D040
801040
401080
200100
100200
0C0C00
03F000
ENDCHAR
STARTCHAR 24E1
ENCODING 9441
SWIDTH 1000 0
DWIDTH 20 0
BBX 18 19 1 -2
BITMAP
03F000
0C0C00
100200
200100
400080
800040
819840
81F040
81C040
818040
818040
818040
818040
818040
400080
200100
100200
0C0C00
03F000
ENDCHAR
STARTCHAR 24E2
ENCODING 9442
SWIDTH 1000 0
DWIDTH 20 0
BBX 18 19 1 -2
BITMAP
03F000
0C0C00
100200
200100
400080
800040
81E040
823040
830040
81C040
807040
861040
821040
81E040
400080
200100
100200
0C0C00
03F000
ENDCHAR
STARTCHAR 24E3
ENCODING 9443
SWIDTH 1000 0
DWIDTH 20 0
BBX 18 20 1 -2
BITMAP
03F000
0C0C00
100200
200100
400080
408080
808040
808040
83E040
808040
808040
808040
808040
808040
409080
40F080
200100
100200
0C0C00
03F000
ENDCHAR
STARTCHAR 24E4
ENCODING 9444
SWIDTH 1000 0
DWIDTH 20 0
BBX 18 18 1 -1
BITMAP
03F000
1C0C00
300200
600100
400080
861840
861840
861840
861840
861840
861840
823840
83D840
400080
200100
100200
0C0C00
03F000
ENDCHAR
STARTCHAR 24E5
ENCODING 9445
SWIDTH 1000 0
DWIDTH 20 0
BBX 18 19 1 -2
BITMAP
03F000
0C0C00
100200
200100
400080
800040
840840
861840
821040
833040
812040
81E040
80C040
80C040
400080
200100
100200
0C0C00
03F000
ENDCHAR
STARTCHAR 24E6
ENCODING 9446
SWIDTH 1000 0
DWIDTH 20 0
BBX 18 19 1 -2
BITMAP
03F000
0C0C00
100200
200100
400080
800040
98C640
98C640
89E440
892440
8D2C40
852840
873840
821040
400080
200100
100200
0C0C00
03F000
ENDCHAR
STARTCHAR 24E7
ENCODING 9447
SWIDTH 1000 0
DWIDTH 20 0
BBX 18 18 1 -1
BITMAP
03F000
1C0C00
300200
600100
400080
861840
833040
81E040
80C040
81E040
812040
833040
861840
400080
200100
100200
0C0C00
03F000
ENDCHAR
STARTCHAR 24E8
ENCODING 9448
SWIDTH 1000 0
DWIDTH 20 0
BBX 18 19 1 -2
BITMAP
03F000
0C0C00
100200
200100
400080
860C40
820840
831840
811040
81B040
80A040
80E040
804040
80C040
478080
200100
100200
0C0C00
03F000
ENDCHAR
STARTCHAR 24E9
ENCODING 9449
SWIDTH 1000 0
DWIDTH 20 0
BBX 18 18 1 -1
BITMAP
03F000
1C0C00
300200
600100
400080
83F040
803040
806040
80C040
818040
810040
820040
87F840
400080
200100
100200
0C0C00
03F000
ENDCHAR
STARTCHAR 24EB
ENCODING 9451
SWIDTH 1000 0
DWIDTH 20 0
BBX 18 19 1 -2
BITMAP
03F000
0FFC00
3FFE00
73F300
63E380
EBE3C0
FBF3C0
FBF3C0
FBF3C0
FBF3C0
FBF3C0
FBF3C0
FBF3C0
FBF3C0
7BF380
3BF300
1FFE00
0FFC00
03F000
ENDCHAR
STARTCHAR 24EC
ENCODING 9452
SWIDTH 1000 0
DWIDTH 20 0
BBX 18 19 1 -2
BITMAP
03F000
0FFC00
3FFE00
73C700
63BB80
F339C0
F339C0
F3F9C0
F3F3C0
F3E7C0
F3CFC0
F3DFC0
F3BFC0
F33FC0
730180
330100
1FFE00
0FFC00
03F000
ENDCHAR
STARTCHAR 24ED
ENCODING 9453
SWIDTH 1000 0
DWIDTH 20 0
BBX 18 19 1 -2
BITMAP
03F000
0FFC00
3FFE00
738700
633B80
F339C0
F3F9C0
F3FBC0
F3C7C0
F3C3C0
F3F9C0
F3F9C0
F379C0
F339C0
733B80
338700
1FFE00
0FFC00
03F000
ENDCHAR
STARTCHAR 24EE
ENCODING 9454
SWIDTH 1000 0
DWIDTH 20 0
BBX 18 19 1 -2
BITMAP
03F000
0FFC00
3FFE00
73F300
63E380
F3E3C0
F3D3C0
F393C0
F3B3C0
F333C0
F373C0
F200C0
F200C0
F3F3C0
73F380
33F300
1FFE00
0FFC00
03F000
ENDCHAR
STARTCHAR 24EF
ENCODING 9455
SWIDTH 1000 0
DWIDTH 20 0
BBX 18 19 1 -2
BITMAP
03F000
0FFC00
3FFE00
730300
630380
E33FC0
F33FC0
F347C0
F303C0
F3F9C0
F3F9C0
F3F9C0
F379C0
F339C0
738380
33C700
1FFE00
0FFC00
03F000
ENDCHAR
STARTCHAR 24F0
ENCODING 9456
SWIDTH 1000 0
DWIDTH 20 0
BBX 18 19 1 -2
BITMAP
03F000
0FFC00
3FFE00
73C700
639B80
F3B9C0
F33FC0
F37FC0
F347C0
F33BC0
F339C0
F379C0
F339C0
F339C0
73BB80
33C700
1FFE00
0FFC00
03F000
ENDCHAR
STARTCHAR 24F1
ENCODING 9457
SWIDTH 1000 0
DWIDTH 20 0
BBX 18 19 1 -2
BITMAP
03F000
0FFC00
3FFE00
730100
630180
E3FBC0
F3F3C0
F3F3C0
F3F7C0
F3E7C0
F3E7C0
F3EFC0
F3CFC0
F3CFC0
73DF80
339F00
1FFE00
0FFC00
03F000
ENDCHAR
STARTCHAR 24F2
ENCODING 9458
SWIDTH 1000 0
DWIDTH 20 0
BBX 18 19 1 -2
BITMAP
03F000
0FFC00
3FFE00
738700
633B80
F379C0
F379C0
F33BC0
F383C0
F387C0
F339C0
F279C0
F27DC0
F379C0
733B80
338700
1FFE00
0FFC00
03F000
ENDCHAR
STARTCHAR 24F3
ENCODING 9459
SWIDTH 1000 0
DWIDTH 20 0
BBX 18 19 1 -2
BITMAP
03F000
0FFC00
3FFE00
73C700
63BB80
E339C0
F379C0
F379C0
F339C0
F3B9C0
F389C0
F3F9C0
F3F9C0
F33BC0
73B380
338700
1FFE00
0FFC00
03F000
ENDCHAR
STARTCHAR 24F4
ENCODING 9460
SWIDTH 1000 0
DWIDTH 20 0
BBX 18 18 1 -1
BITMAP
03F000
0FFC00
3FFE00
71E300
66ED80
EE4DC0
EE5DC0
FEDCC0
FCDCC0
F9DCC0
F3DCC0
F3DCC0
E7CDC0
67ED80
206100
1FFE00
0FFC00
03F000
ENDCHAR
STARTCHAR 24F5
ENCODING 9461
SWIDTH 1000 0
DWIDTH 20 0
BBX 18 19 1 -2
BITMAP
03F000
0C0C00
13F200
2C0D00
58C680
B3C340
A2C140
C0C0C0
C0C0C0
C0C0C0
C0C0C0
C0C140
A0C140
B0C340
58C680
2C0D00
13F200
0C0C00
03F000
ENDCHAR
STARTCHAR 24F6
ENCODING 9462
SWIDTH 1000 0
DWIDTH 20 0
BBX 18 19 1 -2
BITMAP
03F000
0FFE00
140B00
39E780
531280
A21940
C61940
C038C0
C070C0
C0E0C0
C180C0
C30140
A20140
D7FA80
580680
240D00
13F200
0C0C00
03F000
ENDCHAR
STARTCHAR 24F7
ENCODING 9463
SWIDTH 1000 0
DWIDTH 20 0
BBX 18 19 1 -2
BITMAP
03F000
0C0C00
13F200
2C0D00
59E680
B21340
A61940
C010C0
C1E0C0
C010C0
C018C0
C00940
A61940
B21340
59E680
2C0D00
13F200
0C0C00
03F000
ENDCHAR
STARTCHAR 24F8
ENCODING 9464
SWIDTH 1000 0
DWIDTH 20 0
BBX 18 19 1 -2
BITMAP
03F000
0C0C00
13F200
2C0D00
586680
B0E340
A0A140
C120C0
C320C0
C620C0
CC20C0
CFF940
A02140
B023C0
582680
2C0D00
13F200
0C0C00
03F000
ENDCHAR
STARTCHAR 24F9
ENCODING 9465
SWIDTH 1000 0
DWIDTH 20 0
BBX 18 19 1 -2
BITMAP
03F000
0FFC00
140B00
380780
53F280
A20140
C20140
C2E0C0
C310C0
C218C0
C018C0
C01940
A21940
933280
59E680
240D00
13F200
0C0C00
03F000
ENDCHAR
STARTCHAR 24FA
ENCODING 9466
SWIDTH 1000 0
DWIDTH 20 0
BBX 18 20 1 -2
BITMAP
03F000
0C0C00
13F200
240900
58E680
913280
A21140
C20140
C6E0C0
C730C0
C618C0
C618C0
C61940
A21940
933280
59E680
240D00
13F200
0C0C00
03F000
ENDCHAR
STARTCHAR 24FB
ENCODING 9467
SWIDTH 1000 0
DWIDTH 20 0
BBX 18 19 1 -2
BITMAP
03F000
0C0C00
13F200
2C0D00
580680
B3FB80
A01140
C030C0
C020C0
C060C0
C060C0
C04140
A0C140
B08380
598680
2C0D00
13F200
0C0C00
03F000
ENDCHAR
STARTCHAR 24FC
ENCODING 9468
SWIDTH 1000 0
DWIDTH 20 0
BBX 18 19 1 -2
BITMAP
03F000
0C0C00
13F200
2C0D00
59E680
B21340
A61940
C618C0
C230C0
C3E0C0
C618C0
C40940
A40940
B61B40
59E680
2C0D00
13F200
0C0C00
03F000
ENDCHAR
STARTCHAR 24FD
ENCODING 9469
SWIDTH 1000 0
DWIDTH 20 0
BBX 18 19 1 -2
BITMAP
03F000
0C0C00
13F200
2C0D00
59E680
B33340
A21940
C218C0
C218C0
C338C0
C1E8C0
C01940
A21140
B33340
59E680
2C0D00
13F200
0C0C00
03F000
ENDCHAR
STARTCHAR 24FE
ENCODING 9470
SWIDTH 1000 0
DWIDTH 20 0
BBX 18 19 1 -2
BITMAP
03F000
0FFE00
140B00
380780
567A80
AE4940
C6CD40
C6CCC0
C6C4C0
C6C4C0
C6CCC0
C6CD40
A64940
D67A80
580680
240D00
13F200
0C0C00
03F000
ENDCHAR
STARTCHAR 2500
ENCODING 9472
SWIDTH 1000 0
DWIDTH 20 0
BBX 20 1 0 7
BITMAP
FFFFF0
ENDCHAR
STARTCHAR 2501
ENCODING 9473
SWIDTH 1000 0
DWIDTH 20 0
BBX 20 2 0 7
BITMAP
FFFFF0
FFFFF0
ENDCHAR
STARTCHAR 2502
ENCODING 9474
SWIDTH 1000 0
DWIDTH 20 0
BBX 1 20 9 -2
BITMAP
80
80
80
80
80
80
80
80
80
80
80
80
80
80
80
80
80
80
80
80
ENDCHAR
STARTCHAR 2503
ENCODING 9475
SWIDTH 1000 0
DWIDTH 20 0
BBX 2 20 9 -2
BITMAP
C0
C0
C0
C0
C0
C0
C0
C0
C0
C0
C0
C0
C0
C0
C0
C0
C0
C0
C0
C0
ENDCHAR
STARTCHAR 250C
ENCODING 9484
SWIDTH 1000 0
DWIDTH 20 0
BBX 10 10 10 -2
BITMAP
FFC0
8000
8000
8000
8000
8000
8000
8000
8000
8000
ENDCHAR
STARTCHAR 250F
ENCODING 9487
SWIDTH 1000 0
DWIDTH 20 0
BBX 11 11 9 -2
BITMAP
FFE0
FFE0
C000
C000
C000
C000
C000
C000
C000
C000
C000
ENDCHAR
STARTCHAR 2510
ENCODING 9488
SWIDTH 1000 0
DWIDTH 20 0
BBX 10 10 0 -2
BITMAP
FFC0
0040
0040
0040
0040
0040
0040
0040
0040
0040
ENDCHAR
STARTCHAR 2513
ENCODING 9491
SWIDTH 1000 0
DWIDTH 20 0
BBX 11 11 0 -2
BITMAP
FFE0
FFE0
0060
0060
0060
0060
0060
0060
0060
0060
0060
ENDCHAR
STARTCHAR 2514
ENCODING 9492
SWIDTH 1000 0
DWIDTH 20 0
BBX 10 11 10 7
BITMAP
8000
8000
8000
8000
8000
8000
8000
8000
8000
8000
FFC0
ENDCHAR
STARTCHAR 2517
ENCODING 9495
SWIDTH 1000 0
DWIDTH 20 0
BBX 11 11 9 7
BITMAP
C000
C000
C000
C000
C000
C000
C000
C000
C000
FFE0
FFE0
ENDCHAR
STARTCHAR 2518
ENCODING 9496
SWIDTH 1000 0
DWIDTH 20 0
BBX 10 11 0 7
BITMAP
0040
0040
0040
0040
0040
0040
0040
0040
0040
0040
FFC0
ENDCHAR
STARTCHAR 251B
ENCODING 9499
SWIDTH 1000 0
DWIDTH 20 0
BBX 11 11 0 7
BITMAP
0060
0060
0060
0060
0060
0060
0060
0060
0060
FFE0
FFE0
ENDCHAR
STARTCHAR 251C
ENCODING 9500
SWIDTH 1000 0
DWIDTH 20 0
BBX 10 20 10 -2
BITMAP
8000
8000
8000
8000
8000
8000
8000
8000
8000
8000
FFC0
8000
8000
8000
8000
8000
8000
8000
8000
8000
ENDCHAR
STARTCHAR 251D
ENCODING 9501
SWIDTH 1000 0
DWIDTH 20 0
BBX 10 20 10 -2
BITMAP
8000
8000
8000
8000
8000
8000
8000
8000
8000
FFC0
FFC0
8000
8000
8000
8000
8000
8000
8000
8000
8000
ENDCHAR
STARTCHAR 2520
ENCODING 9504
SWIDTH 1000 0
DWIDTH 20 0
BBX 11 20 9 -2
BITMAP
C000
C000
C000
C000
C000
C000
C000
C000
C000
C000
FFE0
C000
C000
C000
C000
C000
C000
C000
C000
C000
ENDCHAR
STARTCHAR 2523
ENCODING 9507
SWIDTH 1000 0
DWIDTH 20 0
BBX 11 20 9 -2
BITMAP
C000
C000
C000
C000
C000
C000
C000
C000
C000
FFE0
FFE0
C000
C000
C000
C000
C000
C000
C000
C000
C000
ENDCHAR
STARTCHAR 2524
ENCODING 9508
SWIDTH 1000 0
DWIDTH 20 0
BBX 10 20 0 -2
BITMAP
0040
0040
0040
0040
0040
0040
0040
0040
0040
0040
FFC0
0040
0040
0040
0040
0040
0040
0040
0040
0040
ENDCHAR
STARTCHAR 2525
ENCODING 9509
SWIDTH 1000 0
DWIDTH 20 0
BBX 10 20 0 -2
BITMAP
0040
0040
0040
0040
0040
0040
0040
0040
0040
FFC0
FFC0
0040
0040
0040
0040
0040
0040
0040
0040
0040
ENDCHAR
STARTCHAR 2528
ENCODING 9512
SWIDTH 1000 0
DWIDTH 20 0
BBX 11 20 0 -2
BITMAP
0060
0060
0060
0060
0060
0060
0060
0060
0060
0060
FFE0
0060
0060
0060
0060
0060
0060
0060
0060
0060
ENDCHAR
STARTCHAR 252B
ENCODING 9515
SWIDTH 1000 0
DWIDTH 20 0
BBX 11 20 0 -2
BITMAP
0060
0060
0060
0060
0060
0060
0060
0060
0060
FFE0
FFE0
0060
0060
0060
0060
0060
0060
0060
0060
0060
ENDCHAR
STARTCHAR 252C
ENCODING 9516
SWIDTH 1000 0
DWIDTH 20 0
BBX 20 10 0 -2
BITMAP
FFFFF0
004000
004000
004000
004000
004000
004000
004000
004000
004000
ENDCHAR
STARTCHAR 252F
ENCODING 9519
SWIDTH 1000 0
DWIDTH 20 0
BBX 20 11 0 -2
BITMAP
FFFFF0
FFFFF0
004000
004000
004000
004000
004000
004000
004000
004000
004000
ENDCHAR
STARTCHAR 2530
ENCODING 9520
SWIDTH 1000 0
DWIDTH 20 0
BBX 20 10 0 -2
BITMAP
FFFFF0
006000
006000
006000
006000
006000
006000
006000
006000
006000
ENDCHAR
STARTCHAR 2533
ENCODING 9523
SWIDTH 1000 0
DWIDTH 20 0
BBX 20 11 0 -2
BITMAP
FFFFF0
FFFFF0
006000
006000
006000
006000
006000
006000
006000
006000
006000
ENDCHAR
STARTCHAR 2534
ENCODING 9524
SWIDTH 1000 0
DWIDTH 20 0
BBX 20 11 0 7
BITMAP
004000
004000
004000
004000
004000
004000
004000
004000
004000
004000
FFFFF0
ENDCHAR
STARTCHAR 2537
ENCODING 9527
SWIDTH 1000 0
DWIDTH 20 0
BBX 20 11 0 7
BITMAP
004000
004000
004000
004000
004000
004000
004000
004000
004000
FFFFF0
FFFFF0
ENDCHAR
STARTCHAR 2538
ENCODING 9528
SWIDTH 1000 0
DWIDTH 20 0
BBX 20 11 0 7
BITMAP
006000
006000
006000
006000
006000
006000
006000
006000
006000
006000
FFFFF0
ENDCHAR
STARTCHAR 253B
ENCODING 9531
SWIDTH 1000 0
DWIDTH 20 0
BBX 20 11 0 7
BITMAP
006000
006000
006000
006000
006000
006000
006000
006000
006000
FFFFF0
FFFFF0
ENDCHAR
STARTCHAR 253C
ENCODING 9532
SWIDTH 1000 0
DWIDTH 20 0
BBX 20 20 0 -2
BITMAP
004000
004000
004000
004000
004000
004000
004000
004000
004000
004000
FFFFF0
004000
004000
004000
004000
004000
004000
004000
004000
004000
ENDCHAR
STARTCHAR 253F
ENCODING 9535
SWIDTH 1000 0
DWIDTH 20 0
BBX 20 20 0 -2
BITMAP
004000
004000
004000
004000
004000
004000
004000
004000
004000
FFFFF0
FFFFF0
004000
004000
004000
004000
004000
004000
004000
004000
004000
ENDCHAR
STARTCHAR 2542
ENCODING 9538
SWIDTH 1000 0
DWIDTH 20 0
BBX 20 20 0 -2
BITMAP
006000
006000
006000
006000
006000
006000
006000
006000
006000
006000
FFFFF0
006000
006000
006000
006000
006000
006000
006000
006000
006000
ENDCHAR
STARTCHAR 254B
ENCODING 9547
SWIDTH 1000 0
DWIDTH 20 0
BBX 20 20 0 -2
BITMAP
006000
006000
006000
006000
006000
006000
006000
006000
006000
FFFFF0
FFFFF0
006000
006000
006000
006000
006000
006000
006000
006000
006000
ENDCHAR
STARTCHAR 25A0
ENCODING 9632
SWIDTH 1000 0
DWIDTH 20 0
BBX 14 15 3 0
BITMAP
FFFC
FFFC
FFFC
FFFC
FFFC
FFFC
FFFC
FFFC
FFFC
FFFC
FFFC
FFFC
FFFC
FFFC
FFFC
ENDCHAR
STARTCHAR 25A1
ENCODING 9633
SWIDTH 1000 0
DWIDTH 20 0
BBX 14 15 3 0
BITMAP
FFFC
8004
8004
8004
8004
8004
8004
8004
8004
8004
8004
8004
8004
8004
FFFC
ENDCHAR
STARTCHAR 25B1
ENCODING 9649
SWIDTH 500 0
DWIDTH 10 0
BBX 8 5 1 5
BITMAP
3F
41
42
82
FC
ENDCHAR
STARTCHAR 25B2
ENCODING 9650
SWIDTH 1000 0
DWIDTH 20 0
BBX 16 15 2 0
BITMAP
0100
0180
03C0
03C0
07E0
07E0
0FF0
0FF0
1FF8
1FF8
3FFC
3FFC
7FFE
7FFE
FFFF
ENDCHAR
STARTCHAR 25B3
ENCODING 9651
SWIDTH 1000 0
DWIDTH 20 0
BBX 16 15 2 0
BITMAP
0100
0180
0180
03C0
0240
0660
0C30
0C30
1818
1818
300C
300C
6006
6006
FFFF
ENDCHAR
STARTCHAR 25B6
ENCODING 9654
SWIDTH 500 0
DWIDTH 10 0
BBX 8 11 1 2
BITMAP
80
E0
F0
FC
FE
FF
FE
F8
F0
E0
80
ENDCHAR
STARTCHAR 25B7
ENCODING 9655
SWIDTH 500 0
DWIDTH 10 0
BBX 8 11 1 2
BITMAP
80
E0
90
8C
82
81
86
88
B0
E0
80
ENDCHAR
STARTCHAR 25BC
ENCODING 9660
SWIDTH 1000 0
DWIDTH 20 0
BBX 16 15 2 0
BITMAP
FFFF
7FFE
7FFE
3FFC
3FFC
1FF8
1FF8
0FF0
0FF0
07E0
07E0
03C0
03C0
0180
0100
ENDCHAR
STARTCHAR 25BD
ENCODING 9661
SWIDTH 1000 0
DWIDTH 20 0
BBX 16 15 2 0
BITMAP
FFFF
6006
6006
300C
300C
1818
1818
0C30
0C30
0660
0240
03C0
0180
0180
0100
ENDCHAR
STARTCHAR 25C0
ENCODING 9664
SWIDTH 500 0
DWIDTH 10 0
BBX 8 11 1 2
BITMAP
01
07
0F
3F
7F
FF
7F
1F
0F
03
01
ENDCHAR
STARTCHAR 25C1
ENCODING 9665
SWIDTH 500 0
DWIDTH 10 0
BBX 8 11 1 2
BITMAP
01
07
09
31
41
81
61
11
0D
07
01
ENDCHAR
STARTCHAR 25C6
ENCODING 9670
SWIDTH 1000 0
DWIDTH 20 0
BBX 18 17 1 0
BITMAP
00C000
01E000
03F000
07F800
0FFC00
1FFE00
3FFF00
7FFF80
FFFFC0
7FFF80
3FFF00
1FFE00
0FFC00
07F800
03F000
01E000
00C000
ENDCHAR
STARTCHAR 25C7
ENCODING 9671
SWIDTH 1000 0
DWIDTH 20 0
BBX 18 17 1 0
BITMAP
00C000
01E000
033000
061800
0C0C00
180600
300300
600180
C000C0
600180
300300
180600
0C0C00
061800
033000
01E000
00C000
ENDCHAR
STARTCHAR 25C9
ENCODING 9673
SWIDTH 500 0
DWIDTH 10 0
BBX 8 9 1 3
BITMAP
3C
42
99
BD
BD
BD
99
42
3C
ENDCHAR
STARTCHAR 25CB
ENCODING 9675
SWIDTH 1000 0
DWIDTH 20 0
BBX 16 17 2 -1
BITMAP
07E0
1C38
300C
6006
4002
C003
8001
8001
8001
8001
8001
C003
4002
6006
300C
1C38
07E0
ENDCHAR
STARTCHAR 25CE
ENCODING 9678
SWIDTH 1000 0
DWIDTH 20 0
BBX 16 17 2 -1
BITMAP
07E0
1C18
300C
63C6
4E32
C811
9809
9009
9009
9009
8811
CC33
43C2
6006
300C
1838
07E0
ENDCHAR
STARTCHAR 25CF
ENCODING 9679
SWIDTH 1000 0
DWIDTH 20 0
BBX 16 17 2 -1
BITMAP
07E0
1FF8
3FFC
7FFE
7FFE
FFFF
FFFF
FFFF
FFFF
FFFF
FFFF
FFFF
7FFE
7FFE
3FFC
1FF8
07E0
ENDCHAR
STARTCHAR 25D0
ENCODING 9680
SWIDTH 500 0
DWIDTH 10 0
BBX 10 9 0 3
BITMAP
1E00
3900
7880
7880
F840
7880
7880
3900
1E00
ENDCHAR
STARTCHAR 25D1
ENCODING 9681
SWIDTH 500 0
DWIDTH 10 0
BBX 10 9 0 3
BITMAP
1E00
2700
4780
4780
87C0
4780
4780
2700
1E00
ENDCHAR
STARTCHAR 25D2
ENCODING 9682
SWIDTH 500 0
DWIDTH 10 0
BBX 9 10 0 3
BITMAP
1E00
2100
4080
4080
8080
7F80
7F80
7F80
3F00
1E00
ENDCHAR
STARTCHAR 25D3
ENCODING 9683
SWIDTH 500 0
DWIDTH 10 0
BBX 9 10 0 3
BITMAP
1E00
3F00
7F80
7F80
7F80
8080
4080
4080
2100
1E00
ENDCHAR
STARTCHAR 25E6
ENCODING 9702
SWIDTH 500 0
DWIDTH 10 0
BBX 4 5 3 5
BITMAP
60
90
10
90
70
ENDCHAR
STARTCHAR 25EF
ENCODING 9711
SWIDTH 1000 0
DWIDTH 20 0
BBX 18 19 1 -2
BITMAP
03F000
0C0C00
100200
200100
400080
800040
800040
800040
800040
800040
800040
800040
800040
800040
400080
200100
100200
0C0C00
03F000
ENDCHAR
STARTCHAR 2600
ENCODING 9728
SWIDTH 1000 0
DWIDTH 20 0
BBX 18 19 1 -2
BITMAP
008000
008000
008000
208100
11E200
0BF400
07F800
0FFC00
0FFC00
EFFDC0
0FFC00
07F800
07F800
09E400
100200
208100
008000
008000
008000
ENDCHAR
STARTCHAR 2601
ENCODING 9729
SWIDTH 1000 0
DWIDTH 20 0
BBX 18 14 1 -1
BITMAP
03C000
07E000
0FF000
0FF380
0FFF80
0FFFC0
3FFFC0
7FFF80
FFFF00
FFFF80
FF7FC0
7E7FC0
3C3F80
001F00
ENDCHAR
STARTCHAR 2602
ENCODING 9730
SWIDTH 1000 0
DWIDTH 20 0
BBX 18 19 1 -2
BITMAP
008000
008000
03F000
1FFE00
3FFF00
7FFF80
7FFF80
9CCE40
888440
088400
008000
008000
008000
008000
008000
008000
028000
028000
038000
ENDCHAR
STARTCHAR 2603
ENCODING 9731
SWIDTH 1000 0
DWIDTH 20 0
BBX 18 18 1 -1
BITMAP
818040
083840
184400
004300
C18200
0E4380
103C00
112200
D12200
500400
09E8C0
900600
A0C100
40C100
400100
40C100
20C100
1FFE00
ENDCHAR
STARTCHAR 2605
ENCODING 9733
SWIDTH 1000 0
DWIDTH 20 0
BBX 16 17 2 0
BITMAP
0100
0180
0180
0180
03C0
03C0
FFFF
7FFE
3FFC
0FF0
0FF0
0FF0
0FF0
1E78
1C18
1008
2004
ENDCHAR
STARTCHAR 2606
ENCODING 9734
SWIDTH 1000 0
DWIDTH 20 0
BBX 16 17 2 0
BITMAP
0100
0180
0180
0180
0240
0240
FE7F
6006
100C
0C30
0810
0810
0BD0
1668
1818
1008
2004
ENDCHAR
STARTCHAR 260E
ENCODING 9742
SWIDTH 1000 0
DWIDTH 20 0
BBX 18 15 1 0
BITMAP
3FFE00
7FFF80
F61BC0
E619C0
E7F9C0
07F800
0E1C00
1C0C00
1C0E00
180600
3C0F00
7C0F80
7E1F80
7FFF80
FFFF80
ENDCHAR
STARTCHAR 2616
ENCODING 9750
SWIDTH 1000 0
DWIDTH 20 0
BBX 16 15 2 1
BITMAP
03C0
0E70
1818
600E
6006
6006
4002
4002
4002
4002
4002
C003
C003
C003
FFFF
ENDCHAR
STARTCHAR 2617
ENCODING 9751
SWIDTH 1000 0
DWIDTH 20 0
BBX 16 16 2 0
BITMAP
0180
07E0
0FF0
3FFC
7FFE
7FFE
7FFE
7FFE
7FFE
7FFE
7FFE
7FFE
FFFF
FFFF
FFFF
FFFF
ENDCHAR
STARTCHAR 261E
ENCODING 9758
SWIDTH 1000 0
DWIDTH 20 0
BBX 18 8 1 4
BITMAP
71CF80
963040
981080
91FF00
9E5200
906C00
98D400
F7F800
ENDCHAR
STARTCHAR 2640
ENCODING 9792
SWIDTH 1000 0
DWIDTH 20 0
BBX 12 17 4 -1
BITMAP
0F00
1080
2040
2040
6060
2040
2040
1080
0F00
0600
0600
FFF0
0600
0600
0600
0600
0600
ENDCHAR
STARTCHAR 2642
ENCODING 9794
SWIDTH 1000 0
DWIDTH 20 0
BBX 16 16 2 0
BITMAP
007F
0007
000D
0019
0031
0061
00C1
3E80
6300
C100
8080
8080
8080
C180
6300
3E00
ENDCHAR
STARTCHAR 2660
ENCODING 9824
SWIDTH 500 0
DWIDTH 10 0
BBX 8 11 1 3
BITMAP
18
3C
3C
7E
FF
FF
FF
FF
FF
18
3C
ENDCHAR
STARTCHAR 2661
ENCODING 9825
SWIDTH 500 0
DWIDTH 10 0
BBX 8 11 1 2
BITMAP
E7
99
99
81
81
81
42
42
24
3C
18
ENDCHAR
STARTCHAR 2662
ENCODING 9826
SWIDTH 500 0
DWIDTH 10 0
BBX 8 12 1 1
BITMAP
10
18
24
24
42
C3
81
42
42
24
3C
18
ENDCHAR
STARTCHAR 2663
ENCODING 9827
SWIDTH 500 0
DWIDTH 10 0
BBX 10 11 0 2
BITMAP
0C00
1E00
1E00
1E00
7F80
7F80
FFC0
FFC0
7F80
0C00
1E00
ENDCHAR
STARTCHAR 2664
ENCODING 9828
SWIDTH 500 0
DWIDTH 10 0
BBX 8 11 1 3
BITMAP
18
24
44
42
81
81
81
99
FF
28
3C
ENDCHAR
STARTCHAR 2665
ENCODING 9829
SWIDTH 500 0
DWIDTH 10 0
BBX 8 11 1 2
BITMAP
E7
FF
FF
FF
FF
FF
7E
7E
3C
18
18
ENDCHAR
STARTCHAR 2666
ENCODING 9830
SWIDTH 500 0
DWIDTH 10 0
BBX 8 12 1 1
BITMAP
10
18
3C
3C
7E
FF
FF
7E
7E
3C
3C
18
ENDCHAR
STARTCHAR 2667
ENCODING 9831
SWIDTH 500 0
DWIDTH 10 0
BBX 10 11 0 2
BITMAP
1E00
1200
1200
1200
7380
8040
8040
9440
7780
1400
1E00
ENDCHAR
STARTCHAR 2668
ENCODING 9832
SWIDTH 1000 0
DWIDTH 20 0
BBX 18 16 1 0
BITMAP
008000
008000
099800
099000
199800
089800
0CC800
0CCC00
044400
244500
444480
CC48C0
C080C0
600180
380700
0FFC00
ENDCHAR
STARTCHAR 2669
ENCODING 9833
SWIDTH 500 0
DWIDTH 10 0
BBX 4 11 2 2
BITMAP
10
10
10
10
10
10
10
10
70
F0
60
ENDCHAR
STARTCHAR 266A
ENCODING 9834
SWIDTH 1000 0
DWIDTH 20 0
BBX 13 17 4 -1
BITMAP
0400
0600
0700
05C0
04E0
0430
0418
0418
0418
0418
0410
0420
0400
7C00
FC00
FC00
7000
ENDCHAR
STARTCHAR 266B
ENCODING 9835
SWIDTH 500 0
DWIDTH 10 0
BBX 8 11 1 2
BITMAP
07
3F
31
21
21
21
21
21
27
E7
C0
ENDCHAR
STARTCHAR 266C
ENCODING 9836
SWIDTH 500 0
DWIDTH 10 0
BBX 8 11 1 2
BITMAP
07
3F
23
3F
31
21
21
21
27
E7
C0
ENDCHAR
STARTCHAR 266D
ENCODING 9837
SWIDTH 1000 0
DWIDTH 20 0
BBX 8 17 7 -1
BITMAP
80
80
80
80
80
80
9E
A3
C3
83
83
82
86
8C
B8
E0
80
ENDCHAR
STARTCHAR 266E
ENCODING 9838
SWIDTH 500 0
DWIDTH 10 0
BBX 4 11 3 2
BITMAP
80
80
B0
F0
90
90
90
F0
90
10
10
ENDCHAR
STARTCHAR 266F
ENCODING 9839
SWIDTH 1000 0
DWIDTH 20 0
BBX 12 17 4 -1
BITMAP
1080
1080
1080
10B0
1FF0
FC80
1080
1080
1080
1090
17F0
FF80
9080
1080
1080
1080
1000
ENDCHAR
STARTCHAR 2713
ENCODING 10003
SWIDTH 1000 0
DWIDTH 20 0
BBX 12 13 5 2
BITMAP
0010
0020
0020
0040
0080
0100
0300
8600
8400
C800
5000
7000
2000
ENDCHAR
STARTCHAR 2756
ENCODING 10070
SWIDTH 1000 0
DWIDTH 20 0
BBX 18 17 1 0
BITMAP
00C000
01E000
03F000
07F800
03F000
19E600
3CCF00
7E1F80
FF3FC0
7E1F80
3CCF00
19E600
03F000
07F800
03F000
01E000
00C000
ENDCHAR
STARTCHAR 2776
ENCODING 10102
SWIDTH 1000 0
DWIDTH 20 0
BBX 18 19 1 -2
BITMAP
03F000
0FFC00
1FFE00
3F3F00
7C3F80
FD3FC0
FF3FC0
FF3FC0
FF3FC0
FF3FC0
FF3FC0
FF3FC0
FF3FC0
FF3FC0
7F3F80
3F3F00
1FFE00
0FFC00
03F000
ENDCHAR
STARTCHAR 2777
ENCODING 10103
SWIDTH 1000 0
DWIDTH 20 0
BBX 18 18 1 -1
BITMAP
03F000
0FFC00
3FFE00
3E1F00
7CE780
F9F7C0
F9F7C0
FFE7C0
FFC7C0
FF8FC0
FE3FC0
FC7FC0
FCFFC0
79FF80
380300
1FFE00
0FFC00
03F000
ENDCHAR
STARTCHAR 2778
ENCODING 10104
SWIDTH 1000 0
DWIDTH 20 0
BBX 18 19 1 -2
BITMAP
03F000
0FFC00
3FFE00
7E1F00
79E780
F9E7C0
FFE7C0
FFE7C0
FE0FC0
FE1FC0
FFE7C0
FFF3C0
F3F3C0
F9E7C0
780780
3E1F00
1FFE00
0FFC00
03F000
ENDCHAR
STARTCHAR 2779
ENCODING 10105
SWIDTH 1000 0
DWIDTH 20 0
BBX 18 19 1 -2
BITMAP
03F000
0FFC00
1FFE00
3F9F00
7F1F80
FF1FC0
FE5FC0
FCDFC0
FDDFC0
F9DFC0
F3DFC0
F003C0
F003C0
FFDFC0
7FDF80
3FDF00
1FFE00
0FFC00
03F000
ENDCHAR
STARTCHAR 277A
ENCODING 10106
SWIDTH 1000 0
DWIDTH 20 0
BBX 18 19 1 -2
BITMAP
03F000
0FFC00
3FFE00
7C0700
7C0780
F9FFC0
F9FFC0
F91FC0
F807C0
F9E7C0
FFF7C0
FFF3C0
FFF7C0
F9F7C0
7DEF80
3E1F00
1FFE00
0FFC00
03F000
ENDCHAR
STARTCHAR 277B
ENCODING 10107
SWIDTH 1000 0
DWIDTH 20 0
BBX 18 19 1 -2
BITMAP
03F000
0FFC00
1FFE00
3E1F00
7CE780
FDE7C0
F9FFC0
FBFFC0
FA1FC0
F8E7C0
F9E7C0
FBF7C0
FBF7C0
F9E7C0
7CEF80
3E1F00
1FFE00
0FFC00
03F000
ENDCHAR
STARTCHAR 277C
ENCODING 10108
SWIDTH 1000 0
DWIDTH 20 0
BBX 18 19 1 -2
BITMAP
03F000
0FFC00
1FFE00
3FFF00
780780
7FE7C0
FFE7C0
FFCFC0
FFCFC0
FFDFC0
FF9FC0
FFBFC0
FF3FC0
FF3FC0
7F7F80
3E7F00
1FFE00
0FFC00
03F000
ENDCHAR
STARTCHAR 277D
ENCODING 10109
SWIDTH 1000 0
DWIDTH 20 0
BBX 18 19 1 -2
BITMAP
03F000
0FFC00
1FFE00
3E1F00
79E780
FBF7C0
FBF7C0
F9E7C0
FC0FC0
FC0FC0
F9E7C0
F3F3C0
F3F3C0
FBF7C0
79E780
3E1F00
1FFE00
0FFC00
03F000
ENDCHAR
STARTCHAR 277E
ENCODING 10110
SWIDTH 1000 0
DWIDTH 20 0
BBX 18 18 1 -1
BITMAP
03F000
1FFC00
3E1E00
7C0F00
7CE780
F9E7C0
F9F7C0
F9E3C0
F8E3C0
FC03C0
FE13C0
FFF7C0
F9E7C0
7CC780
3C0F00
1E1E00
0FFC00
03F000
ENDCHAR
STARTCHAR 277F
ENCODING 10111
SWIDTH 1000 0
DWIDTH 20 0
BBX 18 19 1 -2
BITMAP
03F000
0FFC00
3FFE00
73C700
639B80
F339C0
F339C0
F33DC0
F33DC0
F33DC0
F33DC0
F33DC0
F339C0
F339C0
739B80
33C700
1FFE00
0FFC00
03F000
ENDCHAR
STARTCHAR 2934
ENCODING 10548
SWIDTH 500 0
DWIDTH 10 0
BBX 8 15 1 0
BITMAP
08
1C
3A
29
08
08
08
08
08
08
08
08
08
18
F0
ENDCHAR
STARTCHAR 2935
ENCODING 10549
SWIDTH 500 0
DWIDTH 10 0
BBX 8 15 1 0
BITMAP
F0
18
08
08
08
08
08
08
08
08
08
29
3A
1C
08
ENDCHAR
STARTCHAR 29BF
ENCODING 10687
SWIDTH 1000 0
DWIDTH 20 0
BBX 16 17 2 -1
BITMAP
07E0
1C38
300C
6006
4002
83C3
83C1
87E1
87E1
83C1
83C1
C003
4002
6006
300C
1C38
07E0
ENDCHAR
STARTCHAR 29FA
ENCODING 10746
SWIDTH 500 0
DWIDTH 10 0
BBX 8 12 1 2
BITMAP
24
24
24
24
24
24
FF
24
24
24
24
24
ENDCHAR
STARTCHAR 29FB
ENCODING 10747
SWIDTH 500 0
DWIDTH 10 0
BBX 8 12 1 2
BITMAP
5A
5A
5A
5A
5A
5A
FF
5A
5A
5A
5A
5A
ENDCHAR
STARTCHAR 3000
ENCODING 12288
SWIDTH 1000 0
DWIDTH 20 0
BBX 0 0 0 0
BITMAP
ENDCHAR
STARTCHAR 3001
ENCODING 12289
SWIDTH 1000 0
DWIDTH 20 0
BBX 4 4 1 0
BITMAP
C0
60
30
10
ENDCHAR
STARTCHAR 3002
ENCODING 12290
SWIDTH 1000 0
DWIDTH 20 0
BBX 5 5 1 -1
BITMAP
70
C8
88
88
70
ENDCHAR
STARTCHAR 3003
ENCODING 12291
SWIDTH 1000 0
DWIDTH 20 0
BBX 9 9 5 3
BITMAP
1980
1980
3100
3300
2300
6200
6600
4400
CC00
ENDCHAR
STARTCHAR 3005
ENCODING 12293
SWIDTH 1000 0
DWIDTH 20 0
BBX 13 13 3 1
BITMAP
0600
0400
0C00
0FF8
1818
1030
2020
6460
C6C0
0380
00C0
0060
0040
ENDCHAR
STARTCHAR 3006
ENCODING 12294
SWIDTH 1000 0
DWIDTH 20 0
BBX 14 15 3 0
BITMAP
0004
000C
0018
0030
1C60
33C0
2180
23C0
6360
4620
CC00
D800
B000
E000
C000
ENDCHAR
STARTCHAR 3007
ENCODING 12295
SWIDTH 1000 0
DWIDTH 20 0
BBX 16 17 2 -1
BITMAP
07E0
1C38
300C
6006
4002
C003
8001
8001
8001
8001
8001
C003
4002
6004
300C
1830
07E0
ENDCHAR
STARTCHAR 3008
ENCODING 12296
SWIDTH 1000 0
DWIDTH 20 0
BBX 8 18 11 -1
BITMAP
03
06
0C
08
18
30
60
40
C0
C0
40
60
30
18
08
0C
06
03
ENDCHAR
STARTCHAR 3009
ENCODING 12297
SWIDTH 1000 0
DWIDTH 20 0
BBX 8 18 1 -1
BITMAP
C0
60
30
10
18
0C
06
02
03
03
02
06
0C
18
10
30
60
C0
ENDCHAR
STARTCHAR 300A
ENCODING 12298
SWIDTH 1000 0
DWIDTH 20 0
BBX 8 18 11 -1
BITMAP
09
0B
12
34
24
68
48
D0
B0
B0
D0
48
68
24
34
12
0B
09
ENDCHAR
STARTCHAR 300B
ENCODING 12299
SWIDTH 1000 0
DWIDTH 20 0
BBX 8 18 1 -1
BITMAP
90
D0
48
2C
24
16
12
0B
0D
0D
0B
12
16
24
2C
48
D0
90
ENDCHAR
STARTCHAR 300C
ENCODING 12300
SWIDTH 1000 0
DWIDTH 20 0
BBX 5 15 13 2
BITMAP
F8
80
80
80
80
80
80
80
80
80
80
80
80
80
80
ENDCHAR
STARTCHAR 300D
ENCODING 12301
SWIDTH 1000 0
DWIDTH 20 0
BBX 5 14 2 -1
BITMAP
08
08
08
08
08
08
08
08
08
08
08
08
08
F8
ENDCHAR
STARTCHAR 300E
ENCODING 12302
SWIDTH 1000 0
DWIDTH 20 0
BBX 7 15 12 2
BITMAP
FE
82
82
BE
A0
A0
A0
A0
A0
A0
A0
A0
A0
A0
E0
ENDCHAR
STARTCHAR 300F
ENCODING 12303
SWIDTH 1000 0
DWIDTH 20 0
BBX 7 14 1 -1
BITMAP
0E
0A
0A
0A
0A
0A
0A
0A
0A
0A
0A
FA
82
FE
ENDCHAR
STARTCHAR 3010
ENCODING 12304
SWIDTH 1000 0
DWIDTH 20 0
BBX 4 18 14 -1
BITMAP
F0
E0
E0
C0
C0
C0
80
80
80
80
80
80
C0
C0
C0
E0
E0
F0
ENDCHAR
STARTCHAR 3011
ENCODING 12305
SWIDTH 1000 0
DWIDTH 20 0
BBX 4 18 2 -1
BITMAP
F0
70
70
30
30
30
10
10
10
10
10
10
30
30
30
70
70
F0
ENDCHAR
STARTCHAR 3012
ENCODING 12306
SWIDTH 1000 0
DWIDTH 20 0
BBX 14 16 3 -1
BITMAP
FFFC
FFFC
0000
0000
0000
FFFC
FFFC
0300
0300
0300
0300
0300
0300
0300
0300
0300
ENDCHAR
STARTCHAR 3013
ENCODING 12307
SWIDTH 1000 0
DWIDTH 20 0
BBX 14 9 3 3
BITMAP
FFFC
FFFC
FFFC
0000
0000
0000
FFFC
FFFC
FFFC
ENDCHAR
STARTCHAR 3014
ENCODING 12308
SWIDTH 1000 0
DWIDTH 20 0
BBX 4 17 14 0
BITMAP
30
E0
80
80
80
80
80
80
80
80
80
80
80
80
80
F0
30
ENDCHAR
STARTCHAR 3015
ENCODING 12309
SWIDTH 1000 0
DWIDTH 20 0
BBX 4 17 2 0
BITMAP
C0
70
10
10
10
10
10
10
10
10
10
10
10
10
10
F0
C0
ENDCHAR
STARTCHAR 3016
ENCODING 12310
SWIDTH 1000 0
DWIDTH 20 0
BBX 6 18 12 -1
BITMAP
FC
8C
88
90
90
90
B0
A0
A0
A0
A0
B0
90
90
90
88
8C
FC
ENDCHAR
STARTCHAR 3017
ENCODING 12311
SWIDTH 1000 0
DWIDTH 20 0
BBX 6 18 2 -1
BITMAP
FC
C4
44
24
24
24
34
14
14
14
14
34
24
24
24
44
C4
FC
ENDCHAR
STARTCHAR 3018
ENCODING 12312
SWIDTH 1000 0
DWIDTH 20 0
BBX 7 18 12 -2
BITMAP
02
0E
72
82
8E
90
90
90
90
90
90
90
90
90
8E
C2
32
0E
ENDCHAR
STARTCHAR 3019
ENCODING 12313
SWIDTH 1000 0
DWIDTH 20 0
BBX 7 18 1 -2
BITMAP
80
E0
9C
82
E2
12
12
12
12
12
12
12
12
12
E2
86
98
E0
ENDCHAR
STARTCHAR 301C
ENCODING 12316
SWIDTH 1000 0
DWIDTH 20 0
BBX 16 5 2 5
BITMAP
3C00
6300
8181
00C6
003C
ENDCHAR
STARTCHAR 301D
ENCODING 12317
SWIDTH 1000 0
DWIDTH 20 0
BBX 6 8 13 8
BITMAP
40
E0
30
18
44
E0
30
0C
ENDCHAR
STARTCHAR 301F
ENCODING 12319
SWIDTH 1000 0
DWIDTH 20 0
BBX 6 9 1 -2
BITMAP
80
60
30
1C
88
60
38
18
08
ENDCHAR
STARTCHAR 3020
ENCODING 12320
SWIDTH 1000 0
DWIDTH 20 0
BBX 18 14 1 0
BITMAP
3FFF00
3FFF00
000000
3FFF00
3FFF00
00C000
88C440
94CA40
88CC40
44C880
241100
122200
0DCC00
07F000
ENDCHAR
STARTCHAR 3033
ENCODING 12339
SWIDTH 1000 0
DWIDTH 20 0
BBX 9 17 4 -1
BITMAP
0180
0180
0180
0300
0300
0600
0600
0400
0C00
0C00
1800
1800
3000
3000
6000
6000
C000
ENDCHAR
STARTCHAR 3034
ENCODING 12340
SWIDTH 1000 0
DWIDTH 20 0
BBX 13 17 4 -1
BITMAP
0180
0180
0180
0300
0300
0600
0600
0430
0CD8
0C40
1860
1800
3000
3000
6000
6000
C000
ENDCHAR
STARTCHAR 3035
ENCODING 12341
SWIDTH 1000 0
DWIDTH 20 0
BBX 10 18 4 -1
BITMAP
C000
6000
6000
3000
3000
1800
1800
0C00
0C00
0600
0600
0300
0300
0180
0180
01C0
00C0
00C0
ENDCHAR
STARTCHAR 303B
ENCODING 12347
SWIDTH 1000 0
DWIDTH 20 0
BBX 7 13 7 1
BITMAP
C0
60
30
1C
78
C0
C0
40
60
18
3E
E0
80
ENDCHAR
STARTCHAR 303C
ENCODING 12348
SWIDTH 1000 0
DWIDTH 20 0
BBX 16 17 2 -1
BITMAP
FFFF
8003
8007
800D
8019
8031
8061
80C1
8181
8301
8601
8C01
9801
B001
E001
C001
FFFF
ENDCHAR
STARTCHAR 303D
ENCODING 12349
SWIDTH 1000 0
DWIDTH 20 0
BBX 15 17 3 -1
BITMAP
E000
B300
1480
1880
08C0
0040
0040
0060
0060
0020
0030
0030
0010
0018
0008
000C
0006
ENDCHAR
STARTCHAR 3041
ENCODING 12353
SWIDTH 1000 0
DWIDTH 20 0
BBX 12 13 4 -1
BITMAP
0800
0800
1F80
FE00
1900
1FC0
1B60
7230
5610
9410
9830
9860
E3C0
ENDCHAR
STARTCHAR 3042
ENCODING 12354
SWIDTH 1000 0
DWIDTH 20 0
BBX 16 17 2 -1
BITMAP
0600
0600
0470
7FE0
0400
0460
05F0
075C
1CC6
3483
6583
4703
C603
CC06
DC0C
7478
0040
ENDCHAR
STARTCHAR 3043
ENCODING 12355
SWIDTH 1000 0
DWIDTH 20 0
BBX 12 11 4 0
BITMAP
8000
80C0
8040
8060
C020
C030
C410
4400
6C00
3800
3800
ENDCHAR
STARTCHAR 3044
ENCODING 12356
SWIDTH 1000 0
DWIDTH 20 0
BBX 16 13 2 0
BITMAP
C000
C030
4018
400C
400C
4006
6006
6003
6103
2300
3200
1E00
1C00
ENDCHAR
STARTCHAR 3045
ENCODING 12357
SWIDTH 1000 0
DWIDTH 20 0
BBX 9 14 5 -1
BITMAP
1800
1E00
0200
0000
1F00
E180
8080
0080
0080
0180
0100
0300
0E00
1800
ENDCHAR
STARTCHAR 3046
ENCODING 12358
SWIDTH 1000 0
DWIDTH 20 0
BBX 11 17 4 -1
BITMAP
1800
0F00
0380
0000
0000
0F80
F040
C060
0020
0060
0060
0060
00C0
00C0
0380
0F00
0C00
ENDCHAR
STARTCHAR 3047
ENCODING 12359
SWIDTH 1000 0
DWIDTH 20 0
BBX 12 13 4 -1
BITMAP
0800
0E00
0300
0000
1F00
3900
0200
0400
0F00
1900
3100
6100
C1F0
ENDCHAR
STARTCHAR 3048
ENCODING 12360
SWIDTH 1000 0
DWIDTH 20 0
BBX 15 17 2 -1
BITMAP
0600
0780
01C0
0040
0000
3FE0
1E60
00C0
0180
0300
07C0
0E40
1840
3040
6040
C03E
4000
ENDCHAR
STARTCHAR 3049
ENCODING 12361
SWIDTH 1000 0
DWIDTH 20 0
BBX 12 12 4 0
BITMAP
1800
1840
1E60
FC30
1810
1FC0
1820
7830
D830
9830
D860
73C0
ENDCHAR
STARTCHAR 304A
ENCODING 12362
SWIDTH 1000 0
DWIDTH 20 0
BBX 16 15 2 0
BITMAP
0400
0400
041C
7FCE
7C03
0400
0400
07F8
0E0C
3406
6402
C406
C406
641C
3CF0
ENDCHAR
STARTCHAR 304B
ENCODING 12363
SWIDTH 1000 0
DWIDTH 20 0
BBX 17 16 2 0
BITMAP
040000
060000
060000
040800
040C00
FF8600
CC4600
086300
186180
186180
106000
306000
204000
60C000
44C000
478000
ENDCHAR
STARTCHAR 304C
ENCODING 12364
SWIDTH 1000 0
DWIDTH 20 0
BBX 17 16 2 1
BITMAP
040180
060480
060600
041A00
041800
FF8C00
CC4600
086200
186300
186100
106000
306000
204000
60C000
44C000
478000
ENDCHAR
STARTCHAR 304D
ENCODING 12365
SWIDTH 1000 0
DWIDTH 20 0
BBX 13 17 4 -1
BITMAP
1800
0C40
0DE0
FF00
E610
03F8
0FC0
FD80
0080
00C0
03E0
40E0
4000
4000
6000
3040
0FC0
ENDCHAR
STARTCHAR 304E
ENCODING 12366
SWIDTH 1000 0
DWIDTH 20 0
BBX 15 17 4 0
BITMAP
1816
0C5A
0DEC
FF00
E610
03F8
0FC0
FD80
0080
00C0
03E0
40E0
4000
4000
6000
3040
0FC0
ENDCHAR
STARTCHAR 304F
ENCODING 12367
SWIDTH 1000 0
DWIDTH 20 0
BBX 9 16 5 0
BITMAP
0300
0600
0C00
1800
3000
6000
C000
C000
6000
3000
1800
0C00
0600
0300
0380
0100
ENDCHAR
STARTCHAR 3050
ENCODING 12368
SWIDTH 1000 0
DWIDTH 20 0
BBX 13 16 5 0
BITMAP
0300
0610
0CD8
1868
3020
6000
C000
C000
6000
3000
1800
0C00
0600
0300
0380
0100
ENDCHAR
STARTCHAR 3051
ENCODING 12369
SWIDTH 1000 0
DWIDTH 20 0
BBX 15 16 3 -1
BITMAP
6030
4030
4030
C030
C03E
C7F0
8010
8010
8010
B030
A030
E030
E060
40E0
41C0
0100
ENDCHAR
STARTCHAR 3052
ENCODING 12370
SWIDTH 1000 0
DWIDTH 20 0
BBX 16 17 3 0
BITMAP
000D
6035
4034
4030
C030
C03E
C7F0
8030
8030
8030
B030
A030
E020
E060
40C0
41C0
0300
ENDCHAR
STARTCHAR 3053
ENCODING 12371
SWIDTH 1000 0
DWIDTH 20 0
BBX 12 14 4 0
BITMAP
4060
7FE0
0300
0600
0000
0000
0000
4000
C000
8000
8000
8000
6030
1FF0
ENDCHAR
STARTCHAR 3054
ENCODING 12372
SWIDTH 1000 0
DWIDTH 20 0
BBX 15 16 4 0
BITMAP
0004
0016
405A
7FE8
0300
0600
0000
0000
0000
4000
C000
8000
8000
8000
6030
1FF0
ENDCHAR
STARTCHAR 3055
ENCODING 12373
SWIDTH 1000 0
DWIDTH 20 0
BBX 13 16 3 0
BITMAP
0600
0600
0218
0378
FFC0
FD80
00C0
0040
0060
01F0
0078
6010
6000
2000
1800
07E0
ENDCHAR
STARTCHAR 3056
ENCODING 12374
SWIDTH 1000 0
DWIDTH 20 0
BBX 16 17 3 0
BITMAP
0002
060B
0605
0216
0378
FFC0
FD80
00C0
0040
0060
01F0
0078
6010
6000
2000
1800
07E0
ENDCHAR
STARTCHAR 3057
ENCODING 12375
SWIDTH 1000 0
DWIDTH 20 0
BBX 12 16 5 -1
BITMAP
C000
C000
C000
C000
C000
C000
C000
C000
C000
C000
C010
C030
4060
4040
6180
1E00
ENDCHAR
STARTCHAR 3058
ENCODING 12376
SWIDTH 1000 0
DWIDTH 20 0
BBX 12 16 5 -1
BITMAP
C060
C030
C190
C0C0
C000
C000
C000
C000
C000
C000
C010
C030
4060
4040
6180
1E00
ENDCHAR
STARTCHAR 3059
ENCODING 12377
SWIDTH 1000 0
DWIDTH 20 0
BBX 16 18 2 -2
BITMAP
00C0
00C0
00C0
00CF
FFFF
00C0
00C0
07C0
0CC0
0840
08C0
0CC0
07C0
00C0
0080
0380
0F00
0400
ENDCHAR
STARTCHAR 305A
ENCODING 12378
SWIDTH 1000 0
DWIDTH 20 0
BBX 17 19 2 -2
BITMAP
000200
00C900
00CD80
00C400
00CF00
FFFF00
00C000
00C000
07C000
0CC000
084000
08C000
0CC000
07C000
00C000
008000
038000
0F0000
040000
ENDCHAR
STARTCHAR 305B
ENCODING 12379
SWIDTH 1000 0
DWIDTH 20 0
BBX 17 15 1 0
BITMAP
000800
0C0800
0C0800
0C0800
0C0F80
FFFF80
0C0800
0C0800
0C0800
0C5800
0C7800
0C0000
0C0000
040000
03FE00
ENDCHAR
STARTCHAR 305C
ENCODING 12380
SWIDTH 1000 0
DWIDTH 20 0
BBX 18 15 1 1
BITMAP
0008C0
0C0B40
0C0900
0C0800
0C0F80
FFFF80
0C0800
0C0800
0C0800
0C5800
0C7800
0C0000
0C0000
040000
03FE00
ENDCHAR
STARTCHAR 305D
ENCODING 12381
SWIDTH 1000 0
DWIDTH 20 0
BBX 15 16 2 -1
BITMAP
03F0
1FB0
0060
00C0
0100
067E
7FF0
F0C0
0100
0300
0200
0200
0300
0380
00F8
0038
ENDCHAR
STARTCHAR 305E
ENCODING 12382
SWIDTH 1000 0
DWIDTH 20 0
BBX 17 16 2 -1
BITMAP
03F100
1FB580
006680
00C200
010000
067E00
7FF000
F0C000
010000
030000
020000
020000
030000
038000
00F800
003800
ENDCHAR
STARTCHAR 305F
ENCODING 12383
SWIDTH 1000 0
DWIDTH 20 0
BBX 16 16 2 0
BITMAP
0600
0600
0400
0780
FF80
0C00
081E
18FE
1800
1000
3000
3000
2100
6180
4081
C07F
ENDCHAR
STARTCHAR 3060
ENCODING 12384
SWIDTH 1000 0
DWIDTH 20 0
BBX 16 16 2 0
BITMAP
0602
060B
0409
078C
FF80
0C00
081E
18FE
1800
1000
3000
3000
2100
6180
4081
C07F
ENDCHAR
STARTCHAR 3061
ENCODING 12385
SWIDTH 1000 0
DWIDTH 20 0
BBX 15 16 2 0
BITMAP
0600
0600
0400
FFF0
FF80
0C00
0800
0800
19F8
170C
3806
1006
0006
000C
003C
07F0
ENDCHAR
STARTCHAR 3062
ENCODING 12386
SWIDTH 1000 0
DWIDTH 20 0
BBX 17 16 2 0
BITMAP
060100
060580
040680
FFF200
FF8000
0C0000
080000
080000
19F800
170C00
380600
100600
000600
000C00
003C00
07F000
ENDCHAR
STARTCHAR 3063
ENCODING 12387
SWIDTH 1000 0
DWIDTH 20 0
BBX 12 9 4 1
BITMAP
1FC0
F060
8030
0030
0030
0030
0060
01C0
1F00
ENDCHAR
STARTCHAR 3064
ENCODING 12388
SWIDTH 1000 0
DWIDTH 20 0
BBX 15 12 2 1
BITMAP
03F0
7C0C
E006
8006
0002
0002
0006
0006
000C
0038
07F0
0780
ENDCHAR
STARTCHAR 3065
ENCODING 12389
SWIDTH 1000 0
DWIDTH 20 0
BBX 17 16 2 1
BITMAP
000200
000300
000D80
000600
03F000
7C0C00
E00600
800600
000200
000200
000600
000600
000C00
003800
07F000
078000
ENDCHAR
STARTCHAR 3066
ENCODING 12390
SWIDTH 1000 0
DWIDTH 20 0
BBX 15 14 2 0
BITMAP
01FE
FFF8
E0C0
0180
0300
0200
0600
0600
0600
0600
0200
0300
01E0
0078
ENDCHAR
STARTCHAR 3067
ENCODING 12391
SWIDTH 1000 0
DWIDTH 20 0
BBX 16 14 2 0
BITMAP
01FE
FFF8
E0C0
0186
031B
020D
0604
0600
0600
0600
0200
0300
01E0
0078
ENDCHAR
STARTCHAR 3068
ENCODING 12392
SWIDTH 1000 0
DWIDTH 20 0
BBX 12 16 4 0
BITMAP
1000
3000
1000
1800
1800
0860
0FE0
0F00
3800
6000
C000
8000
8000
8000
E010
3FF0
ENDCHAR
STARTCHAR 3069
ENCODING 12393
SWIDTH 1000 0
DWIDTH 20 0
BBX 14 16 4 0
BITMAP
1008
302C
1034
1818
1800
0860
0FE0
0F00
3800
6000
C000
8000
8000
8000
E010
3FF0
ENDCHAR
STARTCHAR 306A
ENCODING 12394
SWIDTH 1000 0
DWIDTH 20 0
BBX 16 17 2 -1
BITMAP
0600
0400
0400
0F88
7F0E
0803
1831
1030
3030
2030
6030
41F0
C63C
043F
0633
0730
01E0
ENDCHAR
STARTCHAR 306B
ENCODING 12395
SWIDTH 1000 0
DWIDTH 20 0
BBX 15 15 3 0
BITMAP
6000
4000
43FC
C380
C000
C000
8000
8000
8000
B200
A200
E200
C300
C0FE
C000
ENDCHAR
STARTCHAR 306C
ENCODING 12396
SWIDTH 1000 0
DWIDTH 20 0
BBX 17 16 2 0
BITMAP
008000
00C000
408000
41E000
67F800
398C00
318600
710300
530300
DA0300
8E0300
8C7A00
8E8E00
988700
708D80
007800
ENDCHAR
STARTCHAR 306D
ENCODING 12397
SWIDTH 1000 0
DWIDTH 20 0
BBX 17 16 2 0
BITMAP
080000
080000
180000
187800
FD8400
DB0600
1E0200
1C0200
180300
380300
780200
D87A00
D88E00
998700
188D80
087800
ENDCHAR
STARTCHAR 306E
ENCODING 12398
SWIDTH 1000 0
DWIDTH 20 0
BBX 16 14 2 0
BITMAP
07F0
1C9C
3186
6182
4183
C103
C103
8303
8203
C603
C406
6C1C
38F8
00E0
ENDCHAR
STARTCHAR 306F
ENCODING 12399
SWIDTH 1000 0
DWIDTH 20 0
BBX 16 15 2 0
BITMAP
2010
2010
6010
601E
43FE
4010
4010
4010
C010
D010
51F0
621C
6617
6311
61F0
ENDCHAR
STARTCHAR 3070
ENCODING 12400
SWIDTH 1000 0
DWIDTH 20 0
BBX 17 17 2 0
BITMAP
000100
000580
201680
201200
601000
601E00
43FE00
401000
401000
401000
C01000
D01000
51F000
621C00
661700
621100
61E000
ENDCHAR
STARTCHAR 3071
ENCODING 12401
SWIDTH 1000 0
DWIDTH 20 0
BBX 17 17 2 0
BITMAP
000380
000480
201480
201380
601000
601E00
43FE00
401000
401000
401000
C01000
D01000
51F000
621C00
661700
621100
61E000
ENDCHAR
STARTCHAR 3072
ENCODING 12402
SWIDTH 1000 0
DWIDTH 20 0
BBX 17 15 1 -1
BITMAP
030800
0F0C00
FA0C00
460E00
0C0B00
080B00
180D80
100C80
300C00
300800
300800
101800
181000
0C3000
07C000
ENDCHAR
STARTCHAR 3073
ENCODING 12403
SWIDTH 1000 0
DWIDTH 20 0
BBX 18 17 1 -1
BITMAP
000080
0002C0
030B40
0F0D00
FA0C00
460E00
0C0B00
080B00
180D80
100C80
300C00
300800
300800
101800
181000
0C3000
07C000
ENDCHAR
STARTCHAR 3074
ENCODING 12404
SWIDTH 1000 0
DWIDTH 20 0
BBX 19 17 1 -1
BITMAP
0001C0
000240
030A20
0F0E40
FA0DC0
460E00
0C0B00
080B00
180D80
100C80
300C00
300800
300800
101800
181000
0C3000
07C000
ENDCHAR
STARTCHAR 3075
ENCODING 12405
SWIDTH 1000 0
DWIDTH 20 0
BBX 17 16 1 0
BITMAP
030000
03C000
00E000
002000
000000
018000
018000
008400
18C600
304300
306300
603180
603080
C43080
063000
03E000
ENDCHAR
STARTCHAR 3076
ENCODING 12406
SWIDTH 1000 0
DWIDTH 20 0
BBX 17 16 1 0
BITMAP
030180
03C680
00E280
002200
000000
018000
018000
008400
18C600
304300
306300
603180
603080
C43080
063000
03E000
ENDCHAR
STARTCHAR 3077
ENCODING 12407
SWIDTH 1000 0
DWIDTH 20 0
BBX 17 16 1 0
BITMAP
030300
03C480
00E480
002480
000300
018000
018000
008400
18C600
304300
306300
603180
603080
C43080
063000
03E000
ENDCHAR
STARTCHAR 3078
ENCODING 12408
SWIDTH 1000 0
DWIDTH 20 0
BBX 17 9 2 3
BITMAP
060000
0F0000
198000
30C000
607000
C03800
800E00
000780
000100
ENDCHAR
STARTCHAR 3079
ENCODING 12409
SWIDTH 1000 0
DWIDTH 20 0
BBX 17 11 2 3
BITMAP
000C00
003600
061A00
0F0800
198000
30C000
607000
C03800
800E00
000780
000100
ENDCHAR
STARTCHAR 307A
ENCODING 12410
SWIDTH 1000 0
DWIDTH 20 0
BBX 17 11 2 3
BITMAP
000E00
001200
061200
0F0E00
198000
30C000
607000
C03800
800E00
000780
000100
ENDCHAR
STARTCHAR 307B
ENCODING 12411
SWIDTH 1000 0
DWIDTH 20 0
BBX 16 15 2 0
BITMAP
6006
63FE
6010
4010
4013
47FF
C010
C010
C010
D010
F3F0
E61C
6617
6611
63F0
ENDCHAR
STARTCHAR 307C
ENCODING 12412
SWIDTH 1000 0
DWIDTH 20 0
BBX 18 17 2 0
BITMAP
000100
000280
6006C0
63FD00
601000
401000
401200
47FF00
C01000
C01000
C01000
D01000
F3F000
E61C00
661700
661100
63F000
ENDCHAR
STARTCHAR 307D
ENCODING 12413
SWIDTH 1000 0
DWIDTH 20 0
BBX 18 17 2 0
BITMAP
000380
000440
600440
63FB80
601000
401000
401200
47FF00
C01000
C01000
C01000
D01000
F3F000
E61C00
661700
661100
63F000
ENDCHAR
STARTCHAR 307E
ENCODING 12414
SWIDTH 1000 0
DWIDTH 20 0
BBX 14 16 3 0
BITMAP
0100
0100
010C
FFFC
0180
0180
0198
7FF8
0180
0180
0180
3F80
61E0
41B8
619C
3F00
ENDCHAR
STARTCHAR 307F
ENCODING 12415
SWIDTH 1000 0
DWIDTH 20 0
BBX 17 14 2 0
BITMAP
3F8000
308000
018000
018400
010400
030400
3FFC00
663C00
C40F00
8C0B80
881800
983000
606000
00C000
ENDCHAR
STARTCHAR 3080
ENCODING 12416
SWIDTH 1000 0
DWIDTH 20 0
BBX 17 16 2 0
BITMAP
080000
080000
088000
FF8C00
080600
080300
080180
780100
C80000
880800
880C00
D80C00
700C00
100C00
181800
0FF000
ENDCHAR
STARTCHAR 3081
ENCODING 12417
SWIDTH 1000 0
DWIDTH 20 0
BBX 16 15 2 1
BITMAP
0040
2040
20C0
37F8
3C8E
3086
7983
5903
CF03
8E03
8603
8E06
9A0E
703C
00F0
ENDCHAR
STARTCHAR 3082
ENCODING 12418
SWIDTH 1000 0
DWIDTH 20 0
BBX 13 17 3 -1
BITMAP
0400
0400
0C00
0C00
FFC0
0C00
0800
0800
F9C0
FFD8
1808
1808
1808
1808
0818
0C30
03E0
ENDCHAR
STARTCHAR 3083
ENCODING 12419
SWIDTH 1000 0
DWIDTH 20 0
BBX 13 14 3 -1
BITMAP
0200
0300
3180
10F0
1F08
3C08
E808
0C38
04F0
0600
0600
0200
0300
0300
ENDCHAR
STARTCHAR 3084
ENCODING 12420
SWIDTH 1000 0
DWIDTH 20 0
BBX 16 17 2 -1
BITMAP
0100
01C0
30E0
1040
187E
1F83
3C03
FC01
8403
060E
067C
0200
0300
0300
0100
0180
0180
ENDCHAR
STARTCHAR 3085
ENCODING 12421
SWIDTH 1000 0
DWIDTH 20 0
BBX 12 13 4 -1
BITMAP
0300
C100
C7C0
9D60
B130
A110
C110
C930
8D20
87C0
C200
0600
0C00
ENDCHAR
STARTCHAR 3086
ENCODING 12422
SWIDTH 1000 0
DWIDTH 20 0
BBX 16 16 2 -1
BITMAP
0040
6040
6040
41F8
476E
4C62
5863
D063
E063
6463
6666
43FC
40F0
40C0
0180
0380
ENDCHAR
STARTCHAR 3087
ENCODING 12423
SWIDTH 1000 0
DWIDTH 20 0
BBX 11 12 4 0
BITMAP
0600
0600
0600
07E0
0600
0600
0600
0600
7F00
C7C0
C660
3C00
ENDCHAR
STARTCHAR 3088
ENCODING 12424
SWIDTH 1000 0
DWIDTH 20 0
BBX 13 16 3 0
BITMAP
0300
0300
0300
0300
03F8
03C0
0300
0300
0300
0300
3F00
C3C0
83F0
8318
C208
3E00
ENDCHAR
STARTCHAR 3089
ENCODING 12425
SWIDTH 1000 0
DWIDTH 20 0
BBX 13 17 4 -1
BITMAP
1800
0E00
0300
4100
6000
6000
4000
4000
47E0
DC30
F018
E018
0018
0030
00F0
0FC0
0E00
ENDCHAR
STARTCHAR 308A
ENCODING 12426
SWIDTH 1000 0
DWIDTH 20 0
BBX 11 16 4 -1
BITMAP
4060
4060
4060
4060
C060
C060
C860
C860
5860
7060
6060
00C0
00C0
0180
0700
0E00
ENDCHAR
STARTCHAR 308B
ENCODING 12427
SWIDTH 1000 0
DWIDTH 20 0
BBX 14 16 3 -1
BITMAP
03C0
3FC0
01C0
0180
0300
0600
0FE0
1C18
3008
E00C
C00C
0F0C
1198
10B8
18F0
0FC0
ENDCHAR
STARTCHAR 308C
ENCODING 12428
SWIDTH 1000 0
DWIDTH 20 0
BBX 17 17 2 -1
BITMAP
080000
080000
080000
087000
FD8800
8B0800
0E0800
0C1800
181800
381800
781800
781800
D81980
981B80
181F00
180C00
180000
ENDCHAR
STARTCHAR 308D
ENCODING 12429
SWIDTH 1000 0
DWIDTH 20 0
BBX 13 16 4 -1
BITMAP
0380
7FC0
0180
0300
0600
0C00
1BE0
3C30
7018
C018
8018
0018
0030
00F0
1FC0
1C00
ENDCHAR
STARTCHAR 308E
ENCODING 12430
SWIDTH 1000 0
DWIDTH 20 0
BBX 13 12 4 0
BITMAP
1000
1000
1000
FBE0
3C30
3810
3018
7010
F010
B030
30E0
3180
ENDCHAR
STARTCHAR 308F
ENCODING 12431
SWIDTH 1000 0
DWIDTH 20 0
BBX 16 16 2 0
BITMAP
0C00
0800
0800
0800
FC00
ECFC
0B86
0E03
0C03
1801
3803
6803
C806
880E
0878
0860
ENDCHAR
STARTCHAR 3090
ENCODING 12432
SWIDTH 1000 0
DWIDTH 20 0
BBX 16 16 2 -1
BITMAP
01C0
1FC0
00C0
00C0
0080
07F0
1D0C
3306
6303
4203
C603
CCF3
C89B
D98E
708C
0078
ENDCHAR
STARTCHAR 3091
ENCODING 12433
SWIDTH 1000 0
DWIDTH 20 0
BBX 18 16 1 -1
BITMAP
003000
0FF000
006000
018000
03F800
070600
1C0600
33C600
244600
04CC00
03F000
060000
1F1E00
31A300
60C180
C0C0C0
ENDCHAR
STARTCHAR 3092
ENCODING 12434
SWIDTH 1000 0
DWIDTH 20 0
BBX 14 17 3 -1
BITMAP
0600
0400
04C0
FFC0
0800
1800
3700
398C
60F8
41C0
C780
0C80
1880
1800
1800
0C08
07F8
ENDCHAR
STARTCHAR 3093
ENCODING 12435
SWIDTH 1000 0
DWIDTH 20 0
BBX 16 16 2 -1
BITMAP
0180
0100
0300
0200
0600
0400
0C00
0B80
1CC0
18C0
3041
3043
6043
4046
C064
4038
ENDCHAR
STARTCHAR 3094
ENCODING 12436
SWIDTH 1000 0
DWIDTH 20 0
BBX 15 17 4 -1
BITMAP
180C
0F16
039A
0008
0000
0F80
F040
C060
0020
0060
0060
0060
00C0
00C0
0380
0F00
0C00
ENDCHAR
STARTCHAR 3095
ENCODING 12437
SWIDTH 1000 0
DWIDTH 20 0
BBX 12 13 4 0
BITMAP
1800
1800
1000
1040
FE60
3230
2310
2310
6300
4300
C200
9200
9C00
ENDCHAR
STARTCHAR 3096
ENCODING 12438
SWIDTH 1000 0
DWIDTH 20 0
BBX 13 14 4 -1
BITMAP
60C0
40C0
4040
4058
CFF8
C040
C040
C040
E040
E0C0
E080
4180
4300
0200
ENDCHAR
STARTCHAR 3099
ENCODING 12441
SWIDTH 1000 0
DWIDTH 20 0
BBX 5 4 13 13
BITMAP
18
C8
68
20
ENDCHAR
STARTCHAR 309A
ENCODING 12442
SWIDTH 1000 0
DWIDTH 20 0
BBX 4 5 14 12
BITMAP
60
90
90
90
60
ENDCHAR
STARTCHAR 309B
ENCODING 12443
SWIDTH 1000 0
DWIDTH 20 0
BBX 5 5 1 12
BITMAP
20
30
98
C0
40
ENDCHAR
STARTCHAR 309C
ENCODING 12444
SWIDTH 1000 0
DWIDTH 20 0
BBX 4 5 1 12
BITMAP
60
90
90
90
60
ENDCHAR
STARTCHAR 309D
ENCODING 12445
SWIDTH 1000 0
DWIDTH 20 0
BBX 8 10 6 3
BITMAP
C0
70
18
0C
06
03
03
06
3C
70
ENDCHAR
STARTCHAR 309E
ENCODING 12446
SWIDTH 1000 0
DWIDTH 20 0
BBX 10 13 6 2
BITMAP
0100
0180
06C0
C300
7100
1800
0C00
0600
0300
0300
0600
3C00
7000
ENDCHAR
STARTCHAR 309F
ENCODING 12447
SWIDTH 1000 0
DWIDTH 20 0
BBX 11 17 5 -1
BITMAP
0C00
0800
1800
1FE0
1000
3000
2000
6F00
7180
C080
80C0
00C0
0080
4080
4180
6300
3C00
ENDCHAR
STARTCHAR 30A0
ENCODING 12448
SWIDTH 1000 0
DWIDTH 20 0
BBX 8 5 6 5
BITMAP
FF
00
00
00
FF
ENDCHAR
STARTCHAR 30A1
ENCODING 12449
SWIDTH 1000 0
DWIDTH 20 0
BBX 12 12 4 -1
BITMAP
FFE0
FFF0
0020
0460
04C0
0580
0C00
0C00
0800
1800
7000
6000
ENDCHAR
STARTCHAR 30A2
ENCODING 12450
SWIDTH 1000 0
DWIDTH 20 0
BBX 15 15 3 -1
BITMAP
FFFC
FFFE
000C
0218
0218
0230
0260
0200
0600
0600
0C00
0C00
1800
7000
2000
ENDCHAR
STARTCHAR 30A3
ENCODING 12451
SWIDTH 1000 0
DWIDTH 20 0
BBX 10 13 4 -1
BITMAP
0040
00C0
0180
0300
0E00
1E00
7600
C600
0600
0600
0600
0600
0600
ENDCHAR
STARTCHAR 30A4
ENCODING 12452
SWIDTH 1000 0
DWIDTH 20 0
BBX 12 16 3 -1
BITMAP
0030
0030
0060
00C0
0380
0700
0D00
3900
E100
C100
0100
0100
0100
0100
0100
0100
ENDCHAR
STARTCHAR 30A5
ENCODING 12453
SWIDTH 1000 0
DWIDTH 20 0
BBX 10 14 5 -1
BITMAP
0C00
0C00
0C00
FFC0
8040
80C0
80C0
80C0
0180
0180
0300
0E00
3C00
1000
ENDCHAR
STARTCHAR 30A6
ENCODING 12454
SWIDTH 1000 0
DWIDTH 20 0
BBX 13 17 3 -1
BITMAP
0300
0300
0300
0300
FFF8
C008
C008
C018
C018
C018
0030
0030
0060
00C0
0180
0F00
0C00
ENDCHAR
STARTCHAR 30A7
ENCODING 12455
SWIDTH 1000 0
DWIDTH 20 0
BBX 14 9 3 1
BITMAP
3FF0
0300
0300
0300
0300
0300
0300
0300
FFFC
ENDCHAR
STARTCHAR 30A8
ENCODING 12456
SWIDTH 1000 0
DWIDTH 20 0
BBX 16 11 2 2
BITMAP
7FFE
0180
0180
0180
0180
0180
0180
0180
0180
0180
FFFF
ENDCHAR
STARTCHAR 30A9
ENCODING 12457
SWIDTH 1000 0
DWIDTH 20 0
BBX 12 12 4 0
BITMAP
0100
0100
0100
FFF0
0300
0700
0D00
1900
3100
E100
8100
0F00
ENDCHAR
STARTCHAR 30AA
ENCODING 12458
SWIDTH 1000 0
DWIDTH 20 0
BBX 15 16 2 0
BITMAP
0060
0060
0060
0060
007E
FFE0
00E0
01E0
0360
0660
0E60
1C60
3060
E060
0060
03C0
ENDCHAR
STARTCHAR 30AB
ENCODING 12459
SWIDTH 1000 0
DWIDTH 20 0
BBX 13 16 3 0
BITMAP
0200
0200
0200
0200
03F8
FE08
0608
0608
0408
0408
0C08
0808
1818
3018
6118
C1F0
ENDCHAR
STARTCHAR 30AC
ENCODING 12460
SWIDTH 1000 0
DWIDTH 20 0
BBX 16 17 3 0
BITMAP
0006
020B
0209
0204
0200
03F8
FE08
0608
0608
0408
0408
0C08
0808
1818
3018
6118
C1F0
ENDCHAR
STARTCHAR 30AD
ENCODING 12461
SWIDTH 1000 0
DWIDTH 20 0
BBX 16 17 2 -1
BITMAP
0200
0200
0300
0318
07F8
7F00
0100
0180
019F
07FC
FF80
4080
00C0
00C0
00C0
0040
0040
ENDCHAR
STARTCHAR 30AE
ENCODING 12462
SWIDTH 1000 0
DWIDTH 20 0
BBX 17 18 2 -1
BITMAP
000200
020100
020580
030600
031800
07FC00
7F0000
010000
018000
019F00
07FC00
FF8000
408000
00C000
00C000
00C000
004000
004000
ENDCHAR
STARTCHAR 30AF
ENCODING 12463
SWIDTH 1000 0
DWIDTH 20 0
BBX 13 15 3 1
BITMAP
0600
0600
0FF8
0818
1818
3010
6030
C030
0060
00C0
01C0
0380
0700
1E00
1800
ENDCHAR
STARTCHAR 30B0
ENCODING 12464
SWIDTH 1000 0
DWIDTH 20 0
BBX 16 17 3 0
BITMAP
0002
0003
060D
0606
0FF8
0818
1818
3010
6030
C030
0060
00C0
01C0
0380
0700
1E00
1800
ENDCHAR
STARTCHAR 30B1
ENCODING 12465
SWIDTH 1000 0
DWIDTH 20 0
BBX 16 16 2 0
BITMAP
0400
0400
0C00
0C00
1FFF
1820
3020
6060
C060
0060
0040
00C0
0180
0300
0E00
0C00
ENDCHAR
STARTCHAR 30B2
ENCODING 12466
SWIDTH 1000 0
DWIDTH 20 0
BBX 17 17 2 0
BITMAP
000200
040B00
040580
0C0600
0C0000
1FFF00
182000
302000
606000
C06000
006000
004000
00C000
018000
030000
0E0000
0C0000
ENDCHAR
STARTCHAR 30B3
ENCODING 12467
SWIDTH 1000 0
DWIDTH 20 0
BBX 13 13 3 0
BITMAP
FFF8
0018
0018
0018
0018
0018
0018
0018
0018
0018
FFF8
0018
0018
ENDCHAR
STARTCHAR 30B4
ENCODING 12468
SWIDTH 1000 0
DWIDTH 20 0
BBX 16 17 3 0
BITMAP
0002
000B
000D
0006
FFF8
0018
0018
0018
0018
0018
0018
0018
0018
0018
FFF8
0018
0018
ENDCHAR
STARTCHAR 30B5
ENCODING 12469
SWIDTH 1000 0
DWIDTH 20 0
BBX 16 16 2 -1
BITMAP
0830
0830
0830
0830
FFFF
0830
0830
0830
0830
0830
0020
0060
00C0
01C0
0300
0200
ENDCHAR
STARTCHAR 30B6
ENCODING 12470
SWIDTH 1000 0
DWIDTH 20 0
BBX 17 17 2 -1
BITMAP
000100
083580
083280
083200
083000
FFFF00
083000
083000
083000
083000
083000
002000
006000
00C000
01C000
030000
020000
ENDCHAR
STARTCHAR 30B7
ENCODING 12471
SWIDTH 1000 0
DWIDTH 20 0
BBX 14 15 3 0
BITMAP
3000
3800
0E00
0400
8004
E004
700C
1018
0030
0060
00C0
0380
0F00
FC00
6000
ENDCHAR
STARTCHAR 30B8
ENCODING 12472
SWIDTH 1000 0
DWIDTH 20 0
BBX 15 16 3 1
BITMAP
0006
3012
380A
0E08
0400
8004
E004
700C
1018
0030
0060
00C0
0380
0F00
FC00
6000
ENDCHAR
STARTCHAR 30B9
ENCODING 12473
SWIDTH 1000 0
DWIDTH 20 0
BBX 15 14 3 0
BITMAP
7FE0
7FF0
0060
0060
00C0
00C0
0180
0380
06C0
0E60
1C30
301C
E00E
8004
ENDCHAR
STARTCHAR 30BA
ENCODING 12474
SWIDTH 1000 0
DWIDTH 20 0
BBX 16 16 3 1
BITMAP
000A
000B
7FEC
7FF0
0060
0060
00C0
00C0
0180
0380
06C0
0E60
1C30
301C
E00E
8004
ENDCHAR
STARTCHAR 30BB
ENCODING 12475
SWIDTH 1000 0
DWIDTH 20 0
BBX 15 15 2 0
BITMAP
0C00
0C00
0C00
0C00
0FFE
FFC6
CC0C
0C18
0C30
0C20
0C00
0C00
0C00
0406
07FE
ENDCHAR
STARTCHAR 30BC
ENCODING 12476
SWIDTH 1000 0
DWIDTH 20 0
BBX 17 16 2 1
BITMAP
000300
0C0D80
0C0400
0C0400
0C0000
0FFE00
FFC600
CC0C00
0C1800
0C3000
0C2000
0C0000
0C0000
0C0000
040600
07FE00
ENDCHAR
STARTCHAR 30BD
ENCODING 12477
SWIDTH 1000 0
DWIDTH 20 0
BBX 13 14 4 0
BITMAP
8018
C010
C030
6030
6030
2060
0060
00C0
01C0
0180
0300
0E00
1C00
3000
ENDCHAR
STARTCHAR 30BE
ENCODING 12478
SWIDTH 1000 0
DWIDTH 20 0
BBX 16 17 4 0
BITMAP
0004
001A
000B
8000
C018
C030
6030
6030
2060
0060
00C0
01C0
0180
0300
0E00
1C00
3000
ENDCHAR
STARTCHAR 30BF
ENCODING 12479
SWIDTH 1000 0
DWIDTH 20 0
BBX 13 16 3 -1
BITMAP
0600
0400
0FF8
0818
1818
3C10
6630
C330
81E0
00C0
00C0
0180
0700
0E00
3800
2000
ENDCHAR
STARTCHAR 30C0
ENCODING 12480
SWIDTH 1000 0
DWIDTH 20 0
BBX 16 18 3 -1
BITMAP
0002
000B
060D
0405
0FF8
0818
1818
3C10
6630
C330
81E0
00C0
00C0
0180
0700
0E00
3800
2000
ENDCHAR
STARTCHAR 30C1
ENCODING 12481
SWIDTH 1000 0
DWIDTH 20 0
BBX 16 15 2 0
BITMAP
0038
03F0
3F80
0080
0080
0080
FFFF
0080
0180
0180
0180
0300
0700
1E00
1800
ENDCHAR
STARTCHAR 30C2
ENCODING 12482
SWIDTH 1000 0
DWIDTH 20 0
BBX 17 16 2 0
BITMAP
000100
003580
03F680
3F8200
008000
008000
008000
FFFF00
008000
018000
018000
018000
030000
070000
1E0000
180000
ENDCHAR
STARTCHAR 30C3
ENCODING 12483
SWIDTH 1000 0
DWIDTH 20 0
BBX 12 11 4 1
BITMAP
0C30
C420
4660
6460
4040
00C0
0180
0380
0700
1C00
1800
ENDCHAR
STARTCHAR 30C4
ENCODING 12484
SWIDTH 1000 0
DWIDTH 20 0
BBX 14 15 3 0
BITMAP
0400
0C0C
C60C
C608
4318
6218
4018
0030
0030
0060
00E0
01C0
0380
0E00
1C00
ENDCHAR
STARTCHAR 30C5
ENCODING 12485
SWIDTH 1000 0
DWIDTH 20 0
BBX 16 17 3 0
BITMAP
000A
000D
0405
0C00
C60C
C608
4318
6218
4018
0030
0030
0060
00E0
01C0
0380
0E00
1C00
ENDCHAR
STARTCHAR 30C6
ENCODING 12486
SWIDTH 1000 0
DWIDTH 20 0
BBX 16 14 2 0
BITMAP
3FF8
0000
0000
0000
FFFF
0180
0180
0180
0180
0300
0300
0E00
1C00
1000
ENDCHAR
STARTCHAR 30C7
ENCODING 12487
SWIDTH 1000 0
DWIDTH 20 0
BBX 17 16 2 1
BITMAP
000180
000680
3FFA00
000000
000000
000000
FFFF00
018000
018000
018000
018000
030000
030000
0E0000
1C0000
100000
ENDCHAR
STARTCHAR 30C8
ENCODING 12488
SWIDTH 1000 0
DWIDTH 20 0
BBX 9 17 7 -1
BITMAP
C000
C000
C000
C000
C000
C000
E000
F800
DE00
C700
C380
C080
C000
C000
C000
C000
C000
ENDCHAR
STARTCHAR 30C9
ENCODING 12489
SWIDTH 1000 0
DWIDTH 20 0
BBX 11 17 7 -1
BITMAP
C000
C0C0
C360
C120
C100
C000
E000
F800
DE00
C700
C380
C080
C000
C000
C000
C000
C000
ENDCHAR
STARTCHAR 30CA
ENCODING 12490
SWIDTH 1000 0
DWIDTH 20 0
BBX 16 16 2 0
BITMAP
0080
0080
0080
0080
0080
FFFF
0080
0080
0180
0180
0180
0300
0300
0600
1C00
0800
ENDCHAR
STARTCHAR 30CB
ENCODING 12491
SWIDTH 1000 0
DWIDTH 20 0
BBX 16 10 2 2
BITMAP
3FFC
0000
0000
0000
0000
0000
0000
0000
0000
FFFF
ENDCHAR
STARTCHAR 30CC
ENCODING 12492
SWIDTH 1000 0
DWIDTH 20 0
BBX 12 14 4 0
BITMAP
FFF0
0020
0060
0060
1040
38C0
0F80
0780
0380
07C0
0C60
3870
7020
C000
ENDCHAR
STARTCHAR 30CD
ENCODING 12493
SWIDTH 1000 0
DWIDTH 20 0
BBX 16 17 2 -1
BITMAP
0600
0700
01C0
0000
3FFC
0018
0030
00E0
0180
07B8
1D8C
F187
4182
0180
0180
0180
0180
ENDCHAR
STARTCHAR 30CE
ENCODING 12494
SWIDTH 1000 0
DWIDTH 20 0
BBX 11 13 4 0
BITMAP
0060
0060
0040
00C0
00C0
0180
0180
0300
0600
0E00
1C00
3800
E000
ENDCHAR
STARTCHAR 30CF
ENCODING 12495
SWIDTH 1000 0
DWIDTH 20 0
BBX 16 10 2 2
BITMAP
0C30
0830
1818
180C
300C
3006
6006
6003
C003
8000
ENDCHAR
STARTCHAR 30D0
ENCODING 12496
SWIDTH 1000 0
DWIDTH 20 0
BBX 17 14 2 2
BITMAP
000300
000900
000D80
000600
0C3000
083000
181800
180C00
300C00
300600
600600
600300
C00300
800000
ENDCHAR
STARTCHAR 30D1
ENCODING 12497
SWIDTH 1000 0
DWIDTH 20 0
BBX 16 14 2 2
BITMAP
0007
0009
0009
0007
0C30
0830
1818
180C
300C
3006
6006
6003
C003
8000
ENDCHAR
STARTCHAR 30D2
ENCODING 12498
SWIDTH 1000 0
DWIDTH 20 0
BBX 13 15 4 0
BITMAP
C000
C000
C000
C030
C1E0
C780
FC00
E000
C000
C000
C000
C000
C000
4038
3FF0
ENDCHAR
STARTCHAR 30D3
ENCODING 12499
SWIDTH 1000 0
DWIDTH 20 0
BBX 15 16 4 0
BITMAP
000C
C036
C01A
C008
C030
C1E0
C780
FC00
E000
C000
C000
C000
C000
C000
4038
3FF0
ENDCHAR
STARTCHAR 30D4
ENCODING 12500
SWIDTH 1000 0
DWIDTH 20 0
BBX 15 16 4 0
BITMAP
000E
C012
C012
C00E
C030
C1E0
C780
FC00
E000
C000
C000
C000
C000
C000
4038
3FF0
ENDCHAR
STARTCHAR 30D5
ENCODING 12501
SWIDTH 1000 0
DWIDTH 20 0
BBX 13 13 3 0
BITMAP
FFF8
0008
0018
0018
0010
0030
0030
0060
00C0
0180
0700
1E00
3800
ENDCHAR
STARTCHAR 30D6
ENCODING 12502
SWIDTH 1000 0
DWIDTH 20 0
BBX 16 17 3 0
BITMAP
0002
000B
0005
0004
FFF8
0018
0018
0010
0030
0030
0060
0060
00C0
0180
0700
1E00
3800
ENDCHAR
STARTCHAR 30D7
ENCODING 12503
SWIDTH 1000 0
DWIDTH 20 0
BBX 17 17 3 0
BITMAP
000700
000880
000880
000700
FFF800
001800
001800
001000
003000
003000
006000
006000
00C000
018000
070000
1E0000
380000
ENDCHAR
STARTCHAR 30D8
ENCODING 12504
SWIDTH 1000 0
DWIDTH 20 0
BBX 16 9 2 3
BITMAP
0600
0F00
1980
30E0
6070
C038
800E
0007
0003
ENDCHAR
STARTCHAR 30D9
ENCODING 12505
SWIDTH 1000 0
DWIDTH 20 0
BBX 16 11 2 3
BITMAP
0006
0012
061B
0F0C
1980
30E0
6070
C038
800E
0007
0003
ENDCHAR
STARTCHAR 30DA
ENCODING 12506
SWIDTH 1000 0
DWIDTH 20 0
BBX 16 12 2 3
BITMAP
001C
0012
0022
0612
0F1C
1980
30E0
6070
C038
800E
0007
0003
ENDCHAR
STARTCHAR 30DB
ENCODING 12507
SWIDTH 1000 0
DWIDTH 20 0
BBX 16 16 2 0
BITMAP
0180
0180
0180
0180
7FFE
0180
0180
1198
118C
318C
3186
6186
E183
C182
0180
0F80
ENDCHAR
STARTCHAR 30DC
ENCODING 12508
SWIDTH 1000 0
DWIDTH 20 0
BBX 17 17 2 0
BITMAP
000300
018D00
018580
018600
018000
7FFE00
018000
018000
119800
118C00
318C00
318600
618600
E18300
C18200
018000
0F8000
ENDCHAR
STARTCHAR 30DD
ENCODING 12509
SWIDTH 1000 0
DWIDTH 20 0
BBX 16 17 2 0
BITMAP
0007
0189
0189
0187
0180
7FFE
0180
0180
1198
118C
318C
3186
6186
E183
C182
0180
0F80
ENDCHAR
STARTCHAR 30DE
ENCODING 12510
SWIDTH 1000 0
DWIDTH 20 0
BBX 15 12 2 0
BITMAP
FFFE
FFFE
000C
001C
0018
1830
0CE0
07C0
0300
0180
00C0
0060
ENDCHAR
STARTCHAR 30DF
ENCODING 12511
SWIDTH 1000 0
DWIDTH 20 0
BBX 11 15 4 0
BITMAP
3000
7E00
07C0
00E0
0000
3000
3E00
0780
0080
0000
E000
7C00
0F00
03C0
00E0
ENDCHAR
STARTCHAR 30E0
ENCODING 12512
SWIDTH 1000 0
DWIDTH 20 0
BBX 16 14 2 1
BITMAP
0100
0100
0300
0300
0200
0600
0620
0C30
0C18
081C
180C
187E
FFF3
F803
ENDCHAR
STARTCHAR 30E1
ENCODING 12513
SWIDTH 1000 0
DWIDTH 20 0
BBX 12 15 3 -1
BITMAP
0030
0030
0060
0060
1840
0CC0
0780
0380
03C0
0660
0E30
1C10
3800
7000
C000
ENDCHAR
STARTCHAR 30E2
ENCODING 12514
SWIDTH 1000 0
DWIDTH 20 0
BBX 16 14 2 0
BITMAP
3FFC
0300
0300
0300
0300
FFFF
0300
0300
0300
0300
0300
0300
0304
01FC
ENDCHAR
STARTCHAR 30E3
ENCODING 12515
SWIDTH 1000 0
DWIDTH 20 0
BBX 13 13 3 -1
BITMAP
0800
0800
0C38
0FF8
FC10
0430
0460
06C0
0600
0200
0200
0300
0200
ENDCHAR
STARTCHAR 30E4
ENCODING 12516
SWIDTH 1000 0
DWIDTH 20 0
BBX 16 16 2 -1
BITMAP
0C00
0C00
0400
043F
0FFE
FE06
C60C
020C
0318
0310
0300
0100
0100
0180
0180
0180
ENDCHAR
STARTCHAR 30E5
ENCODING 12517
SWIDTH 1000 0
DWIDTH 20 0
BBX 14 9 3 1
BITMAP
3FC0
0040
0040
0040
0040
00C0
00C0
00C0
FFFC
ENDCHAR
STARTCHAR 30E6
ENCODING 12518
SWIDTH 1000 0
DWIDTH 20 0
BBX 16 11 2 2
BITMAP
3FF0
0010
0030
0030
0030
0030
0030
0030
0030
0020
FFFF
ENDCHAR
STARTCHAR 30E7
ENCODING 12519
SWIDTH 1000 0
DWIDTH 20 0
BBX 10 11 5 0
BITMAP
FFC0
00C0
00C0
00C0
7FC0
00C0
00C0
00C0
00C0
FFC0
00C0
ENDCHAR
STARTCHAR 30E8
ENCODING 12520
SWIDTH 1000 0
DWIDTH 20 0
BBX 13 14 3 0
BITMAP
7FF8
0018
0018
0018
0018
0018
7FF8
0018
0018
0018
0018
0018
FFF8
0018
ENDCHAR
STARTCHAR 30E9
ENCODING 12521
SWIDTH 1000 0
DWIDTH 20 0
BBX 14 14 3 0
BITMAP
3FF0
0000
0000
0000
FFFC
000C
0008
0018
0030
0070
00E0
01C0
0700
0E00
ENDCHAR
STARTCHAR 30EA
ENCODING 12522
SWIDTH 1000 0
DWIDTH 20 0
BBX 9 16 5 -1
BITMAP
C080
C080
C080
C080
C080
C080
C080
C080
C080
0180
0180
0100
0300
0600
1C00
1800
ENDCHAR
STARTCHAR 30EB
ENCODING 12523
SWIDTH 1000 0
DWIDTH 20 0
BBX 17 15 2 0
BITMAP
008000
188000
188000
188000
188000
188000
188000
188180
108300
108600
308C00
309800
60F000
C0E000
800000
ENDCHAR
STARTCHAR 30EC
ENCODING 12524
SWIDTH 1000 0
DWIDTH 20 0
BBX 12 15 5 0
BITMAP
C000
C000
C000
C000
C000
C000
C010
C030
C060
C0C0
C380
C700
DC00
F000
C000
ENDCHAR
STARTCHAR 30ED
ENCODING 12525
SWIDTH 1000 0
DWIDTH 20 0
BBX 12 12 4 1
BITMAP
FFF0
8010
8010
8010
8010
8010
8010
8010
8010
8010
FFF0
8010
ENDCHAR
STARTCHAR 30EE
ENCODING 12526
SWIDTH 1000 0
DWIDTH 20 0
BBX 10 12 5 -1
BITMAP
FFC0
8040
80C0
80C0
80C0
8080
0180
0300
0300
0E00
1C00
1000
ENDCHAR
STARTCHAR 30EF
ENCODING 12527
SWIDTH 1000 0
DWIDTH 20 0
BBX 14 14 3 0
BITMAP
FFFC
C00C
C008
C008
C018
C018
C010
0030
0030
0060
00C0
0180
0700
0E00
ENDCHAR
STARTCHAR 30F0
ENCODING 12528
SWIDTH 1000 0
DWIDTH 20 0
BBX 16 17 2 -1
BITMAP
0060
0060
0060
0060
7FFE
1860
1860
1860
1860
1860
1860
FFFF
0060
0060
0060
0060
0060
ENDCHAR
STARTCHAR 30F1
ENCODING 12529
SWIDTH 1000 0
DWIDTH 20 0
BBX 16 12 2 1
BITMAP
7FFE
0006
000C
0198
01B8
01F0
01A0
0180
0180
0180
0180
FFFF
ENDCHAR
STARTCHAR 30F2
ENCODING 12530
SWIDTH 1000 0
DWIDTH 20 0
BBX 12 14 4 0
BITMAP
FFF0
0010
0010
0030
0030
FFE0
0060
0060
00C0
0180
0380
0700
3C00
7000
ENDCHAR
STARTCHAR 30F3
ENCODING 12531
SWIDTH 1000 0
DWIDTH 20 0
BBX 13 14 4 0
BITMAP
8000
E000
7008
1008
0018
0030
0030
0060
00C0
0380
0F00
3C00
F000
8000
ENDCHAR
STARTCHAR 30F4
ENCODING 12532
SWIDTH 1000 0
DWIDTH 20 0
BBX 16 18 3 -1
BITMAP
000A
030B
030D
0304
0300
FFF8
C008
C008
C018
C018
C018
0030
0030
0060
00C0
0180
0F00
0C00
ENDCHAR
STARTCHAR 30F5
ENCODING 12533
SWIDTH 1000 0
DWIDTH 20 0
BBX 11 12 4 0
BITMAP
0400
0400
0400
FFE0
0C20
0C20
0C60
0860
1860
3060
6260
C3C0
ENDCHAR
STARTCHAR 30F6
ENCODING 12534
SWIDTH 1000 0
DWIDTH 20 0
BBX 12 13 4 -1
BITMAP
1800
1800
1000
3FF0
6180
6180
C100
0100
0300
0600
0E00
1C00
1000
ENDCHAR
STARTCHAR 30F7
ENCODING 12535
SWIDTH 1000 0
DWIDTH 20 0
BBX 16 17 3 0
BITMAP
000A
000D
0007
FFF8
C00C
C008
C018
C018
C018
C010
0030
0030
0060
00C0
0180
0700
0E00
ENDCHAR
STARTCHAR 30F8
ENCODING 12536
SWIDTH 1000 0
DWIDTH 20 0
BBX 17 18 2 -1
BITMAP
000300
006D00
006580
006600
006000
7FFE00
186000
186000
186000
186000
186000
186000
FFFF00
006000
006000
006000
006000
006000
ENDCHAR
STARTCHAR 30F9
ENCODING 12537
SWIDTH 1000 0
DWIDTH 20 0
BBX 17 16 2 1
BITMAP
000100
000580
000280
000200
7FFE00
000600
000C00
019800
01B800
01F000
01A000
018000
018000
018000
018000
FFFF00
ENDCHAR
STARTCHAR 30FA
ENCODING 12538
SWIDTH 1000 0
DWIDTH 20 0
BBX 15 17 4 0
BITMAP
0004
001E
000A
FFF0
0010
0030
0030
0030
FFE0
0060
0060
00C0
0180
0380
0600
3C00
7000
ENDCHAR
STARTCHAR 30FB
ENCODING 12539
SWIDTH 1000 0
DWIDTH 20 0
BBX 2 3 9 6
BITMAP
C0
C0
C0
ENDCHAR
STARTCHAR 30FC
ENCODING 12540
SWIDTH 1000 0
DWIDTH 20 0
BBX 16 1 2 7
BITMAP
FFFF
ENDCHAR
STARTCHAR 30FD
ENCODING 12541
SWIDTH 1000 0
DWIDTH 20 0
BBX 9 9 5 3
BITMAP
C000
E000
3000
1800
0C00
0600
0300
0180
0100
ENDCHAR
STARTCHAR 30FE
ENCODING 12542
SWIDTH 1000 0
DWIDTH 20 0
BBX 10 11 5 3
BITMAP
0180
00C0
C640
E100
3100
1800
0C00
0600
0300
0180
0100
ENDCHAR
STARTCHAR 30FF
ENCODING 12543
SWIDTH 1000 0
DWIDTH 20 0
BBX 11 16 4 -1
BITMAP
FFE0
0020
0020
0020
0020
0020
0020
0020
0020
0020
0020
0020
0020
0020
0020
0020
ENDCHAR
STARTCHAR 31F0
ENCODING 12784
SWIDTH 1000 0
DWIDTH 20 0
BBX 11 12 4 -1
BITMAP
0400
0C00
0FE0
1860
3040
60C0
C0C0
0180
0300
0600
0C00
3800
ENDCHAR
STARTCHAR 31F1
ENCODING 12785
SWIDTH 1000 0
DWIDTH 20 0
BBX 13 12 4 0
BITMAP
1000
3800
0C00
0410
E018
3030
1060
00C0
0180
0700
1E00
3800
ENDCHAR
STARTCHAR 31F2
ENCODING 12786
SWIDTH 1000 0
DWIDTH 20 0
BBX 12 11 4 0
BITMAP
7F80
7FC0
0080
0180
0100
0300
0700
0D80
18E0
7070
C020
ENDCHAR
STARTCHAR 31F3
ENCODING 12787
SWIDTH 1000 0
DWIDTH 20 0
BBX 7 12 8 0
BITMAP
80
80
80
80
E0
F8
9C
86
80
80
80
80
ENDCHAR
STARTCHAR 31F4
ENCODING 12788
SWIDTH 1000 0
DWIDTH 20 0
BBX 9 11 5 0
BITMAP
FF80
0180
0180
2100
3B00
0E00
0600
0F00
3980
6080
C000
ENDCHAR
STARTCHAR 31F5
ENCODING 12789
SWIDTH 1000 0
DWIDTH 20 0
BBX 14 8 3 2
BITMAP
08C0
1860
1860
3030
3030
6018
6018
C00C
ENDCHAR
STARTCHAR 31F6
ENCODING 12790
SWIDTH 1000 0
DWIDTH 20 0
BBX 10 11 6 1
BITMAP
8000
8000
8100
8780
BC00
F000
8000
8000
8000
8000
FFC0
ENDCHAR
STARTCHAR 31F7
ENCODING 12791
SWIDTH 1000 0
DWIDTH 20 0
BBX 10 11 5 0
BITMAP
FFC0
FFC0
00C0
00C0
0080
0180
0300
0700
0E00
3800
7000
ENDCHAR
STARTCHAR 31F8
ENCODING 12792
SWIDTH 1000 0
DWIDTH 20 0
BBX 14 8 3 2
BITMAP
0E00
0F00
1B80
31C0
E060
4038
001C
0008
ENDCHAR
STARTCHAR 31F9
ENCODING 12793
SWIDTH 1000 0
DWIDTH 20 0
BBX 12 12 4 0
BITMAP
0600
0600
0600
FFF0
0600
26C0
2640
6660
4630
C630
8600
1E00
ENDCHAR
STARTCHAR 31FA
ENCODING 12794
SWIDTH 1000 0
DWIDTH 20 0
BBX 13 12 4 0
BITMAP
0600
0400
0C00
0C00
0800
1980
10C0
3060
3060
3FF0
FC18
0010
ENDCHAR
STARTCHAR 31FB
ENCODING 12795
SWIDTH 1000 0
DWIDTH 20 0
BBX 11 11 4 0
BITMAP
3FC0
0000
0000
FFE0
0020
0060
00C0
01C0
0380
0E00
1C00
ENDCHAR
STARTCHAR 31FC
ENCODING 12796
SWIDTH 1000 0
DWIDTH 20 0
BBX 7 12 6 0
BITMAP
C2
C2
C2
C2
C2
C2
C2
02
06
0C
1C
30
ENDCHAR
STARTCHAR 31FD
ENCODING 12797
SWIDTH 1000 0
DWIDTH 20 0
BBX 13 12 4 0
BITMAP
0300
1300
1300
1300
3300
3308
3318
3330
2360
63C0
C380
8100
ENDCHAR
STARTCHAR 31FE
ENCODING 12798
SWIDTH 1000 0
DWIDTH 20 0
BBX 10 11 6 0
BITMAP
C000
C000
C000
C000
C040
C0C0
C180
C700
CE00
F800
E000
ENDCHAR
STARTCHAR 31FF
ENCODING 12799
SWIDTH 1000 0
DWIDTH 20 0
BBX 10 10 5 1
BITMAP
FFC0
8040
8040
8040
8040
8040
8040
8040
FFC0
8040
ENDCHAR
STARTCHAR 3231
ENCODING 12849
SWIDTH 1000 0
DWIDTH 20 0
BBX 18 18 1 -1
BITMAP
200100
241100
445080
445080
C4FEC0
BF9040
8C9040
8C1040
8EFF40
971840
953840
A43440
A45640
C4D3C0
459380
441080
241100
200100
ENDCHAR
STARTCHAR 3232
ENCODING 12850
SWIDTH 1000 0
DWIDTH 20 0
BBX 18 18 1 -1
BITMAP
200100
218100
410080
410080
DFFEC0
830040
820040
87FC40
8E0440
8A0440
9BFC40
B20440
A20440
C3FCC0
420480
420480
223D00
200100
ENDCHAR
STARTCHAR 3239
ENCODING 12857
SWIDTH 1000 0
DWIDTH 20 0
BBX 18 18 1 -1
BITMAP
200100
266100
466880
446C80
CC64C0
8C6040
8FFE40
9DE040
9C2040
BC2040
AC2040
8C2040
8C3040
CC12C0
4C1A80
4C1E80
2C0D00
200100
ENDCHAR
STARTCHAR 3251
ENCODING 12881
SWIDTH 1000 0
DWIDTH 20 0
BBX 18 19 1 -2
BITMAP
03F000
0C0C00
300200
6E0900
491880
D90840
910840
830840
830840
860840
860840
8C0840
880840
980840
580880
3F0900
100200
0C0C00
03F000
ENDCHAR
STARTCHAR 3252
ENCODING 12882
SWIDTH 1000 0
DWIDTH 20 0
BBX 18 19 1 -2
BITMAP
03F000
0C0C00
300300
6E1D80
592680
D926C0
912640
830640
830C40
860C40
861840
8C1840
883040
983080
582080
3F3F00
100200
0C0C00
03F000
ENDCHAR
STARTCHAR 3253
ENCODING 12883
SWIDTH 1000 0
DWIDTH 20 0
BBX 18 19 1 -2
BITMAP
03F000
1C0C00
300200
6F3D00
492480
D96640
910640
830440
831840
860440
860640
8C0640
886640
986640
582480
3F3D00
100200
0C0C00
03F000
ENDCHAR
STARTCHAR 3254
ENCODING 12884
SWIDTH 1000 0
DWIDTH 20 0
BBX 18 19 1 -2
BITMAP
03F000
0C0C00
300200
6F0D00
490C80
D90C40
991440
811440
833440
862440
862440
8C4440
8C7E40
880440
580480
3F8500
100200
0C0C00
03F000
ENDCHAR
STARTCHAR 3255
ENCODING 12885
SWIDTH 1000 0
DWIDTH 20 0
BBX 18 19 1 -2
BITMAP
03F000
0C0C00
300200
6F3D00
492080
D92040
992040
813C40
832640
862240
860240
8C0240
8C2240
882640
582480
3F9D00
100200
0C0C00
03F000
ENDCHAR
STARTCHAR 3256
ENCODING 12886
SWIDTH 1000 0
DWIDTH 20 0
BBX 18 19 1 -2
BITMAP
03F000
0C0C00
300200
2F1D00
493680
D92640
912040
836040
837C40
866640
866240
8C6240
886240
982240
582680
3F1D00
100200
0C0C00
03F000
ENDCHAR
STARTCHAR 3257
ENCODING 12887
SWIDTH 1000 0
DWIDTH 20 0
BBX 18 19 1 -2
BITMAP
03F000
0C0C00
300200
6F7F00
490480
D90440
990C40
810C40
830840
860840
861840
8C1840
8C1040
881040
581080
3FB100
100200
0C0C00
03F000
ENDCHAR
STARTCHAR 3258
ENCODING 12888
SWIDTH 1000 0
DWIDTH 20 0
BBX 18 19 1 -2
BITMAP
03F000
0C0C00
300200
6F1D00
492480
D92640
992640
812640
831C40
862440
862240
8C6240
8C6240
886240
582680
3F9D00
100200
0C0C00
03F000
ENDCHAR
STARTCHAR 3259
ENCODING 12889
SWIDTH 1000 0
DWIDTH 20 0
BBX 18 19 1 -2
BITMAP
03F000
0C0C00
300200
6E1D00
492680
D92240
916240
836240
832240
862640
861A40
8C0240
880240
982640
582480
3F1D00
100200
0C0C00
03F000
ENDCHAR
STARTCHAR 325A
ENCODING 12890
SWIDTH 1000 0
DWIDTH 20 0
BBX 18 19 1 -2
BITMAP
03F000
1C0C00
300200
6E1D00
593480
912240
812240
832240
862240
836240
812240
812240
912240
912240
593680
2E1D00
100200
0C0C00
03F000
ENDCHAR
STARTCHAR 325B
ENCODING 12891
SWIDTH 1000 0
DWIDTH 20 0
BBX 18 19 1 -2
BITMAP
03F000
0C0C00
300200
6F0900
591880
990840
810840
830840
860840
810840
810840
818840
918840
910840
590880
2E0900
100200
0C0C00
03F000
ENDCHAR
STARTCHAR 325C
ENCODING 12892
SWIDTH 1000 0
DWIDTH 20 0
BBX 18 19 1 -2
BITMAP
03F000
1C0C00
300200
6E1D00
592680
9126C0
812640
830640
860C40
830C40
811840
811840
913040
913040
592080
2E3F00
100200
0C0C00
03F000
ENDCHAR
STARTCHAR 325D
ENCODING 12893
SWIDTH 1000 0
DWIDTH 20 0
BBX 18 19 1 -2
BITMAP
03F000
1C0C00
300200
6E1D00
592680
912640
810640
830440
861840
830440
810640
810640
916240
916640
592680
2E1D00
100200
0C0C00
03F000
ENDCHAR
STARTCHAR 325E
ENCODING 12894
SWIDTH 1000 0
DWIDTH 20 0
BBX 18 19 1 -2
BITMAP
03F000
0C0C00
300200
6E0D00
590C80
910C40
811440
831440
861440
832440
812440
816440
917E40
910440
590480
2E0500
100200
0C0C00
03F000
ENDCHAR
STARTCHAR 325F
ENCODING 12895
SWIDTH 1000 0
DWIDTH 20 0
BBX 18 18 1 -1
BITMAP
03F000
0C0C00
300200
6E3D00
592080
912040
812040
833C40
862640
810640
810240
810640
912640
592480
2E1D00
100200
0C0C00
03F000
ENDCHAR
STARTCHAR 32A4
ENCODING 12964
SWIDTH 1000 0
DWIDTH 20 0
BBX 18 18 1 -1
BITMAP
03F000
0C0C00
100200
208100
408080
808040
808040
80FC40
808040
808040
808040
808040
808040
5FFE80
200100
300200
0C0C00
03F000
ENDCHAR
STARTCHAR 32A5
ENCODING 12965
SWIDTH 1000 0
DWIDTH 20 0
BBX 18 19 1 -2
BITMAP
03F000
0C0C00
100200
20C100
40C080
9FFE40
98C640
98C640
98C640
98C640
9FFE40
98C640
80C040
80C040
40C080
20C100
100200
0C0C00
03F000
ENDCHAR
STARTCHAR 32A6
ENCODING 12966
SWIDTH 1000 0
DWIDTH 20 0
BBX 18 19 1 -2
BITMAP
03F000
1C0C00
300200
600100
5FFE80
808040
808040
80C040
80F040
809840
808C40
808040
808040
808040
408080
208100
100200
0C0C00
03F000
ENDCHAR
STARTCHAR 32A7
ENCODING 12967
SWIDTH 1000 0
DWIDTH 20 0
BBX 18 19 1 -2
BITMAP
03F000
0C0C00
100200
218100
410080
9FFE40
830040
830040
820040
87FC40
844040
8C4040
984040
904040
47FE80
200100
100200
0C0C00
03F000
ENDCHAR
STARTCHAR 32A8
ENCODING 12968
SWIDTH 1000 0
DWIDTH 20 0
BBX 18 19 1 -2
BITMAP
03F000
0C0C00
300200
618100
418080
9FFE40
830040
820040
820040
87FC40
8E0440
9A0440
B20440
820440
43FC80
220500
100200
0C0C00
03F000
ENDCHAR
STARTCHAR 32B1
ENCODING 12977
SWIDTH 1000 0
DWIDTH 20 0
BBX 18 19 1 -2
BITMAP
03F000
0C0C00
300200
2E1D00
593680
912640
812040
836040
867C40
836640
816240
816240
916240
912240
592480
2E1D00
100200
0C0C00
03F000
ENDCHAR
STARTCHAR 32B2
ENCODING 12978
SWIDTH 1000 0
DWIDTH 20 0
BBX 18 19 1 -2
BITMAP
03F000
0C0C00
300200
6E7D00
590480
910440
810C40
830840
860840
830840
811840
811840
911040
911040
591080
2E3100
100200
0C0C00
03F000
ENDCHAR
STARTCHAR 32B3
ENCODING 12979
SWIDTH 1000 0
DWIDTH 20 0
BBX 18 19 1 -2
BITMAP
03F000
1C0C00
300200
6E1D00
592480
912640
812640
832440
841C40
832640
816240
816240
916240
912240
592680
2E1D00
100200
0C0C00
03F000
ENDCHAR
STARTCHAR 32B4
ENCODING 12980
SWIDTH 1000 0
DWIDTH 20 0
BBX 18 19 1 -2
BITMAP
03F000
1C0C00
300200
6E1D00
592680
912240
816240
832240
862640
831A40
810240
810240
910240
912240
592480
2E1D00
100200
0C0C00
03F000
ENDCHAR
STARTCHAR 32B5
ENCODING 12981
SWIDTH 1000 0
DWIDTH 20 0
BBX 18 19 1 -2
BITMAP
03F000
0C0C00
300200
621D00
462480
862640
8E2240
8A6240
8A6240
926240
926240
B26240
BF2240
822640
422480
221D00
100200
0C0C00
03F000
ENDCHAR
STARTCHAR 32B6
ENCODING 12982
SWIDTH 1000 0
DWIDTH 20 0
BBX 18 19 1 -2
BITMAP
03F000
0C0C00
300200
630900
431880
871840
870840
8B0840
8B0840
9B0840
930840
B30840
BF8840
830840
430880
230900
100200
0C0C00
03F000
ENDCHAR
STARTCHAR 32B7
ENCODING 12983
SWIDTH 1000 0
DWIDTH 20 0
BBX 18 19 1 -2
BITMAP
03F000
0C0C00
300200
621D00
462680
8626C0
8E2640
8A0640
8A0C40
920C40
921840
B21840
BF3040
823040
422080
223F00
100200
0C0C00
03F000
ENDCHAR
STARTCHAR 32B8
ENCODING 12984
SWIDTH 1000 0
DWIDTH 20 0
BBX 18 19 1 -2
BITMAP
03F000
0C0C00
300200
623D00
462480
866640
8E0640
8A0440
8A1840
920440
920640
B20640
BF6640
826640
422480
223D00
100200
0C0C00
03F000
ENDCHAR
STARTCHAR 32B9
ENCODING 12985
SWIDTH 1000 0
DWIDTH 20 0
BBX 18 19 1 -2
BITMAP
03F000
0C0C00
300200
620500
460C80
860C40
8E1C40
8A1440
9A3440
922440
922440
B26440
BF7E40
820440
420480
220500
100200
0C0C00
03F000
ENDCHAR
STARTCHAR 32BA
ENCODING 12986
SWIDTH 1000 0
DWIDTH 20 0
BBX 18 19 1 -2
BITMAP
03F000
0C0C00
300200
663D00
462080
862040
8A2040
8A3C40
9A2440
922640
920640
A20640
BF6640
822640
422480
221D00
100200
0C0C00
03F000
ENDCHAR
STARTCHAR 32BB
ENCODING 12987
SWIDTH 1000 0
DWIDTH 20 0
BBX 18 19 1 -2
BITMAP
03F000
0C0C00
300200
661D00
462480
862640
8A6040
8A6040
9A7C40
926640
926240
A26240
BF6240
822240
422680
221D00
100200
0C0C00
03F000
ENDCHAR
STARTCHAR 32BC
ENCODING 12988
SWIDTH 1000 0
DWIDTH 20 0
BBX 18 19 1 -2
BITMAP
03F000
0C0C00
300200
627D00
460480
860440
860C40
8A0840
8A0840
9A0840
921840
921840
BF9040
821040
421080
223100
100200
0C0C00
03F000
ENDCHAR
STARTCHAR 32BD
ENCODING 12989
SWIDTH 1000 0
DWIDTH 20 0
BBX 18 19 1 -2
BITMAP
03F000
0C0C00
300200
621D00
462480
862640
8E2640
8A2640
8A3C40
922440
922240
B26240
BF6240
826240
422680
221D00
100200
0C0C00
03F000
ENDCHAR
STARTCHAR 32BE
ENCODING 12990
SWIDTH 1000 0
DWIDTH 20 0
BBX 18 19 1 -2
BITMAP
03F000
0C0C00
300200
621D00
462680
862240
8E6240
8A6240
8A2240
922640
921A40
B20240
BF0240
822240
422480
221D00
100200
0C0C00
03F000
ENDCHAR
STARTCHAR 32BF
ENCODING 12991
SWIDTH 1000 0
DWIDTH 20 0
BBX 18 18 1 -1
BITMAP
03F000
0C0C00
300200
7F1D00
583680
982240
902240
962240
992240
812240
812240
812240
912240
593680
2E1D00
100200
0C0C00
03F000
ENDCHAR
STARTCHAR 32D0
ENCODING 13008
SWIDTH 1000 0
DWIDTH 20 0
BBX 18 19 1 -2
BITMAP
03F000
0C0C00
100200
200100
47FE80
9FFE40
800640
80CC40
80CC40
80D840
809040
808040
818040
830040
470080
240100
100200
0C0C00
03F000
ENDCHAR
STARTCHAR 32D1
ENCODING 13009
SWIDTH 1000 0
DWIDTH 20 0
BBX 18 19 1 -2
BITMAP
03F000
1C0C00
300200
601900
403080
806040
80C040
81C040
874040
9C4040
984040
804040
804040
804040
404080
204100
100200
0C0C00
03F000
ENDCHAR
STARTCHAR 32D2
ENCODING 13010
SWIDTH 1000 0
DWIDTH 20 0
BBX 18 18 1 -1
BITMAP
03F000
0C0C00
100200
20C100
40C080
80C040
8FFE40
880640
880440
880440
800C40
800840
801840
403080
61E100
318200
0C0C00
03F000
ENDCHAR
STARTCHAR 32D3
ENCODING 13011
SWIDTH 1000 0
DWIDTH 20 0
BBX 18 19 1 -2
BITMAP
03F000
0C0C00
100200
200100
400080
8FFC40
80C040
80C040
80C040
80C040
80C040
80C040
80C040
9FFE40
400080
200100
100200
0C0C00
03F000
ENDCHAR
STARTCHAR 32D4
ENCODING 13012
SWIDTH 1000 0
DWIDTH 20 0
BBX 18 18 1 -1
BITMAP
03F000
0C0C00
100200
203100
403080
803040
9FFE40
807040
80F040
81B040
833040
863040
8C3040
583080
213100
30E200
0C0C00
03F000
ENDCHAR
STARTCHAR 32D5
ENCODING 13013
SWIDTH 1000 0
DWIDTH 20 0
BBX 18 19 1 -2
BITMAP
03F000
0C0C00
100200
20C100
40C080
80C040
8FFE40
80C440
808440
808440
818440
830440
830440
8E4C40
5C7880
200100
100200
0C0C00
03F000
ENDCHAR
STARTCHAR 32D6
ENCODING 13014
SWIDTH 1000 0
DWIDTH 20 0
BBX 18 19 1 -2
BITMAP
03F000
0C0C00
100200
218100
418080
80B840
8FF840
9E8040
80C040
80DE40
87FC40
9E4040
804040
806040
406080
206100
100200
0C0C00
03F000
ENDCHAR
STARTCHAR 32D7
ENCODING 13015
SWIDTH 1000 0
DWIDTH 20 0
BBX 18 18 1 -1
BITMAP
03F000
0C0C00
300200
60C100
418080
81FC40
830C40
860C40
8C0840
881840
803040
803040
806040
41C080
238100
120200
0C0C00
03F000
ENDCHAR
STARTCHAR 32D8
ENCODING 13016
SWIDTH 1000 0
DWIDTH 20 0
BBX 18 19 1 -2
BITMAP
03F000
0C0C00
100200
230100
430080
820040
87FF40
8C3040
8C3040
982040
902040
806040
804040
80C040
438080
230100
100200
0C0C00
03F000
ENDCHAR
STARTCHAR 32D9
ENCODING 13017
SWIDTH 1000 0
DWIDTH 20 0
BBX 18 20 1 -2
BITMAP
03F000
0C0C00
100200
200100
400080
4FFC80
800C40
800C40
800C40
800C40
800C40
800C40
800C40
800C40
5FFC80
400C80
200100
100200
0C0C00
03F000
ENDCHAR
STARTCHAR 32DA
ENCODING 13018
SWIDTH 1000 0
DWIDTH 20 0
BBX 18 19 1 -2
BITMAP
03F000
0C0C00
100200
261900
461880
861840
861840
BFFF40
861840
861040
861040
861040
803040
802040
406080
21C100
100200
0C0C00
03F000
ENDCHAR
STARTCHAR 32DB
ENCODING 13019
SWIDTH 1000 0
DWIDTH 20 0
BBX 18 19 1 -2
BITMAP
03F000
0C0C00
100200
220100
430080
81C040
808240
8C0340
8E0640
820C40
800C40
803840
807040
83C040
4F0080
240100
100200
0C0C00
03F000
ENDCHAR
STARTCHAR 32DC
ENCODING 13020
SWIDTH 1000 0
DWIDTH 20 0
BBX 18 19 1 -2
BITMAP
03F000
0C0C00
100200
200100
4FF880
8E1840
801040
803040
802040
806040
80F040
819840
830C40
8E0640
5C0280
200100
100200
0C0C00
03F000
ENDCHAR
STARTCHAR 32DD
ENCODING 13021
SWIDTH 1000 0
DWIDTH 20 0
BBX 18 19 1 -2
BITMAP
03F000
0C0C00
300200
620100
420080
820040
82FE40
BFE440
A20C40
821840
823040
820040
820040
820440
43FC80
200100
100200
0C0C00
03F000
ENDCHAR
STARTCHAR 32DE
ENCODING 13022
SWIDTH 1000 0
DWIDTH 20 0
BBX 18 19 1 -2
BITMAP
03F000
0C0C00
100200
200100
480480
8C0640
860640
860C40
820C40
801840
801840
803040
806040
80C040
438080
220100
100200
0C0C00
03F000
ENDCHAR
STARTCHAR 32DF
ENCODING 13023
SWIDTH 1000 0
DWIDTH 20 0
BBX 18 19 1 -2
BITMAP
03F000
0C0C00
100200
208100
418080
81FC40
830440
820C40
878C40
8CD840
887840
803040
806040
80C040
438080
270100
100200
0C0C00
03F000
ENDCHAR
STARTCHAR 32E0
ENCODING 13024
SWIDTH 1000 0
DWIDTH 20 0
BBX 18 18 1 -1
BITMAP
03F000
0C0C00
300200
601900
4FF080
874040
804040
804040
9FFF40
804040
80C040
80C040
808040
418080
270100
100200
0C0C00
03F000
ENDCHAR
STARTCHAR 32E1
ENCODING 13025
SWIDTH 1000 0
DWIDTH 20 0
BBX 18 19 1 -2
BITMAP
03F000
0C0C00
100200
200100
418480
988640
98C640
8CC440
8C0C40
800C40
801840
803040
807040
80C040
478080
220100
100200
0C0C00
03F000
ENDCHAR
STARTCHAR 32E2
ENCODING 13026
SWIDTH 1000 0
DWIDTH 20 0
BBX 18 19 1 -2
BITMAP
03F000
0C0C00
100200
200100
47F880
800040
800040
800040
BFFF40
804040
804040
80C040
80C040
818040
430080
260100
100200
0C0C00
03F000
ENDCHAR
STARTCHAR 32E3
ENCODING 13027
SWIDTH 1000 0
DWIDTH 20 0
BBX 18 19 1 -2
BITMAP
03F000
0C0C00
100200
210100
410080
810040
810040
818040
81E040
817840
811C40
810040
810040
810040
410080
210100
100200
0C0C00
03F000
ENDCHAR
STARTCHAR 32E5
ENCODING 13029
SWIDTH 1000 0
DWIDTH 20 0
BBX 18 18 1 -1
BITMAP
03F000
0C0C00
100200
200100
400080
8FFC40
800040
800040
800040
800040
800040
800040
9FFE40
400080
200100
100200
0C0C00
03F000
ENDCHAR
STARTCHAR 32E9
ENCODING 13033
SWIDTH 1000 0
DWIDTH 20 0
BBX 18 19 1 -2
BITMAP
03F000
0C0C00
100200
200100
400080
823040
861840
861840
840C40
8C0640
8C0640
980340
B00340
900040
400080
200100
100200
0C0C00
03F000
ENDCHAR
STARTCHAR 32EC
ENCODING 13036
SWIDTH 1000 0
DWIDTH 20 0
BBX 18 19 1 -2
BITMAP
03F000
0C0C00
100200
200100
400080
818040
83C040
86C040
8C7040
983840
B01C40
A00E40
800340
800040
400080
200100
100200
0C0C00
03F000
ENDCHAR
STARTCHAR 32ED
ENCODING 13037
SWIDTH 1000 0
DWIDTH 20 0
BBX 18 18 1 -1
BITMAP
03F000
0C0C00
100200
20C100
40C080
80C040
9FFE40
80C040
84C840
84CC40
8CCC40
88C640
98C240
50C080
20C100
338200
0C0C00
03F000
ENDCHAR
STARTCHAR 32FA
ENCODING 13050
SWIDTH 1000 0
DWIDTH 20 0
BBX 18 19 1 -2
BITMAP
03F000
1C0C00
300200
600100
4FFC80
880440
880440
880440
880440
880440
880440
880440
880440
8FFC40
480480
200100
100200
0C0C00
03F000
ENDCHAR
STARTCHAR 3303
ENCODING 13059
SWIDTH 1000 0
DWIDTH 20 0
BBX 18 17 1 -2
BITMAP
7F8000
018000
090000
0A7FC0
080000
100000
300000
600000
000000
040000
340000
340000
240000
244000
24C000
658000
C60000
ENDCHAR
STARTCHAR 330D
ENCODING 13069
SWIDTH 1000 0
DWIDTH 20 0
BBX 17 18 2 -2
BITMAP
100000
100000
FE7F00
224100
224100
224100
424100
DC7F00
000000
000000
C40000
C40000
C40000
C40000
C4FF80
0C0000
080000
300000
ENDCHAR
STARTCHAR 3314
ENCODING 13076
SWIDTH 1000 0
DWIDTH 20 0
BBX 17 15 1 0
BITMAP
080000
0B0000
FE0000
080000
0FC000
FE0000
040000
040000
047F80
006080
006080
006080
006080
006080
007F80
ENDCHAR
STARTCHAR 3318
ENCODING 13080
SWIDTH 1000 0
DWIDTH 20 0
BBX 18 18 1 -1
BITMAP
008000
111F80
300000
3E0000
623FC0
C600C0
040080
080100
300700
600C00
100000
180000
100000
100000
320000
230000
278000
F88000
ENDCHAR
STARTCHAR 3322
ENCODING 13090
SWIDTH 1000 0
DWIDTH 20 0
BBX 18 19 1 -2
BITMAP
300000
303000
3F0840
F900C0
320180
340300
300600
303C00
1F0000
000000
3F0000
240000
040000
FFC000
0C0000
080000
180000
300000
200000
ENDCHAR
STARTCHAR 3323
ENCODING 13091
SWIDTH 1000 0
DWIDTH 20 0
BBX 18 19 1 -2
BITMAP
300000
303000
3F1840
F908C0
320080
360100
300300
301C00
1F1800
000000
100000
100000
100000
1C0000
160000
130000
100000
100000
100000
ENDCHAR
STARTCHAR 3326
ENCODING 13094
SWIDTH 1000 0
DWIDTH 20 0
BBX 16 18 3 -1
BITMAP
C200
CA00
C400
C000
E000
F000
DC00
C400
C000
C000
C1A0
01A0
01A0
0121
0123
0326
022C
0630
ENDCHAR
STARTCHAR 3327
ENCODING 13095
SWIDTH 1000 0
DWIDTH 20 0
BBX 15 18 3 -1
BITMAP
C000
C000
C000
C000
E000
F800
CC00
C000
C000
C100
C182
0042
0002
0004
000C
0018
0070
00C0
ENDCHAR
STARTCHAR 332B
ENCODING 13099
SWIDTH 1000 0
DWIDTH 20 0
BBX 18 19 1 -2
BITMAP
018000
018000
000000
220000
233FC0
418000
C08000
808000
000000
200200
218200
3CCA00
F40B00
2C0B80
281240
203240
206200
3D8200
000200
ENDCHAR
STARTCHAR 3336
ENCODING 13110
SWIDTH 1000 0
DWIDTH 20 0
BBX 18 18 1 -2
BITMAP
000200
1807C0
240C80
621880
419180
00C300
000600
000800
300000
200200
3C0A00
640A00
E40A00
BBEA40
181A40
301280
603300
400000
ENDCHAR
STARTCHAR 333B
ENCODING 13115
SWIDTH 1000 0
DWIDTH 20 0
BBX 18 18 1 -1
BITMAP
010000
028000
1B0000
2C0000
463FC0
830000
00C000
000000
008000
018000
300000
100000
408000
218000
030000
060000
180000
700000
ENDCHAR
STARTCHAR 3349
ENCODING 13129
SWIDTH 1000 0
DWIDTH 20 0
BBX 16 17 2 -1
BITMAP
7000
0C00
0400
7000
1C00
0000
E000
3821
0E21
0021
0021
0023
0023
0002
0006
000C
0008
ENDCHAR
STARTCHAR 334A
ENCODING 13130
SWIDTH 1000 0
DWIDTH 20 0
BBX 18 18 1 -1
BITMAP
300100
1C1100
061100
301100
0C1100
001100
700100
0E0200
020C00
000000
060200
0C0A00
680A00
45EA40
440A40
C61A80
821300
000200
ENDCHAR
STARTCHAR 334D
ENCODING 13133
SWIDTH 1000 0
DWIDTH 20 0
BBX 17 18 2 -2
BITMAP
060000
040000
6C0000
18FF80
1C0000
260000
C00000
800000
000000
200800
206800
206800
306800
2C4880
244980
20CB00
218C00
200000
ENDCHAR
STARTCHAR 3351
ENCODING 13137
SWIDTH 1000 0
DWIDTH 20 0
BBX 16 19 3 -2
BITMAP
0800
8800
8800
8892
8854
8804
1808
1030
6040
0000
C010
C090
C090
C090
F091
D892
C194
C318
C000
ENDCHAR
STARTCHAR 3357
ENCODING 13143
SWIDTH 1000 0
DWIDTH 20 0
BBX 16 18 2 -2
BITMAP
FE00
8209
8629
842B
0402
0804
3038
2000
6000
6000
6000
6000
7800
6C00
6400
6000
6000
6000
ENDCHAR
STARTCHAR 337B
ENCODING 13179
SWIDTH 1000 0
DWIDTH 20 0
BBX 18 18 1 -1
BITMAP
000780
FF0680
080600
087FC0
C94600
494600
4B46C0
4A7A80
6A4A80
6A4A80
084A80
FFCB00
084B00
085B00
084340
08C540
088DC0
0898C0
ENDCHAR
STARTCHAR 337C
ENCODING 13180
SWIDTH 1000 0
DWIDTH 20 0
BBX 18 17 1 -1
BITMAP
0F8C00
F6F800
9493C0
949240
949240
94FA40
9C9240
FB1240
903A40
9FBA40
9DB640
9DD240
9DD240
9DD240
FD93C0
8D9240
0F9200
ENDCHAR
STARTCHAR 337D
ENCODING 13181
SWIDTH 1000 0
DWIDTH 20 0
BBX 18 18 1 -2
BITMAP
080000
083FC0
080200
080200
FF8200
081200
081200
181200
181380
1C1200
141200
141200
361200
221200
631200
411200
C1FFC0
800000
ENDCHAR
STARTCHAR 337E
ENCODING 13182
SWIDTH 1000 0
DWIDTH 20 0
BBX 18 18 1 -1
BITMAP
000200
0FE200
E9A200
A9B600
A98400
A9C580
AFE480
E9BCC0
A99FC0
A98040
A9AF80
AFA880
E9A880
89A880
09A880
11E880
31EF80
234880
ENDCHAR
STARTCHAR 338E
ENCODING 13198
SWIDTH 1000 0
DWIDTH 20 0
BBX 18 13 1 -2
BITMAP
BB8FC0
CC99C0
CC90C0
CCB0C0
CCB0C0
CCB0C0
CC90C0
CC91C0
CC8EC0
CC80C0
001080
001980
000F00
ENDCHAR
STARTCHAR 338F
ENCODING 13199
SWIDTH 1000 0
DWIDTH 20 0
BBX 16 17 2 -2
BITMAP
C000
C000
C000
C000
C63D
CC67
D843
F0C3
F8C1
E8C3
CC43
C667
C63B
C303
0043
0062
003C
ENDCHAR
STARTCHAR 339C
ENCODING 13212
SWIDTH 1000 0
DWIDTH 20 0
BBX 18 10 1 1
BITMAP
FF3F80
C92680
C924C0
C924C0
C924C0
C924C0
C924C0
C924C0
C924C0
C924C0
ENDCHAR
STARTCHAR 339D
ENCODING 13213
SWIDTH 1000 0
DWIDTH 20 0
BBX 17 10 1 1
BITMAP
3CBB80
66CC80
42CC80
C0CC80
C0CC80
C0CC80
C0CC80
42CC80
66CC80
3CCC80
ENDCHAR
STARTCHAR 339E
ENCODING 13214
SWIDTH 1000 0
DWIDTH 20 0
BBX 16 14 2 1
BITMAP
8000
8000
8000
8000
8DF7
9999
9199
B199
F199
D999
8999
8D99
8599
8799
ENDCHAR
STARTCHAR 33A1
ENCODING 13217
SWIDTH 1000 0
DWIDTH 20 0
BBX 13 16 4 1
BITMAP
0038
0028
0008
0018
0020
0078
BCE0
C730
C610
8610
8610
8610
8610
8610
8610
8610
ENDCHAR
STARTCHAR 33C4
ENCODING 13252
SWIDTH 1000 0
DWIDTH 20 0
BBX 16 11 2 0
BITMAP
3C1E
6633
4221
C060
C060
C060
C060
C261
4221
6633
3C1E
ENDCHAR
STARTCHAR 33CB
ENCODING 13259
SWIDTH 1000 0
DWIDTH 20 0
BBX 15 14 3 1
BITMAP
C1FC
C186
C182
C182
C182
C186
FFFC
C180
C180
C180
C180
C180
C180
C180
ENDCHAR
STARTCHAR 33CD
ENCODING 13261
SWIDTH 1000 0
DWIDTH 20 0
BBX 17 14 2 1
BITMAP
884400
984C00
904800
B05800
A05000
E07000
E07000
E07000
B05800
904800
984C00
984400
884400
8D4680
ENDCHAR
STARTCHAR 3402
ENCODING 13314
SWIDTH 1000 0
DWIDTH 20 0
BBX 18 17 1 -1
BITMAP
020000
020000
03FF80
7FF000
020000
020300
020300
03FE00
000000
300800
300800
3F1FC0
F07800
300800
310840
3108C0
1F0F80
ENDCHAR
STARTCHAR 3406
ENCODING 13318
SWIDTH 1000 0
DWIDTH 20 0
BBX 11 17 4 -2
BITMAP
07C0
3E00
2000
3FC0
2040
3FC0
2040
2040
3FC0
2000
2000
7FE0
6060
6060
4060
C040
83C0
ENDCHAR
STARTCHAR 342C
ENCODING 13356
SWIDTH 1000 0
DWIDTH 20 0
BBX 17 18 2 -1
BITMAP
018000
018000
018000
FFFF00
020000
061800
0C0C00
0FFE00
7FE600
000200
101800
311800
311800
311800
211880
611980
C11980
800F00
ENDCHAR
STARTCHAR 342E
ENCODING 13358
SWIDTH 1000 0
DWIDTH 20 0
BBX 18 19 1 -2
BITMAP
00C000
00C000
FFFFC0
021000
0E1C00
380300
461900
7FFF80
061800
3FFF00
061800
061800
FFFFC0
036300
0E3600
F41C00
046E00
1FC3C0
180000
ENDCHAR
STARTCHAR 3468
ENCODING 13416
SWIDTH 1000 0
DWIDTH 20 0
BBX 18 18 1 -1
BITMAP
080000
09FF00
190100
190100
110100
31FF00
308000
718000
51FF80
D31000
961000
101000
17FFC0
103800
102C00
104600
118380
160080
ENDCHAR
STARTCHAR 346A
ENCODING 13418
SWIDTH 1000 0
DWIDTH 20 0
BBX 18 18 1 -1
BITMAP
081000
081000
181000
17FFC0
318200
30C400
303800
707C00
F3C3C0
B78300
31FF00
318300
318300
318300
31FF00
310300
330300
360300
ENDCHAR
STARTCHAR 3492
ENCODING 13458
SWIDTH 1000 0
DWIDTH 20 0
BBX 18 18 1 -1
BITMAP
086800
1B6900
196B00
116A00
37FF80
30C400
304C00
73FF80
701000
B01000
B3FF00
301000
37FFC0
307C00
30D600
339380
3610C0
301000
ENDCHAR
STARTCHAR 34B5
ENCODING 13493
SWIDTH 1000 0
DWIDTH 20 0
BBX 16 18 2 -1
BITMAP
0180
0100
0300
7FFE
6006
6006
6006
7FFE
6006
6006
6006
7FFE
6006
0C30
1818
300E
E003
8001
ENDCHAR
STARTCHAR 34BC
ENCODING 13500
SWIDTH 1000 0
DWIDTH 20 0
BBX 16 18 2 -1
BITMAP
0810
0810
0810
FFFF
0810
0FF0
0180
0180
FFFF
C183
D9F3
CD93
CDBB
DDAB
F3E7
E183
C183
C18F
ENDCHAR
STARTCHAR 34C1
ENCODING 13505
SWIDTH 1000 0
DWIDTH 20 0
BBX 16 8 2 4
BITMAP
FFFF
8043
8443
8440
0C42
1842
307E
6000
ENDCHAR
STARTCHAR 34C7
ENCODING 13511
SWIDTH 1000 0
DWIDTH 20 0
BBX 18 16 1 -1
BITMAP
000F00
63FC00
331000
381000
101000
001000
07FFC0
003800
003800
182800
102400
306600
60C300
E18380
4301C0
0600C0
ENDCHAR
STARTCHAR 34DB
ENCODING 13531
SWIDTH 1000 0
DWIDTH 20 0
BBX 17 16 1 -1
BITMAP
01FF80
FE1080
181080
181080
183080
183080
183080
183080
182080
1F6080
3C6180
E04180
00C180
018180
070980
020F00
ENDCHAR
STARTCHAR 351F
ENCODING 13599
SWIDTH 1000 0
DWIDTH 20 0
BBX 17 18 2 -1
BITMAP
101000
D01000
D01000
FEFE00
901600
905600
FE7200
103280
107A80
3ECB80
F08100
018000
FFFE00
010200
030200
060200
3C4600
707C00
ENDCHAR
STARTCHAR 355D
ENCODING 13661
SWIDTH 1000 0
DWIDTH 20 0
BBX 18 18 1 -1
BITMAP
00C000
00C000
FFFFC0
00C000
00C000
1FFF00
100300
100300
1FFF00
000000
000000
7FFE00
0C0C00
071800
01F000
03F000
1E1FC0
F00180
ENDCHAR
STARTCHAR 355E
ENCODING 13662
SWIDTH 1000 0
DWIDTH 20 0
BBX 18 16 1 -1
BITMAP
7FFF80
40D880
40D880
7FC880
440980
440980
440900
7FCD00
644700
644600
644600
E44700
A5CD00
A41980
8430C0
042040
ENDCHAR
STARTCHAR 3563
ENCODING 13667
SWIDTH 1000 0
DWIDTH 20 0
BBX 18 17 1 -1
BITMAP
01F000
040800
0C0C00
080400
180600
100300
300180
6000C0
C00040
1FFE00
180600
180600
180600
180600
180600
1FFE00
180600
ENDCHAR
STARTCHAR 356E
ENCODING 13678
SWIDTH 1000 0
DWIDTH 20 0
BBX 17 18 2 -2
BITMAP
000800
F88C00
888400
898600
890300
8B0300
8E8500
8C8D00
88C800
885800
887800
883000
F83000
807800
80CC00
038700
060180
040000
ENDCHAR
STARTCHAR 35A6
ENCODING 13734
SWIDTH 1000 0
DWIDTH 20 0
BBX 17 18 2 -1
BITMAP
002000
002000
F02000
97FF80
902000
93FF00
922300
922300
93FF00
922300
922300
93FF00
907000
F0E800
81A400
832300
0E2180
002000
ENDCHAR
STARTCHAR 35A8
ENCODING 13736
SWIDTH 1000 0
DWIDTH 20 0
BBX 17 17 2 -1
BITMAP
008000
F8FC00
998400
990C00
99F800
980800
9FFF80
983000
9A3100
9B3300
99BE00
98BC00
F87400
81B600
833300
043180
00F000
ENDCHAR
STARTCHAR 35C5
ENCODING 13765
SWIDTH 1000 0
DWIDTH 20 0
BBX 17 17 1 -1
BITMAP
008F80
F88C80
D88C80
D88C80
DFFC80
D88F80
D88C80
D88C80
DBEC80
DA2C80
DA2F80
DA2880
FA2880
C22880
C3E880
021880
001380
ENDCHAR
STARTCHAR 35DA
ENCODING 13786
SWIDTH 1000 0
DWIDTH 20 0
BBX 17 17 2 -1
BITMAP
07FF80
F04800
904800
904800
93FF00
924900
924900
93FF00
902000
902000
97FF80
907000
F07800
80AE00
032780
0E2180
002000
ENDCHAR
STARTCHAR 35F4
ENCODING 13812
SWIDTH 1000 0
DWIDTH 20 0
BBX 17 17 2 -1
BITMAP
07CF80
F64980
964980
97CF80
964980
97CF80
960180
960180
96F980
968980
968980
96F980
F68980
86F980
068180
068180
060700
ENDCHAR
STARTCHAR 3605
ENCODING 13829
SWIDTH 1000 0
DWIDTH 20 0
BBX 18 17 1 -1
BITMAP
032000
F237C0
965800
9C4C00
9BC800
92F800
9727C0
942180
9DF980
9C2180
94A980
94A980
F4A980
84E980
84A580
05F980
040300
ENDCHAR
STARTCHAR 364A
ENCODING 13898
SWIDTH 1000 0
DWIDTH 20 0
BBX 18 17 1 -1
BITMAP
10FF80
108000
108000
10FF00
108000
FC8000
10FF00
108000
17FFC0
109880
108980
1E8B00
F88600
C08600
00BB80
03E0C0
020000
ENDCHAR
STARTCHAR 3691
ENCODING 13969
SWIDTH 1000 0
DWIDTH 20 0
BBX 18 18 1 -2
BITMAP
1FFE00
000600
000600
000600
7FFF80
000600
000600
1FFE00
00C000
00C000
00C000
FFFFC0
00E000
01B000
031800
0E0E00
F80380
400000
ENDCHAR
STARTCHAR 3696
ENCODING 13974
SWIDTH 1000 0
DWIDTH 20 0
BBX 18 19 1 -2
BITMAP
008000
018000
1FFE00
100200
100200
1FFE00
100200
100200
1FFE00
00C000
00C000
00C000
FFFFC0
00E000
01B000
031800
0E0F00
780380
400000
ENDCHAR
STARTCHAR 3699
ENCODING 13977
SWIDTH 1000 0
DWIDTH 20 0
BBX 18 17 1 -1
BITMAP
080000
0FBF80
78A080
08A080
19A080
11A080
71BF80
470000
00C000
00C000
FFFFC0
00E000
01B000
031800
060E00
3C07C0
600080
ENDCHAR
STARTCHAR 36CF
ENCODING 14031
SWIDTH 1000 0
DWIDTH 20 0
BBX 18 19 1 -2
BITMAP
101800
101B00
101900
301900
FC1800
25FFC0
241800
241880
649980
64DF00
445E00
4C3E00
787A00
58D900
1D9980
1718C0
201800
601800
407000
ENDCHAR
STARTCHAR 3761
ENCODING 14177
SWIDTH 1000 0
DWIDTH 20 0
BBX 17 18 2 -1
BITMAP
018000
018000
018000
FFFF00
800100
800100
FF8000
62FF00
626300
7E2200
622200
623600
7E1400
621C00
621C00
FE3600
826300
02C180
ENDCHAR
STARTCHAR 3762
ENCODING 14178
SWIDTH 1000 0
DWIDTH 20 0
BBX 16 18 2 -1
BITMAP
0180
0180
FFFF
8001
8079
BFF1
0180
3FFC
2184
3FFC
0180
0180
FFFE
C1A2
C192
DFEA
C002
C01E
ENDCHAR
STARTCHAR 376B
ENCODING 14187
SWIDTH 1000 0
DWIDTH 20 0
BBX 17 18 2 -1
BITMAP
018000
018000
FFFF00
800100
804100
F8FE00
C98C00
D27800
D07C00
E78380
D5FE00
D12000
D92000
CBFF00
CA2000
F9FF00
C02000
C7FF80
ENDCHAR
STARTCHAR 376C
ENCODING 14188
SWIDTH 1000 0
DWIDTH 20 0
BBX 18 18 1 -1
BITMAP
080400
080400
080400
FF8400
88BF80
F98400
7E0400
080400
7F0400
087FC0
FF8400
080E00
080A00
7F0B00
611900
613180
7F70C0
606040
ENDCHAR
STARTCHAR 3775
ENCODING 14197
SWIDTH 1000 0
DWIDTH 20 0
BBX 18 17 1 -1
BITMAP
1FFE00
100200
100200
1FFE00
100200
1FFE00
000000
000000
7FFF80
000800
000800
FFFFC0
000800
0C0800
060800
020800
007800
ENDCHAR
STARTCHAR 378D
ENCODING 14221
SWIDTH 1000 0
DWIDTH 20 0
BBX 18 16 1 -1
BITMAP
3FFF00
300100
300100
3FFF00
300100
304000
304000
3FFC00
204400
22C400
23C400
20E400
61B440
630440
CE04C0
480780
ENDCHAR
STARTCHAR 37C1
ENCODING 14273
SWIDTH 1000 0
DWIDTH 20 0
BBX 18 17 1 -1
BITMAP
10FFC0
108000
108000
D68000
D68000
D6BF80
D68400
D68400
D68400
D6BFC0
D78400
D78400
D78400
FF0400
C10400
030400
020400
ENDCHAR
STARTCHAR 37E2
ENCODING 14306
SWIDTH 1000 0
DWIDTH 20 0
BBX 18 18 1 -1
BITMAP
00C000
20C100
20C100
3FFF00
00C000
00C000
3FFF00
00C000
073C00
3C0300
FFFFC0
000200
0FE200
082200
082200
0FE200
080200
001E00
ENDCHAR
STARTCHAR 37E8
ENCODING 14312
SWIDTH 1000 0
DWIDTH 20 0
BBX 18 18 1 -1
BITMAP
001800
119880
119880
119880
D5FF80
D40000
D40000
D7FFC0
D41000
D41000
D5FF80
D5A480
D5A480
D5A480
FDA480
C1A480
01A480
01A580
ENDCHAR
STARTCHAR 37F4
ENCODING 14324
SWIDTH 1000 0
DWIDTH 20 0
BBX 18 17 1 -1
BITMAP
101000
101000
11FF80
D79980
D79980
D7FF80
D79980
D79980
D7FF80
D66800
D66A00
D66A80
D64A80
FE4BC0
C04C00
018840
030FC0
ENDCHAR
STARTCHAR 37FD
ENCODING 14333
SWIDTH 1000 0
DWIDTH 20 0
BBX 18 17 1 -1
BITMAP
11FFC0
102400
102400
D5FF80
D52480
D52480
D5FF80
D40000
D5FF80
D40000
D40000
D5FFC0
D40800
FC8B00
C18980
0308C0
003800
ENDCHAR
STARTCHAR 3800
ENCODING 14336
SWIDTH 1000 0
DWIDTH 20 0
BBX 18 17 1 -1
BITMAP
018000
3FFE00
3FFE00
300200
3FFE00
300000
3FFFC0
300000
3FFF80
249080
64C880
C40380
00C000
30C100
30C100
30C100
3FFF00
ENDCHAR
STARTCHAR 382F
ENCODING 14383
SWIDTH 1000 0
DWIDTH 20 0
BBX 12 16 4 -1
BITMAP
FFE0
C020
C020
C020
FFE0
C020
C020
C000
C000
FFF0
C010
C010
C010
C010
FFF0
C010
ENDCHAR
STARTCHAR 3836
ENCODING 14390
SWIDTH 1000 0
DWIDTH 20 0
BBX 17 18 2 -1
BITMAP
203000
203000
202000
20FC00
FC8C00
A48C00
A48C00
A48C00
A48C00
A48C00
A48C00
A48C00
A58C00
AD8C80
210C80
230C80
260C80
240700
ENDCHAR
STARTCHAR 3840
ENCODING 14400
SWIDTH 1000 0
DWIDTH 20 0
BBX 18 18 1 -1
BITMAP
00C000
00C800
0CCC00
18C600
10C300
70C180
E0C0C0
3FFF00
20C100
20C100
22D100
26D900
24C900
24CD00
2CC100
20C100
20C100
20CF00
ENDCHAR
STARTCHAR 385C
ENCODING 14428
SWIDTH 1000 0
DWIDTH 20 0
BBX 18 18 1 -1
BITMAP
304000
30C800
30FFC0
309480
FD7700
B7A200
B6E300
B4C180
B4BEC0
B70040
B40000
B5FF80
B40800
BCCB00
308980
318880
3308C0
303800
ENDCHAR
STARTCHAR 3861
ENCODING 14433
SWIDTH 1000 0
DWIDTH 20 0
BBX 18 18 1 -1
BITMAP
200000
200000
23FFC0
220000
FA0080
AAF880
AA0080
AAF880
AA9FC0
AA9880
AA9C80
AAFA80
AA1280
BA5280
225080
263880
24E080
240380
ENDCHAR
STARTCHAR 38FA
ENCODING 14586
SWIDTH 1000 0
DWIDTH 20 0
BBX 18 17 1 -1
BITMAP
020000
020000
020000
020000
024200
324200
326300
222100
623180
623180
4218C0
C21080
020000
020000
020000
220000
1E0000
ENDCHAR
STARTCHAR 3917
ENCODING 14615
SWIDTH 1000 0
DWIDTH 20 0
BBX 18 18 1 -1
BITMAP
008000
008000
7FFF80
018000
018000
3FFF00
033000
FFFFC0
040C00
0C0600
190300
310180
6D6CC0
C92600
193200
313300
211100
070000
ENDCHAR
STARTCHAR 391A
ENCODING 14618
SWIDTH 1000 0
DWIDTH 20 0
BBX 18 18 1 -1
BITMAP
100000
10C000
109F80
118000
1B0000
D64000
D44000
D4BFC0
918300
938300
128300
148300
108300
108300
108300
108300
109300
108E00
ENDCHAR
STARTCHAR 396F
ENCODING 14703
SWIDTH 1000 0
DWIDTH 20 0
BBX 18 18 1 -1
BITMAP
003E00
1FE400
10C600
304300
6FFD00
00C000
3FFF00
000000
1FFE00
000600
FFFFC0
000600
1FFE00
00C000
364300
266580
660CC0
47F800
ENDCHAR
STARTCHAR 3A6E
ENCODING 14958
SWIDTH 1000 0
DWIDTH 20 0
BBX 18 18 1 -1
BITMAP
302000
31E700
313900
31A700
FD3900
310900
31AF00
312900
37FFC0
3C8200
F17D00
B610C0
3DFF40
301000
33FF80
301000
B09000
707000
ENDCHAR
STARTCHAR 3A73
ENCODING 14963
SWIDTH 1000 0
DWIDTH 20 0
BBX 18 18 1 -1
BITMAP
214580
234D00
224900
27EFC0
FED900
27FF80
22D900
23EF80
22C900
3BEFC0
F00000
A3FF00
20C300
206600
203800
207E00
23C3C0
E60000
ENDCHAR
STARTCHAR 3AD6
ENCODING 15062
SWIDTH 1000 0
DWIDTH 20 0
BBX 18 18 1 -1
BITMAP
008000
008000
008000
00FF00
008000
008000
008000
FFFFC0
000000
000000
1FFE00
100200
100200
1FFE00
100200
100200
100200
1FFE00
ENDCHAR
STARTCHAR 3AD7
ENCODING 15063
SWIDTH 1000 0
DWIDTH 20 0
BBX 18 17 1 -1
BITMAP
1FFE00
100200
100200
1FFE00
100200
100200
1FFE00
000000
1FFE00
001C00
007000
00C000
FFFFC0
004000
004000
004000
03C000
ENDCHAR
STARTCHAR 3AEA
ENCODING 15082
SWIDTH 1000 0
DWIDTH 20 0
BBX 18 18 1 -1
BITMAP
008000
008000
7FFF80
018000
3FFF00
033000
021000
FFFFC0
0C0C00
180700
79FFC0
C98600
098600
09FE00
098600
098600
09FE00
098600
ENDCHAR
STARTCHAR 3B0E
ENCODING 15118
SWIDTH 1000 0
DWIDTH 20 0
BBX 17 18 2 -2
BITMAP
3FFC00
200400
3FFC00
200400
200400
3FFC00
181800
341000
E4E600
686C00
3E1B00
263300
FDFD80
000400
666600
462300
C23180
800000
ENDCHAR
STARTCHAR 3B1A
ENCODING 15130
SWIDTH 1000 0
DWIDTH 20 0
BBX 18 18 1 -1
BITMAP
008600
008400
F88400
CFF400
C987C0
C92480
C92C80
CBFC80
F80C80
CBFD80
CA2780
CBE300
CA2300
CA2300
FBE300
C22780
022CC0
026840
ENDCHAR
STARTCHAR 3B1C
ENCODING 15132
SWIDTH 1000 0
DWIDTH 20 0
BBX 18 17 1 -1
BITMAP
FFFFC0
120900
311180
7FBFC0
080400
7F0400
083F80
080400
FF7FC0
000000
1FFE00
100200
100200
1FFE00
100200
100200
1FFE00
ENDCHAR
STARTCHAR 3B22
ENCODING 15138
SWIDTH 1000 0
DWIDTH 20 0
BBX 17 18 2 -1
BITMAP
008400
008800
F7FF00
902000
902000
93FF00
902000
97FF80
F00000
93EA00
908900
97FF80
908800
908B00
F0EE00
878480
009A80
03B100
ENDCHAR
STARTCHAR 3B6D
ENCODING 15213
SWIDTH 1000 0
DWIDTH 20 0
BBX 17 18 1 -1
BITMAP
100000
13F080
133080
133480
FF3480
333480
33F480
308480
388480
5C8480
55F480
D59480
919480
911480
111080
133080
163080
14E380
ENDCHAR
STARTCHAR 3B77
ENCODING 15223
SWIDTH 1000 0
DWIDTH 20 0
BBX 18 17 1 -1
BITMAP
10FF80
108880
108880
108880
FEFF80
108880
308880
38FF80
341800
721800
51FFC0
D010C0
901080
103080
106080
11C880
130F80
ENDCHAR
STARTCHAR 3B87
ENCODING 15239
SWIDTH 1000 0
DWIDTH 20 0
BBX 18 18 1 -1
BITMAP
100000
100E00
11FC00
11B000
102000
FC2000
13FFC0
384400
3CC200
35A180
5320C0
522000
D1AB00
912D80
112480
1324C0
122680
10E000
ENDCHAR
STARTCHAR 3B88
ENCODING 15240
SWIDTH 1000 0
DWIDTH 20 0
BBX 18 18 1 -1
BITMAP
101000
101000
103000
13FFC0
106400
FC6200
30C300
318180
3BFEC0
7E0040
540000
D1FF80
901800
909B00
119980
131880
1218C0
107000
ENDCHAR
STARTCHAR 3B8D
ENCODING 15245
SWIDTH 1000 0
DWIDTH 20 0
BBX 18 18 1 -1
BITMAP
040800
061800
FFFFC0
000000
000100
3F9100
219100
2F9100
2D9100
238100
278F00
00C000
00C000
FFFFC0
03F000
0ECC00
38C3C0
C0C000
ENDCHAR
STARTCHAR 3BA4
ENCODING 15268
SWIDTH 1000 0
DWIDTH 20 0
BBX 18 18 1 -1
BITMAP
00C000
00C000
7FFF80
423080
463180
38FF00
033000
0E0E00
7FFFC0
C80440
080400
0FFC00
00C000
FFFFC0
03F000
0ECE00
78C3C0
C0C000
ENDCHAR
STARTCHAR 3BB6
ENCODING 15286
SWIDTH 1000 0
DWIDTH 20 0
BBX 18 18 1 -1
BITMAP
301000
3137C0
3124C0
3124C0
F864C0
33F4C0
30C7C0
32D4C0
7AD4C0
7ED4C0
72D7C0
B2D4C0
B3F4C0
B0C4C0
308CC0
318CC0
3308C0
320980
ENDCHAR
STARTCHAR 3BC3
ENCODING 15299
SWIDTH 1000 0
DWIDTH 20 0
BBX 18 18 1 -1
BITMAP
101000
101000
101000
13FF80
103000
FC7E00
10D380
339880
383800
346600
54DB00
5398C0
D2DB00
905800
103E00
10DB80
131880
107000
ENDCHAR
STARTCHAR 3BCD
ENCODING 15309
SWIDTH 1000 0
DWIDTH 20 0
BBX 18 18 1 -1
BITMAP
304600
304400
324FC0
324C80
FA5B80
325B00
33C600
324C00
785900
7C4100
77FFC0
F34100
B35900
B34D00
324500
324100
364100
344700
ENDCHAR
STARTCHAR 3BF0
ENCODING 15344
SWIDTH 1000 0
DWIDTH 20 0
BBX 18 18 1 -1
BITMAP
100000
11FF80
112480
112480
11FF80
FC0800
33FFC0
301000
387F00
7F4100
577F00
D34100
D37F00
934100
934100
137F00
130000
13FFC0
ENDCHAR
STARTCHAR 3C0F
ENCODING 15375
SWIDTH 1000 0
DWIDTH 20 0
BBX 18 18 1 -1
BITMAP
118400
110400
13FFC0
12CB00
164900
FFFFC0
300000
38FF00
388300
54FF00
540000
D3FF80
920080
927E80
124680
127E80
124080
120380
ENDCHAR
STARTCHAR 3C26
ENCODING 15398
SWIDTH 1000 0
DWIDTH 20 0
BBX 18 17 1 -1
BITMAP
083000
083000
082000
7F7FC0
086880
084880
084900
FF8900
180C00
1A0C00
131400
111200
2FB300
F8A100
406180
00C0C0
008000
ENDCHAR
STARTCHAR 3CC3
ENCODING 15555
SWIDTH 1000 0
DWIDTH 20 0
BBX 18 17 1 -1
BITMAP
002000
702000
1BFE00
006600
006680
E046C0
70C6C0
3186C0
173780
003000
183000
17FFC0
303000
203000
603000
C03000
403000
ENDCHAR
STARTCHAR 3CD2
ENCODING 15570
SWIDTH 1000 0
DWIDTH 20 0
BBX 17 17 2 -1
BITMAP
006000
C04000
604000
3FFF80
008800
818C00
C30600
666300
0C4180
08C000
10C800
308800
218C00
610600
C33E00
CFF300
800100
ENDCHAR
STARTCHAR 3D11
ENCODING 15633
SWIDTH 1000 0
DWIDTH 20 0
BBX 18 18 1 -1
BITMAP
001000
401000
601000
37FFC0
160000
066300
C62200
67FFC0
360800
260800
06C980
16C980
16C980
36FF80
240800
641800
4C3000
48E000
ENDCHAR
STARTCHAR 3D1E
ENCODING 15646
SWIDTH 1000 0
DWIDTH 20 0
BBX 17 17 1 -1
BITMAP
000300
607F00
33E000
112180
013100
411300
619200
300000
027F80
026080
026080
1A6080
127F80
326080
626080
E27F80
426080
ENDCHAR
STARTCHAR 3D64
ENCODING 15716
SWIDTH 1000 0
DWIDTH 20 0
BBX 18 17 1 -2
BITMAP
47FF80
616280
336C80
1EF980
01E680
436C80
646880
203000
27FFC0
013200
193200
113600
32F580
266C80
604C00
418700
CF01C0
ENDCHAR
STARTCHAR 3D9A
ENCODING 15770
SWIDTH 1000 0
DWIDTH 20 0
BBX 18 17 1 -1
BITMAP
4FFFC0
60C800
37FF80
04C880
04C880
07FF80
E24FC0
2FE8C0
0248C0
03CFC0
1108C0
3FE8C0
2FEFC0
6108C0
7FE8C0
C118C0
411180
ENDCHAR
STARTCHAR 3DC0
ENCODING 15808
SWIDTH 1000 0
DWIDTH 20 0
BBX 18 18 1 -1
BITMAP
0C0800
0D0900
2D2900
2D6B00
6C4C00
0E1E00
1B3300
716100
004000
7FFE00
030600
030200
030200
FFFA00
030240
0303C0
0301C0
030180
ENDCHAR
STARTCHAR 3DD4
ENCODING 15828
SWIDTH 1000 0
DWIDTH 20 0
BBX 17 17 1 -1
BITMAP
100000
101F80
11F800
101080
569980
54C900
D84B00
D00000
D13F80
112080
112080
112080
393F80
3D2080
672080
613F80
412080
ENDCHAR
STARTCHAR 3E05
ENCODING 15877
SWIDTH 1000 0
DWIDTH 20 0
BBX 18 18 1 -1
BITMAP
310400
310400
310400
33FFC0
364900
FE5900
F88000
B3E7C0
B224C0
B3E4C0
3224C0
33E4C0
3004C0
3A24C0
2BC4C0
6E15C0
421400
C3F400
ENDCHAR
STARTCHAR 3E3F
ENCODING 15935
SWIDTH 1000 0
DWIDTH 20 0
BBX 18 18 1 -1
BITMAP
101800
101800
501800
51FFC0
501800
7C1800
D1FF80
900000
11FFC0
1500C0
1D00C0
3924C0
D02400
102400
106440
1044C0
11C4C0
110780
ENDCHAR
STARTCHAR 3E60
ENCODING 15968
SWIDTH 1000 0
DWIDTH 20 0
BBX 18 18 1 -1
BITMAP
041800
641800
2C1880
381F80
1BFC00
381800
699980
C99980
099980
1D9980
1D9980
2D9980
6DFF80
CD9800
0C1840
0C18C0
0818C0
780F80
ENDCHAR
STARTCHAR 3E66
ENCODING 15974
SWIDTH 1000 0
DWIDTH 20 0
BBX 17 17 1 -1
BITMAP
040000
65FF80
3C3080
183080
183080
282080
486080
8CC980
1D8F00
1C0000
34FF80
648180
C48180
0C8180
0C8180
08FF80
788180
ENDCHAR
STARTCHAR 3E68
ENCODING 15976
SWIDTH 1000 0
DWIDTH 20 0
BBX 17 17 1 -1
BITMAP
441800
2C1800
381800
11FF80
399880
699880
C99880
099880
1D9880
1DFF80
2D9880
6D9880
CD9880
0D9880
099880
09FF80
798080
ENDCHAR
STARTCHAR 3E83
ENCODING 16003
SWIDTH 1000 0
DWIDTH 20 0
BBX 18 18 1 -1
BITMAP
044600
6C4600
2BFFC0
384600
104600
308000
F8FF80
C90080
190080
1A0080
3AFC80
288C80
688C80
C88C80
88FC80
080180
080180
700F00
ENDCHAR
STARTCHAR 3E94
ENCODING 16020
SWIDTH 1000 0
DWIDTH 20 0
BBX 18 18 1 -1
BITMAP
000300
4DFF00
293300
3B1100
121080
37FE00
590200
890200
19FF00
190100
290100
69FFC0
C902C0
892AC0
0BEFC0
0AB480
1E9080
748780
ENDCHAR
STARTCHAR 3F57
ENCODING 16215
SWIDTH 1000 0
DWIDTH 20 0
BBX 17 17 2 -1
BITMAP
003000
FE3000
923000
923000
923000
923000
923000
FE3000
923800
927800
926800
924C00
92C400
FF8600
818300
030180
020000
ENDCHAR
STARTCHAR 3F72
ENCODING 16242
SWIDTH 1000 0
DWIDTH 20 0
BBX 18 17 1 -1
BITMAP
002000
002000
1FFFC0
180000
D80000
5FFFC0
784000
18C000
18C000
78FF00
D18100
100300
100300
300300
200300
604200
003E00
ENDCHAR
STARTCHAR 3F75
ENCODING 16245
SWIDTH 1000 0
DWIDTH 20 0
BBX 18 17 1 -1
BITMAP
002000
002000
1FFFC0
180000
580000
581000
781000
181000
1BFF80
381000
F81000
901000
101000
301000
301000
67FFC0
200000
ENDCHAR
STARTCHAR 3F77
ENCODING 16247
SWIDTH 1000 0
DWIDTH 20 0
BBX 18 17 1 -1
BITMAP
002000
002000
1FFFC0
180000
D83000
583000
783080
5FF180
18FB00
38BE00
D1B400
913600
133300
363180
3C30C0
203000
60F000
ENDCHAR
STARTCHAR 3FAE
ENCODING 16302
SWIDTH 1000 0
DWIDTH 20 0
BBX 18 18 1 -2
BITMAP
006000
006000
1FFFC0
102000
102000
D3FF00
530100
530100
73FF00
130100
13FF00
F00000
97FF80
103000
33FF00
303000
203000
6FFFC0
ENDCHAR
STARTCHAR 3FC9
ENCODING 16329
SWIDTH 1000 0
DWIDTH 20 0
BBX 18 19 1 -2
BITMAP
006000
006000
1FFFC0
103000
D3FF00
D23100
53FF00
503000
5FFFC0
100000
33FF00
D3FF00
920100
13FF00
120100
33FF00
208600
678380
0C0080
ENDCHAR
STARTCHAR 3FD7
ENCODING 16343
SWIDTH 1000 0
DWIDTH 20 0
BBX 18 18 1 -2
BITMAP
006000
006000
1FFFC0
100000
93DFC0
D70200
510200
5FEF80
118880
136F80
350880
F90880
928F80
328880
22AF80
26E900
648980
CC30C0
ENDCHAR
STARTCHAR 4039
ENCODING 16441
SWIDTH 1000 0
DWIDTH 20 0
BBX 17 18 2 -2
BITMAP
003000
003000
F83000
8FFF80
883000
883000
F93200
893600
893400
8BB600
FAFF00
8E7980
887800
884800
F8CC00
818600
830300
0E0180
ENDCHAR
STARTCHAR 4058
ENCODING 16472
SWIDTH 1000 0
DWIDTH 20 0
BBX 17 17 2 -1
BITMAP
003000
F87F00
88C200
8B3400
8AD800
F87000
89C000
8FC000
88FF00
FB1000
891000
8FFF80
891100
F91100
811100
811100
01FF00
ENDCHAR
STARTCHAR 4093
ENCODING 16531
SWIDTH 1000 0
DWIDTH 20 0
BBX 18 18 1 -1
BITMAP
200000
20FF00
20C100
7EC100
58FF00
58C100
D8C100
18C100
FFFF00
18C100
18C100
18FF00
1C2400
142400
322440
226440
60C440
C18780
ENDCHAR
STARTCHAR 4105
ENCODING 16645
SWIDTH 1000 0
DWIDTH 20 0
BBX 18 17 1 -1
BITMAP
188C00
088C00
0D9800
7FFF80
032000
023000
FFFFC0
0C0C00
1BFF00
3003C0
C000C0
3FFF00
00C800
0CCC00
18C700
70C380
43C100
ENDCHAR
STARTCHAR 4148
ENCODING 16712
SWIDTH 1000 0
DWIDTH 20 0
BBX 18 18 1 -1
BITMAP
008000
188C00
088C00
0D9800
7FFF80
032000
023000
FFFFC0
0C0C00
083600
37FB00
66C1C0
C0C000
3FFF00
01F000
06DC00
38C780
60C000
ENDCHAR
STARTCHAR 414F
ENCODING 16719
SWIDTH 1000 0
DWIDTH 20 0
BBX 18 17 1 0
BITMAP
7FFF80
F10080
110080
110080
11FF80
FF0100
111F00
317800
390880
757F80
550800
D10BC0
917E00
910840
130840
1208C0
120F80
ENDCHAR
STARTCHAR 4163
ENCODING 16739
SWIDTH 1000 0
DWIDTH 20 0
BBX 18 18 1 -1
BITMAP
001800
1E1000
F0FF80
108180
108180
10FF80
FE8180
108180
30FF80
380000
37FF80
541800
501800
D01800
91FF80
101800
101800
13FFC0
ENDCHAR
STARTCHAR 41B4
ENCODING 16820
SWIDTH 1000 0
DWIDTH 20 0
BBX 18 18 1 -1
BITMAP
00C000
00C000
7FFF80
433080
3C3F00
0FF000
082000
1FFF00
70C300
DFFF00
1FFF00
00C000
3FFF00
3FFF00
20C100
3FFF40
20C040
00FFC0
ENDCHAR
STARTCHAR 41BF
ENCODING 16831
SWIDTH 1000 0
DWIDTH 20 0
BBX 18 18 1 -1
BITMAP
00C000
00C000
7FFF80
433080
0E3F00
380E00
267F00
264100
267F00
3E7F00
264100
067F00
FE0800
37FFC0
261C00
266B00
66C9C0
C60800
ENDCHAR
STARTCHAR 41E6
ENCODING 16870
SWIDTH 1000 0
DWIDTH 20 0
BBX 18 18 1 -1
BITMAP
103000
102000
3FBF80
246C00
644400
464600
00C000
1FFE00
10C200
10C200
10C200
FFFFC0
00E000
01B000
031800
0E0E00
7C0380
600080
ENDCHAR
STARTCHAR 41EE
ENCODING 16878
SWIDTH 1000 0
DWIDTH 20 0
BBX 18 17 1 -1
BITMAP
303000
303000
3FBFC0
644400
C64600
080000
080F00
1BFC00
103000
303000
703000
D7FFC0
103000
103000
103000
103000
13FF80
ENDCHAR
STARTCHAR 41F3
ENCODING 16883
SWIDTH 1000 0
DWIDTH 20 0
BBX 18 18 1 -1
BITMAP
002000
302000
3FFF80
644400
C6C400
031E00
031F80
7FFC00
010000
3FFF00
018000
3FFF80
7C8300
00CE00
007880
01F0C0
3F1880
700780
ENDCHAR
STARTCHAR 4207
ENCODING 16903
SWIDTH 1000 0
DWIDTH 20 0
BBX 18 18 1 -1
BITMAP
102000
102000
3FFF80
244C00
464400
00FF00
00C000
00C000
1FFE00
100200
1FFE00
100200
1FFE00
00C000
00C000
FFFFC0
00C000
00C000
ENDCHAR
STARTCHAR 420E
ENCODING 16910
SWIDTH 1000 0
DWIDTH 20 0
BBX 18 18 1 -1
BITMAP
002000
302000
3FFF80
644400
464400
188600
FFFFC0
188600
18FE00
180000
1FFF00
00C000
00C000
FFFFC0
03F000
0ECE00
78C3C0
C0C000
ENDCHAR
STARTCHAR 4264
ENCODING 16996
SWIDTH 1000 0
DWIDTH 20 0
BBX 18 17 1 -1
BITMAP
302000
3FFFC0
644C00
C6C400
2D9800
2D1000
FF9FC0
1E3100
3F3100
CC7300
085A00
080A00
FF8E00
330400
3A0B00
0F3980
F160C0
ENDCHAR
STARTCHAR 42C6
ENCODING 17094
SWIDTH 1000 0
DWIDTH 20 0
BBX 18 17 1 -1
BITMAP
080000
18FFC0
120000
E60000
640000
387F80
1A4080
124080
FF4080
197F80
7E4080
5A4080
5A4000
5BC000
D88000
598000
190000
ENDCHAR
STARTCHAR 42D6
ENCODING 17110
SWIDTH 1000 0
DWIDTH 20 0
BBX 18 18 1 -1
BITMAP
080800
180800
100800
32FF80
660980
2DFFC0
1A0980
120980
37FF80
FD0800
190800
7EFFC0
5A0800
5A0800
5BFFC0
DA0800
580800
180800
ENDCHAR
STARTCHAR 42DD
ENCODING 17117
SWIDTH 1000 0
DWIDTH 20 0
BBX 18 18 1 -1
BITMAP
080000
1890C0
109880
F6C980
644900
3C6300
1A0200
121800
3F1000
F9FFC0
183300
5E2300
5A6200
5A7600
5A1C00
D81F00
587180
19C080
ENDCHAR
STARTCHAR 4302
ENCODING 17154
SWIDTH 1000 0
DWIDTH 20 0
BBX 18 18 1 -1
BITMAP
180000
10FF80
148080
E48080
6CFF80
288000
388000
14FFC0
229900
FE9100
139380
15FEC0
558C00
570C00
537F80
D10C00
930C00
12FFC0
ENDCHAR
STARTCHAR 432B
ENCODING 17195
SWIDTH 1000 0
DWIDTH 20 0
BBX 18 18 1 -1
BITMAP
100400
13F400
134400
27FFC0
EF3800
4BF800
334780
37F000
2CFF80
FA8180
10FF80
5C8180
54FF80
548180
D6FF80
D62400
906440
1387C0
ENDCHAR
STARTCHAR 4343
ENCODING 17219
SWIDTH 1000 0
DWIDTH 20 0
BBX 18 17 1 -1
BITMAP
018000
03FE00
070600
1CEC00
763000
01E000
070000
7E0000
47FF00
184000
104000
FFFFC0
004000
304100
304100
304100
3FFF00
ENDCHAR
STARTCHAR 43EE
ENCODING 17390
SWIDTH 1000 0
DWIDTH 20 0
BBX 18 18 1 -2
BITMAP
001800
001800
7C1800
45FF80
441080
443080
7C2080
44E980
458F00
440000
440180
7DC300
446E00
440000
442400
446700
C5C180
9F00C0
ENDCHAR
STARTCHAR 43F0
ENCODING 17392
SWIDTH 1000 0
DWIDTH 20 0
BBX 18 16 1 -2
BITMAP
7CFF80
441880
44D080
443880
7C3C80
442180
44C980
458700
441000
7C0C00
44A100
44A180
45A080
45A2C0
C52240
9C3E00
ENDCHAR
STARTCHAR 4408
ENCODING 17416
SWIDTH 1000 0
DWIDTH 20 0
BBX 18 17 1 -1
BITMAP
000800
7C0800
45FFC0
440800
440800
7C3F80
452180
453F80
452180
452180
7D3F80
452180
452180
453F80
C50000
C5FFC0
9D0000
ENDCHAR
STARTCHAR 4417
ENCODING 17431
SWIDTH 1000 0
DWIDTH 20 0
BBX 18 18 1 -1
BITMAP
001000
001000
7C1080
44FF80
441300
441200
7C17C0
45F800
441300
446100
45FF00
7F4100
444100
447F00
444100
C44100
C47F00
9C4100
ENDCHAR
STARTCHAR 441C
ENCODING 17436
SWIDTH 1000 0
DWIDTH 20 0
BBX 18 18 1 -1
BITMAP
008100
78FF00
488080
488080
48FF80
480000
787F80
496180
497F80
496180
797F80
496180
497F80
490000
49FFC0
C84600
88E380
9B00C0
ENDCHAR
STARTCHAR 4422
ENCODING 17442
SWIDTH 1000 0
DWIDTH 20 0
BBX 17 18 1 -2
BITMAP
004000
7CFF80
458080
459480
449480
7CFC80
442080
44C780
444000
447F80
7C8080
459080
479680
449680
44FE80
C43080
846180
9C8700
ENDCHAR
STARTCHAR 4453
ENCODING 17491
SWIDTH 1000 0
DWIDTH 20 0
BBX 18 18 1 -1
BITMAP
0C0C00
0C0C00
7FFF80
0C0C00
0FFC00
0C0C00
0FFC00
0C0C00
7FFF80
400080
5FFE80
460C80
3FFE00
1EC200
00C000
3FFF00
00C000
FFFFC0
ENDCHAR
STARTCHAR 445B
ENCODING 17499
SWIDTH 1000 0
DWIDTH 20 0
BBX 18 17 1 -1
BITMAP
070380
FC7E00
086400
086400
086400
FFE400
0867C0
087C00
086600
086600
7F6600
436200
437A00
43F340
438140
7F01C0
407C80
ENDCHAR
STARTCHAR 4476
ENCODING 17526
SWIDTH 1000 0
DWIDTH 20 0
BBX 18 18 1 -1
BITMAP
180800
180800
10FFC0
7E0800
420800
527F80
5A0800
4AFFC0
430000
FE7F80
424880
5A4880
5A4880
5A7F80
5A4080
424080
D24080
8E4780
ENDCHAR
STARTCHAR 447A
ENCODING 17530
SWIDTH 1000 0
DWIDTH 20 0
BBX 18 17 1 -2
BITMAP
100000
10FF00
7C8100
449D00
54F100
549100
54FD00
4ED500
F4D500
54D500
54FD00
55D100
559540
5517C0
C51EC0
8572C0
9D02C0
ENDCHAR
ENDFONT
